<?xml version="1.0" encoding="UTF-8" standalone="no"?>
<svg
   xmlns:dc="http://purl.org/dc/elements/1.1/"
   xmlns:cc="http://creativecommons.org/ns#"
   xmlns:rdf="http://www.w3.org/1999/02/22-rdf-syntax-ns#"
   xmlns:svg="http://www.w3.org/2000/svg"
   xmlns="http://www.w3.org/2000/svg"
   xmlns:sodipodi="http://sodipodi.sourceforge.net/DTD/sodipodi-0.dtd"
   xmlns:inkscape="http://www.inkscape.org/namespaces/inkscape"
   height="279"
   viewBox="0 0 358.00001 279.00001"
   width="358"
   version="1.1"
   id="svg152"
   sodipodi:docname="logo-RAPID_REACT (1).svg"
   inkscape:version="0.92.4 (5da689c313, 2019-01-14)">
  <metadata
     id="metadata158">
    <rdf:RDF>
      <cc:Work
         rdf:about="">
        <dc:format>image/svg+xml</dc:format>
        <dc:type
           rdf:resource="http://purl.org/dc/dcmitype/StillImage" />
        <dc:title></dc:title>
      </cc:Work>
    </rdf:RDF>
  </metadata>
  <defs
     id="defs156" />
  <sodipodi:namedview
     pagecolor="#ffffff"
     bordercolor="#666666"
     borderopacity="1"
     objecttolerance="10"
     gridtolerance="10"
     guidetolerance="10"
     inkscape:pageopacity="0"
     inkscape:pageshadow="2"
     inkscape:window-width="1920"
     inkscape:window-height="974"
     id="namedview154"
     showgrid="false"
     fit-margin-top="0"
     fit-margin-left="0"
     fit-margin-right="0"
     fit-margin-bottom="0"
     inkscape:zoom="2.0781072"
     inkscape:cx="256.43266"
     inkscape:cy="150.64614"
     inkscape:window-x="-11"
     inkscape:window-y="-11"
     inkscape:window-maximized="1"
     inkscape:current-layer="svg152" />
  <path
     d="m 174.18835,269.3099 a 12.716666,12.711368 0 0 1 -7.93326,-2.75333 c 2.53725,-5.72381 7.71168,-13.41056 14.77167,-20.91492 a 12.825281,12.819938 0 0 1 4.77907,16.30721 23.400056,23.390308 0 0 1 -6.08245,-3.96932 l 3.8667,7.25247 a 12.794869,12.789539 0 0 1 -9.37567,4.07789 z m -12.82528,-12.82428 a 12.84266,12.83731 0 0 1 18.14742,-11.6691 c -6.95137,6.14072 -12.33434,13.28028 -15.51894,19.44705 a 12.747078,12.741768 0 0 1 -2.62848,-7.77795 z m 26.04157,6.1494 a 14.576158,14.570086 0 0 0 -5.1527,-18.28318 c 2.34174,-2.40591 4.86596,-4.77707 7.55962,-7.0527 a 66.038034,66.010523 0 0 0 -8.863,6.27969 14.580503,14.574429 0 0 0 -17.81289,22.42186 c -2.78924,6.0278 -3.28018,10.88305 -0.82113,12.52028 2.63717,1.73712 8.36336,-1.42878 11.79995,-6.61408 0,0 -5.3178,4.77708 -8.23303,3.69572 -1.79867,-0.67747 -1.80736,-3.42646 -0.32585,-7.38275 a 14.589192,14.583114 0 0 0 18.86429,-1.38101 l 0.51701,0.97279 c 6.35181,-0.51245 25.32037,-1.01188 25.32037,-1.01188 0,-0.91633 -12.55592,-0.0912 -22.86133,-4.18211 z"
     id="path2"
     inkscape:connector-curvature="0"
     style="stroke-width:0.43437025" />
  <path
     d="m 274.36631,255.14804 2.3765,-3.14853 -8.27648,-0.004 2.04196,-2.70122 h 8.26779 l 2.38085,-3.15287 h -16.5182 l -11.3568,15.0695 h 16.51819 l 2.37216,-3.15287 h -8.26779 l 2.18534,-2.90967 z"
     id="path4"
     inkscape:connector-curvature="0"
     style="stroke-width:0.43437025" />
  <path
     d="m 285.83607,246.14108 -11.3568,15.0695 h 8.24172 l 11.3568,-15.0695 z"
     id="path6"
     inkscape:connector-curvature="0"
     style="stroke-width:0.43437025" />
  <path
     d="m 313.29399,246.14108 -5.75661,7.63898 -1.76825,-7.63898 h -6.44305 l -11.36115,15.0695 h 5.45248 l 5.70881,-7.56949 1.75088,7.56949 h 6.51257 l 11.3568,-15.0695 z"
     id="path8"
     inkscape:connector-curvature="0"
     style="stroke-width:0.43437025" />
  <path
     d="m 340.24359,246.14108 h -13.24671 a 6.9122705,6.9093909 0 0 0 -5.54806,2.76636 l -6.84276,9.0721 a 1.9941748,1.9933441 0 0 0 -0.3997,1.21599 2.0115533,2.0107153 0 0 0 2.01155,2.01505 h 13.24671 a 6.9253043,6.9224193 0 0 0 5.54806,-2.76636 l 1.65095,-2.1714 h 1.91163 l 2.39388,-3.17024 h -10.149 l -3.20198,4.24726 a 1.8117013,1.8109466 0 0 1 -1.43807,0.71656 h -2.33305 a 0.5213529,0.52113571 0 0 1 -0.43446,-0.83816 l 5.4351,-7.20905 a 1.7812891,1.780547 0 0 1 1.43807,-0.71656 h 2.33305 a 0.5213529,0.52113571 0 0 1 0.52136,0.52548 0.50397447,0.50376451 0 0 1 -0.0999,0.30834 l -0.86892,1.1769 h 8.25475 l 1.45545,-1.93255 a 1.9854856,1.9846585 0 0 0 0.40404,-1.21164 2.0202425,2.0194009 0 0 0 -2.01589,-2.0194 z"
     id="path10"
     inkscape:connector-curvature="0"
     style="stroke-width:0.43437025" />
  <path
     d="m 248.67664,250.12776 -5.43076,7.21339 a 1.8117013,1.8109466 0 0 1 -1.44241,0.71656 h -2.33305 a 0.5256975,0.5254785 0 0 1 -0.5257,-0.52548 0.5213529,0.52113571 0 0 1 0.10427,-0.31268 l 5.43511,-7.20904 a 1.8030121,1.802261 0 0 1 1.43806,-0.71656 h 2.33306 a 0.5256975,0.5254785 0 0 1 0.52569,0.52548 0.50831907,0.50810731 0 0 1 -0.10427,0.30833 z m 9.20623,-1.96728 a 2.0158979,2.0150581 0 0 0 -2.0159,-2.0194 h -13.23802 a 6.9209597,6.9180765 0 0 0 -5.55241,2.76636 l -6.84276,9.0721 a 2.0202425,2.0194009 0 0 0 1.61185,3.23104 H 245.088 a 6.9513719,6.9484761 0 0 0 5.5524,-2.76636 l 6.84276,-9.05907 a 2.0072087,2.0063725 0 0 0 0.39971,-1.21164 z"
     id="path12"
     inkscape:connector-curvature="0"
     style="stroke-width:0.43437025" />
  <path
     d="m 223.50399,250.12776 -0.86892,1.15519 a 1.8073567,1.8066038 0 0 1 -1.44241,0.71656 h -3.38445 l 2.03762,-2.70122 h 3.23239 a 0.5256975,0.5254785 0 0 1 0.52569,0.52548 0.50831907,0.50810731 0 0 1 -0.10427,0.30834 z m -4.41847,5.86278 -1.01664,1.35061 a 1.8073567,1.8066038 0 0 1 -1.44241,0.72959 h -3.38445 l 2.17231,-2.90967 h 3.23673 a 0.5256975,0.5254785 0 0 1 0.5257,0.52113 0.51266368,0.51245011 0 0 1 -0.10862,0.32137 z m 7.65085,-1.94557 a 6.9513719,6.9484761 0 0 0 4.00139,-2.60568 l 1.5684,-2.0802 a 1.9898302,1.9890013 0 0 0 0.40839,-1.21164 2.0202425,2.0194009 0 0 0 -2.01589,-2.0194 h -16.71371 l -11.36115,15.06951 h 17.29154 a 6.9513719,6.9484761 0 0 0 5.57413,-2.75334 l 1.60316,-2.12363 a 1.6292278,1.6285491 0 0 0 -0.33453,-2.27562 z"
     id="path14"
     inkscape:connector-curvature="0"
     style="stroke-width:0.43437025" />
  <path
     d="m 31.546196,253.44132 h -1.737843 v 2.60568 h 1.737843 a 1.3033829,1.30284 0 1 0 0,-2.60568 z m 0.09124,4.26897 h -1.82908 v 3.57846 h -1.855148 v -9.50638 h 3.684228 c 1.963762,0 3.141151,1.35061 3.141151,2.96613 0,1.61552 -1.177389,2.96179 -3.141151,2.96179 z"
     id="path16"
     inkscape:connector-curvature="0"
     style="stroke-width:0.43437025" />
  <path
     d="m 40.617736,253.44132 h -1.737843 v 2.50579 h 1.737843 a 1.2555916,1.2550685 0 1 0 0,-2.50579 z m 1.44241,7.84743 -1.855147,-3.79126 h -1.33814 v 3.79126 h -1.855147 v -9.50638 h 3.727673 c 1.933351,0 3.084672,1.32455 3.084672,2.91402 a 2.5589738,2.5579078 0 0 1 -1.737843,2.49276 l 2.124513,4.0996 z"
     id="path18"
     inkscape:connector-curvature="0"
     style="stroke-width:0.43437025" />
  <path
     d="m 46.417787,261.28875 v -9.50638 h 6.26058 v 1.65461 h -4.405432 v 2.23219 h 3.75374 v 1.65461 h -3.75374 v 2.31037 h 4.405432 v 1.6546 z"
     id="path20"
     inkscape:connector-curvature="0"
     style="stroke-width:0.43437025" />
  <path
     d="m 57.787625,261.36692 c -1.44241,0 -2.537251,-0.30833 -3.475686,-1.25506 l 1.199112,-1.19862 a 3.1237728,3.1224714 0 0 0 2.298297,0.79908 c 1.094841,0 1.681363,-0.41257 1.681363,-1.17256 a 1.0644288,1.0639854 0 0 0 -0.291089,-0.80341 1.4554435,1.4548372 0 0 0 -0.842853,-0.3344 l -1.146977,-0.15634 a 3.2584556,3.2570982 0 0 1 -1.846458,-0.79039 2.5155277,2.5144798 0 0 1 -0.677759,-1.8674 c 0,-1.69369 1.255592,-2.88362 3.310591,-2.88362 a 4.083931,4.0822297 0 0 1 3.071638,1.10741 l -1.177389,1.16387 a 2.6067645,2.6056785 0 0 0 -1.946384,-0.65576 c -0.990571,0 -1.468478,0.54719 -1.468478,1.20296 a 0.91236757,0.91198748 0 0 0 0.278055,0.67747 1.6292278,1.6285491 0 0 0 0.868922,0.37348 l 1.120909,0.16069 a 3.1498404,3.1485282 0 0 1 1.816046,0.73393 2.6632444,2.6621349 0 0 1 0.734238,2.01506 c 0,1.84134 -1.533646,2.88361 -3.523476,2.88361 z"
     id="path22"
     inkscape:connector-curvature="0"
     style="stroke-width:0.43437025" />
  <path
     d="m 63.735393,261.28875 v -9.50638 h 6.260579 v 1.65461 H 65.59054 v 2.23219 h 3.749396 v 1.65461 H 65.59054 v 2.31037 h 4.405432 v 1.6546 z"
     id="path24"
     inkscape:connector-curvature="0"
     style="stroke-width:0.43437025" />
  <path
     d="m 78.107354,261.28875 -3.766775,-5.83237 v 5.83237 h -1.855147 v -9.50638 h 1.655295 l 3.766775,5.81935 v -5.81935 h 1.855148 v 9.50638 z"
     id="path26"
     inkscape:connector-curvature="0"
     style="stroke-width:0.43437025" />
  <path
     d="m 86.283905,253.43698 v 7.85177 h -1.855147 v -7.85177 h -2.485116 v -1.65461 h 6.825379 v 1.65461 z"
     id="path28"
     inkscape:connector-curvature="0"
     style="stroke-width:0.43437025" />
  <path
     d="m 90.950014,261.28875 v -9.50638 h 6.260579 v 1.65461 h -4.405432 v 2.23219 h 3.749396 v 1.65461 h -3.749396 v 2.31037 h 4.405432 v 1.6546 z"
     id="path30"
     inkscape:connector-curvature="0"
     style="stroke-width:0.43437025" />
  <path
     d="m 104.34878,254.0276 a 1.6639847,1.6632915 0 0 0 -1.39027,-0.58628 h -1.40331 v 6.19283 h 1.41634 a 1.6552954,1.6546059 0 0 0 1.39028,-0.59062 c 0.34756,-0.43428 0.3997,-1.10742 0.3997,-2.54488 0,-1.43747 -0.0521,-2.04546 -0.3997,-2.47105 z m 1.30338,6.35351 a 3.475686,3.474238 0 0 1 -2.51118,0.90764 h -3.432238 v -9.50638 h 3.432238 a 3.475686,3.474238 0 0 1 2.51118,0.91199 c 1.06878,1.06398 0.96016,2.37551 0.96016,3.80429 0,1.42878 0.10862,2.81413 -0.96016,3.88246 z"
     id="path32"
     inkscape:connector-curvature="0"
     style="stroke-width:0.43437025" />
  <path
     d="m 116.73526,257.29772 h -1.9377 v 2.33643 h 1.9377 a 1.1687019,1.168215 0 1 0 0,-2.33643 z m -0.12165,-3.8564 h -1.81605 v 2.1714 h 1.81605 c 0.78637,0 1.22952,-0.43428 1.22952,-1.09439 0,-0.6601 -0.43446,-1.09438 -1.22952,-1.09438 z m 0.30847,7.84743 h -3.95794 v -9.50638 h 3.81891 c 1.85515,0 2.93695,1.04227 2.93695,2.67082 a 2.1940268,2.1931128 0 0 1 -1.17739,1.96295 2.202716,2.2017984 0 0 1 1.30339,2.13665 c 0,1.77186 -1.21215,2.73596 -2.90655,2.73596 z"
     id="path34"
     inkscape:connector-curvature="0"
     style="stroke-width:0.43437025" />
  <path
     d="m 126.03272,257.38892 v 3.89983 h -1.84212 v -3.89983 l -2.85875,-5.60655 h 2.0159 l 1.77695,3.83035 1.74653,-3.83035 h 2.02024 z"
     id="path36"
     inkscape:connector-curvature="0"
     style="stroke-width:0.43437025" />
  <path
     d="m 133.02319,147.07752 h -32.89737 a 95.946311,95.906341 0 0 0 63.94394,46.10748 c -13.30754,-8.21223 -24.34718,-24.78869 -31.04657,-46.10748 z"
     stroke-miterlimit="10"
     id="path38"
     inkscape:connector-curvature="0"
     style="fill:#1e5aa8;stroke:#0563ab;stroke-width:0.42934152;stroke-miterlimit:10" />
  <path
     d="m 201.99384,193.185 a 95.96369,95.923712 0 0 0 63.94827,-46.10748 H 233.0404 c -6.68201,21.31879 -17.74772,37.89525 -31.04656,46.10748 z"
     stroke-miterlimit="10"
     id="path40"
     inkscape:connector-curvature="0"
     style="fill:#cfe385;stroke:#c0d386;stroke-width:0.42934152;stroke-miterlimit:10" />
  <path
     d="m 190.0201,194.23162 c 16.72674,-3.96498 31.02484,-21.94416 39.10146,-47.14976 h -27.62735 c -2.27223,21.34485 -6.13459,39.10255 -11.47411,47.14976 z"
     stroke-miterlimit="10"
     id="path42"
     inkscape:connector-curvature="0"
     style="fill:#a5ca18;stroke:#9ac03c;stroke-width:0.42934152;stroke-miterlimit:10" />
  <path
     d="m 136.92899,147.07752 c 8.25476,25.77451 23.02642,44.00123 40.2441,47.40598 -5.43076,-7.90823 -9.35828,-25.81793 -11.65658,-47.40598 z"
     stroke-miterlimit="10"
     id="path44"
     inkscape:connector-curvature="0"
     style="stroke:#000000;stroke-width:0.42934152;stroke-miterlimit:10" />
  <path
     d="m 197.73178,147.07752 h -28.44849 c 3.27583,30.27364 9.32787,47.73603 14.11997,47.98357 h 0.29109 c 4.77472,-0.45599 10.77897,-17.88364 14.03743,-47.98357 z"
     stroke-miterlimit="10"
     id="path46"
     inkscape:connector-curvature="0"
     style="fill:#3c7b3b;stroke:#36793b;stroke-width:0.42934152;stroke-miterlimit:10" />
  <path
     d="M 187.69139,0.10857 A 1.537991,1.5373503 0 0 0 187.12659,0 H 99.895561 a 1.5206135,1.51998 0 0 0 0,3.03996 H 158.62162 C 115.8924,13.85352 84.089879,52.38716 83.57287,98.29922 H 1.5206138 a 1.5206135,1.51998 0 1 0 0,3.03996 H 280.60082 a 1.8942489,1.8934597 0 0 0 1.89425,-1.89346 c 0,-53.26441 -42.11228,-96.87479 -94.80368,-99.33715 z"
     id="path48"
     inkscape:connector-curvature="0"
     style="stroke-width:0.43437025" />
  <path
     d="M 72.607081,50.62399 H 38.627906 a 1.5206135,1.51998 0 0 1 0,-3.03996 h 33.979175 a 1.5206135,1.51998 0 0 1 0,3.03996 z"
     id="path50"
     inkscape:connector-curvature="0"
     style="stroke-width:0.43437025" />
  <path
     d="M 94.417011,164.59637 H 67.141565 a 1.5206135,1.51998 0 1 1 0,-3.03996 h 27.275446 a 1.5206135,1.51998 0 0 1 0,3.03996 z"
     id="path52"
     inkscape:connector-curvature="0"
     style="stroke-width:0.43437025" />
  <path
     d="M 85.871168,40.80927 H 64.221989 a 1.5206135,1.51998 0 1 1 0,-3.03996 h 21.649179 a 1.5206135,1.51998 0 1 1 0,3.03996 z"
     id="path54"
     inkscape:connector-curvature="0"
     style="stroke-width:0.43437025" />
  <path
     d="m 326.64497,143.25586 a 3.6451257,3.6436071 0 0 0 -3.30625,2.13231 H 43.572069 a 3.6494703,3.6479499 0 1 0 0,3.03996 H 96.502422 A 99.878181,99.836573 0 0 0 158.4348,195.78634 H 78.20728 a 1.5206135,1.51998 0 1 0 0,3.03996 h 101.71595 c 1.03402,0.0347 2.06803,0.0521 3.11074,0.0521 h 0.39101 0.0825 a 1.2555916,1.2550685 0 0 0 0.12599,0 c 0.68211,0 1.36421,0 2.04197,-0.0347 h 1.45544 a 1.4250312,1.4244376 0 0 0 0.43446,-0.0695 c 35.14788,-1.61986 65.5862,-21.47947 81.99578,-50.35908 h 53.77755 a 3.6407811,3.6392643 0 1 0 3.30625,-5.15924 z m -285.101832,5.05067 a 1.9159719,1.9151737 0 1 1 0,-2.80979 1.8638366,1.8630601 0 0 1 0,2.80979 z m 59.369062,0.10857 h 32.54111 c 6.73414,20.67172 17.59566,36.73138 30.61645,44.7699 A 95.928933,95.88897 0 0 1 100.9122,148.4151 Z m 36.4556,0 h 28.29643 c 2.31567,20.98874 6.19106,38.32519 11.50886,46.0684 -16.91355,-3.3483 -31.45496,-21.00177 -39.80529,-46.0684 z m 46.32655,46.63296 c -0.0999,0 -0.19551,0 -0.29109,0 -4.71824,-0.24319 -10.66167,-17.19747 -13.97226,-46.64599 h 28.15306 c -3.28887,29.29217 -9.1845,46.21171 -13.88971,46.64599 z m 17.65648,-46.63296 h 27.34496 c -8.16351,24.50207 -22.24439,41.91669 -38.667,45.81217 5.21787,-7.87349 9.03243,-25.06228 11.32204,-45.81217 z m 0.64301,44.7699 c 13.03382,-8.03852 23.89534,-24.09818 30.61644,-44.7699 h 32.54111 a 95.920244,95.880284 0 0 1 -63.15755,44.7699 z m 124.65113,-44.37036 a 1.9159719,1.9151737 0 0 1 0,-3.826 1.9159719,1.9151737 0 1 1 0,3.826 z"
     id="path56"
     inkscape:connector-curvature="0"
     style="stroke-width:0.43437025" />
  <path
     d="m 278.6805,97.38723 c -0.0261,-1.25941 -0.0912,-2.51448 -0.16509,-3.76086 H 99.704398 q -1.173044,1.85872 -2.293953,3.76086 z"
     id="path58"
     inkscape:connector-curvature="0"
     style="fill:#c8e9f5;stroke-width:0.43437025" />
  <path
     d="M 277.34236,83.2992 C 276.9079,80.64575 276.304,78.03573 275.63493,75.46045 H 113.1162 q -3.24108,3.77823 -6.29968,7.83875 z"
     id="path60"
     inkscape:connector-curvature="0"
     style="fill:#68c3e2;stroke-width:0.43437025" />
  <path
     d="m 96.96295,75.46045 q -3.419206,3.72612 -6.803655,7.83875 h 4.344608 q 3.041225,-4.14303 6.243197,-7.83875 z"
     id="path62"
     inkscape:connector-curvature="0"
     style="fill:#68c3e2;stroke-width:0.43437025" />
  <path
     d="m 272.66756,66.19292 h 0.0478 A 95.259863,95.220179 0 0 0 267.31501,54.28497 H 135.36928 A 149.18948,149.12732 0 0 0 121.76197,66.2016 Z"
     id="path64"
     inkscape:connector-curvature="0"
     style="fill:#1e5aa8;stroke-width:0.43437025" />
  <path
     d="m 120.86698,54.27628 a 143.11571,143.05609 0 0 0 -14.67174,11.91664 h 3.29321 a 127.39258,127.33951 0 0 1 14.36328,-11.91664 z"
     id="path66"
     inkscape:connector-curvature="0"
     style="fill:#1e5aa8;stroke-width:0.43437025" />
  <path
     d="m 98.739895,54.27628 a 95.915899,95.875941 0 0 0 -5.404692,11.90795 h 0.04779 4.80948 A 129.6735,129.61948 0 0 1 113.18571,54.2676 Z"
     id="path68"
     inkscape:connector-curvature="0"
     style="fill:#1e5aa8;stroke-width:0.43437025" />
  <path
     d="m 182.99921,34.21256 c 3.85801,-0.65577 38.66701,-5.91489 40.07032,-6.54026 a 4.2099246,4.2081708 0 0 0 1.06877,-0.66444 1.2251793,1.2246689 0 0 0 0.0348,-1.93689 3.475686,3.474238 0 0 0 -1.48586,-0.81211 17.843303,17.83587 0 0 0 -4.25771,-0.62102 c -3.31929,-0.0695 -6.63857,0.0565 -9.9535,0.16937 a 30.907538,30.894662 0 0 1 -5.64799,-0.30834 38.423708,38.407701 0 0 1 -6.81234,-1.81528 c -2.38954,-0.82514 -4.74432,-1.73712 -7.17295,-2.45369 a 13.34229,13.336731 0 0 0 -6.75587,-0.23016 c -0.33453,0.0738 -0.66907,0.19108 -0.72989,0.53416 -0.0608,0.34308 0.28674,0.48205 0.54308,0.62536 1.92031,1.08136 11.25687,6.29272 14.01135,7.81704 -0.0956,0.2128 -0.2346,0.2128 -0.34756,0.25188 -1.25125,0.47337 -2.52422,0.89027 -3.81022,1.26376 a 34.626522,34.612096 0 0 1 -6.60815,1.37666 7.781192,7.7779504 0 0 1 -3.72768,-0.43428 c -0.61693,-0.25622 -1.23386,-0.51245 -1.84645,-0.7817 a 7.6074077,7.6042385 0 0 0 -1.69006,-0.54719 2.7631703,2.7620192 0 0 0 -1.52061,0.23885 0.32584556,0.32570982 0 0 0 -0.17813,0.53416 c 0.0608,0.10857 0.13468,0.20846 0.19985,0.31269 0.35192,0.5689 2.04197,3.37869 2.36782,3.96063 0.32584,0.58193 1.79432,0.4777 4.24902,0.0608 z"
     id="path70"
     inkscape:connector-curvature="0"
     style="fill:#ffffff;stroke-width:0.43437025" />
  <path
     d="m 200.26034,32.83589 a 0.91236757,0.91198748 0 0 0 -0.73424,0.52114 c -0.66907,1.26809 -1.35552,2.5275 -2.02893,3.79126 -0.33019,0.61233 -0.19551,0.83381 0.51266,0.86856 h 0.22157 a 7.8202934,7.8170356 0 0 0 5.32215,-2.31471 c 1.35986,-1.30284 2.64587,-2.66648 4.01007,-4.04315 a 0.76030631,0.75998957 0 0 0 -0.21723,-0.0391 c -2.36347,0.38651 -4.72259,0.81644 -7.08605,1.21598 z"
     id="path72"
     inkscape:connector-curvature="0"
     style="fill:#ffffff;stroke-width:0.43437025" />
  <path
     d="m 123.86041,54.27628 a 127.39258,127.33951 0 0 0 -14.37196,11.91664 q -4.4315,4.26897 -8.75004,9.26753 -3.175904,3.70006 -6.243197,7.83875 -3.571267,4.84222 -6.951372,10.31414 c -0.07386,1.25073 -0.139027,2.50145 -0.165095,3.76086 h 7.385833 C 115.47967,61.97172 148.95052,38.34256 174.27089,33.41782 c 0.009,0 -24.21684,2.2018 -50.41048,20.85846 z"
     id="path74"
     inkscape:connector-curvature="0"
     style="fill:#ffffff;stroke-width:0.43437025" />
  <path
     d="M 113.19006,54.27628 A 129.6735,129.61948 0 0 0 98.192474,66.19292 q -3.623402,3.33961 -7.159913,7.13521 c -0.199852,0.71222 -0.43446,1.41576 -0.608245,2.13232 q -0.521353,2.00637 -0.964503,4.0388 C 111.45222,53.94623 141.5951,37.63902 168.16672,32.99657 c 0.004,0 -26.76713,2.06717 -54.97666,21.27971 z"
     id="path76"
     inkscape:connector-curvature="0"
     style="fill:#ffffff;stroke-width:0.43437025" />
  <g
     id="g126"
     transform="matrix(0.43446075,0,0,0.43427975,0.00434578,0.01737)"
     style="fill:#d2d2d2">
    <path
       d="m 295.05,401.18 -0.35,0.65 9.09,16.79 h 6.33 l -9.45,-17.46 a 3.19,3.19 0 0 0 -5.62,0.02 z"
       transform="translate(-150,-128.79)"
       id="path78"
       inkscape:connector-curvature="0" />
    <path
       d="m 159.84,301.68 5.63,10.14 h 6.34 l -5.63,-10.14 z"
       id="path80"
       inkscape:connector-curvature="0" />
    <path
       d="m 294.77,384 a 19.39,19.39 0 0 0 -20.33,9.75 l -26.33,46.84 h 6.33 l 26.33,-46.84 a 19.67,19.67 0 0 1 14,-9.75 z"
       transform="translate(-150,-128.79)"
       id="path82"
       inkscape:connector-curvature="0" />
    <path
       d="m 433.11,383.74 h -6.34 a 3.43,3.43 0 0 0 -3.43,3.43 v 53.45 h 6.33 v -53.45 a 3.44,3.44 0 0 1 3.44,-3.43 z"
       transform="translate(-150,-128.79)"
       id="path84"
       inkscape:connector-curvature="0" />
    <path
       d="m 465.25,383.74 h -6.33 a 3.44,3.44 0 0 0 -3.44,3.43 v 53.45 h 6.34 v -53.45 a 3.44,3.44 0 0 1 3.43,-3.43 z"
       transform="translate(-150,-128.79)"
       id="path86"
       inkscape:connector-curvature="0" />
    <path
       d="m 508.46,397.9 h -6.34 c 10,0 12,2.47 12,14.41 0,9.8 -1.11,12.79 -5.29,14.07 -2.05,0.68 -2.39,0.68 -7.08,0.68 h 6.34 c 4.69,0 5,0 7.08,-0.68 4.18,-1.28 5.29,-4.27 5.29,-14.07 0.03,-11.94 -2.02,-14.41 -12,-14.41 z"
       transform="translate(-150,-128.79)"
       id="path88"
       inkscape:connector-curvature="0" />
    <path
       d="m 660.79,383.74 h -6.34 a 2.33,2.33 0 0 0 -2.33,2.34 v 54.54 h 6.33 v -54.54 a 2.34,2.34 0 0 1 2.34,-2.34 z"
       transform="translate(-150,-128.79)"
       id="path90"
       inkscape:connector-curvature="0" />
    <path
       d="m 636.5,301.68 5.63,10.14 h 6.34 l -5.63,-10.14 z"
       id="path92"
       inkscape:connector-curvature="0" />
    <path
       d="m 771.43,384 a 19.39,19.39 0 0 0 -20.33,9.75 l -26.33,46.84 h 6.33 l 26.33,-46.84 a 19.69,19.69 0 0 1 14,-9.75 z"
       transform="translate(-150,-128.79)"
       id="path94"
       inkscape:connector-curvature="0" />
    <path
       d="m 771.71,401.18 -0.35,0.65 9.09,16.79 h 6.33 l -9.45,-17.46 a 3.19,3.19 0 0 0 -5.62,0.02 z"
       transform="translate(-150,-128.79)"
       id="path96"
       inkscape:connector-curvature="0" />
    <path
       d="m 875.89,426.12 c 2.48,-1 3.41,-2.81 3.41,-6.91 H 873 c 0,4.1 -0.94,5.89 -3.42,6.91 -2,0.88 -3.74,1.07 -12.35,1.1 h 1.55 c 12.85,0.01 14.73,-0.08 17.11,-1.1 z"
       transform="translate(-150,-128.79)"
       id="path98"
       inkscape:connector-curvature="0" />
    <path
       d="m 862.16,397 h -3.44 c 12.27,0.09 13.42,0.93 13.73,6.72 h 6.34 C 878.45,397.47 877.17,397 862.16,397 Z"
       transform="translate(-150,-128.79)"
       id="path100"
       inkscape:connector-curvature="0" />
    <path
       d="m 823.71,410.86 c 0,-15 1.7,-20.38 7.67,-23.79 4.87,-2.84 10.07,-3.67 24.31,-3.75 h -4.13 c -15.94,0 -21.4,0.76 -26.51,3.75 -6,3.41 -7.68,8.78 -7.68,23.79 0,16.88 1.62,22.85 7.25,26.43 4.6,3 9.89,3.75 26.26,3.75 h 4.45 c -14.88,-0.07 -20,-0.89 -24.37,-3.75 -5.63,-3.58 -7.25,-9.55 -7.25,-26.43 z"
       transform="translate(-150,-128.79)"
       id="path102"
       inkscape:connector-curvature="0" />
    <path
       d="m 908.42,383.74 h -6.34 a 2.34,2.34 0 0 0 -2.34,2.34 v 11.73 h 6.34 v -11.73 a 2.34,2.34 0 0 1 2.34,-2.34 z"
       transform="translate(-150,-128.79)"
       id="path104"
       inkscape:connector-curvature="0" />
    <path
       d="m 775.07,269.02 h 6.34 v 42.8 h -6.34 z"
       id="path106"
       inkscape:connector-curvature="0" />
    <path
       d="m 218.33,284.03 h 6.34 v 13.81 h -6.34 z"
       id="path108"
       inkscape:connector-curvature="0" />
    <path
       d="m 400.17,405.91 c 0,-6.82 -1.71,-8.36 -9.12,-8.36 h -6.34 c 7.42,0 9.12,1.54 9.12,8.36 0,5.37 -2.05,6.91 -9.12,6.91 h 6.34 c 7.07,0 9.12,-1.54 9.12,-6.91 z"
       transform="translate(-150,-128.79)"
       id="path110"
       inkscape:connector-curvature="0" />
    <path
       d="m 352.1,383.74 h -6.34 a 3.44,3.44 0 0 0 -3.43,3.43 v 53.45 h 6.34 v -53.45 a 3.43,3.43 0 0 1 3.43,-3.43 z"
       transform="translate(-150,-128.79)"
       id="path112"
       inkscape:connector-curvature="0" />
    <path
       d="m 586,383.74 h -6.34 a 13.11,13.11 0 0 0 -13.1,13.11 v 43.77 h 6.34 V 396.85 A 13.1,13.1 0 0 1 586,383.74 Z"
       transform="translate(-150,-128.79)"
       id="path114"
       inkscape:connector-curvature="0" />
    <path
       d="m 624.43,405.91 c 0,-6.82 -1.71,-8.36 -9.12,-8.36 H 609 c 7.42,0 9.12,1.54 9.12,8.36 0,5.37 -2.05,6.91 -9.12,6.91 h 6.34 c 7.04,0 9.09,-1.54 9.09,-6.91 z"
       transform="translate(-150,-128.79)"
       id="path116"
       inkscape:connector-curvature="0" />
    <path
       d="m 599,412.82 h -6.34 a 1,1 0 0 0 -0.81,1.69 l 20.68,26.1 h 6.34 l -20.69,-26.1 a 1,1 0 0 1 0.82,-1.69 z"
       transform="translate(-150,-128.79)"
       id="path118"
       inkscape:connector-curvature="0" />
    <path
       d="M 191.3,383.74 H 185 a 13.11,13.11 0 0 0 -13.1,13.11 v 43.77 h 6.34 v -43.77 a 13.1,13.1 0 0 1 13.06,-13.11 z"
       transform="translate(-150,-128.79)"
       id="path120"
       inkscape:connector-curvature="0" />
    <path
       d="m 204.26,412.82 h -6.34 a 1,1 0 0 0 -0.82,1.69 l 20.69,26.1 h 6.34 l -20.69,-26.1 a 1,1 0 0 1 0.82,-1.69 z"
       transform="translate(-150,-128.79)"
       id="path122"
       inkscape:connector-curvature="0" />
    <path
       d="m 229.7,405.91 c 0,-6.82 -1.71,-8.36 -9.12,-8.36 h -6.34 c 7.42,0 9.12,1.54 9.12,8.36 0,5.37 -2.05,6.91 -9.12,6.91 h 6.34 c 7.07,0 9.12,-1.54 9.12,-6.91 z"
       transform="translate(-150,-128.79)"
       id="path124"
       inkscape:connector-curvature="0" />
  </g>
  <path
     d="m 350.49252,134.61369 c 0,0.17806 0.0261,0.21714 0.1173,0.25189 a 2.1462361,2.145342 0 0 0 0.5257,0.0391 c 0.90368,0 1.01229,-0.0261 1.01229,-0.23885 a 0.20854116,0.20845428 0 0 0 -0.13033,-0.20846 1.516268,1.5156363 0 0 0 -0.49095,-0.0304 h -0.70817 a 1.737843,1.737119 0 0 1 -0.83416,-0.11291 c -0.18682,-0.0955 -0.27371,-0.29965 -0.27371,-0.64708 0,-0.46468 0.13468,-0.6601 0.50397,-0.7513 a 4.8181697,4.8161625 0 0 1 1.06878,-0.0695 c 0.90368,0 1.11222,0.0217 1.30338,0.13897 0.19116,0.11726 0.23461,0.27794 0.23461,0.66445 h -0.76031 c 0,-0.22148 -0.0782,-0.25622 -0.58218,-0.25622 -0.25198,0 -0.58652,0 -0.70817,0 -0.20854,0 -0.27805,0.0695 -0.27805,0.21714 a 0.19550734,0.19542589 0 0 0 0.16509,0.20411 1.6248832,1.6242063 0 0 0 0.31716,0 h 0.72555 l 0.54742,0.0217 c 0.49094,0.0217 0.6821,0.23886 0.6821,0.75131 0,0.51245 -0.13902,0.68182 -0.51701,0.76433 a 6.2605794,6.2579713 0 0 1 -1.12959,0.0651 c -0.86892,0 -1.08616,0 -1.30339,-0.13463 -0.1564,-0.0782 -0.23895,-0.27359 -0.23895,-0.57759 0,-0.0217 0,-0.0738 0,-0.12594 z"
     id="path128"
     inkscape:connector-curvature="0"
     style="stroke-width:0.43437025" />
  <path
     d="m 353.5294,132.86355 h 1.23821 l 0.93844,1.70671 0.92974,-1.70671 h 1.23387 v 2.57093 h -0.73858 v -2.00203 l -1.13829,1.98466 h -0.59955 l -1.13395,-1.98466 0.0217,1.98466 h -0.75162 z"
     id="path130"
     inkscape:connector-curvature="0"
     style="stroke-width:0.43437025" />
  <path
     d="m 64.278468,110.73699 a 8.5632213,8.559654 0 0 1 7.507482,4.45571 l 11.083094,20.25481 h -8.219997 l -2.446014,-4.40794 H 56.271357 l -2.367811,4.40794 h -8.52412 l 11.439351,-20.34166 a 8.5588767,8.5553112 0 0 1 7.459691,-4.36886 z m 5.291732,15.14768 -4.105654,-7.58252 a 1.3859298,1.3853524 0 0 0 -2.441669,0 l -4.04483,7.57383 z"
     id="path132"
     inkscape:connector-curvature="0"
     style="stroke-width:0.43437025" />
  <path
     d="m 123.00453,110.73699 h 6.03466 v 24.70183 h -7.52921 v -23.21225 a 1.494545,1.4939224 0 0 1 1.49455,-1.48958 z"
     id="path134"
     inkscape:connector-curvature="0"
     style="stroke-width:0.43437025" />
  <path
     d="m 135.47789,112.22657 a 1.494545,1.4939224 0 0 1 1.49021,-1.48958 h 19.85051 c 5.21353,0 7.66388,0.59497 9.37131,2.29734 1.36856,1.33324 1.92467,2.88796 2.17231,6.03649 0.0739,1.1465 0.14772,2.84888 0.14772,4.03446 a 47.052099,47.032497 0 0 1 -0.3693,6.18414 c -0.40839,2.96179 -2.48511,5.25913 -5.18746,5.77592 -1.40765,0.29531 -2.51987,0.37348 -5.14836,0.37348 h -22.32694 z m 20.11554,17.32342 c 2.03762,0 2.1723,0 3.07598,-0.29531 1.81605,-0.55588 2.2983,-1.85437 2.2983,-6.11032 0,-5.1853 -0.86892,-6.25797 -5.21353,-6.25797 h -12.75577 v 12.6636 z"
     id="path136"
     inkscape:connector-curvature="0"
     style="stroke-width:0.43437025" />
  <path
     d="m 248.28563,110.73699 v 5.59353 h -19.9852 v 4.25594 h 14.56747 v 4.88999 h -14.55009 v 4.36885 h 20.22415 v 5.59352 h -27.63605 v -23.68561 a 1.0166381,1.0162146 0 0 1 1.01664,-1.01622 z"
     id="path138"
     inkscape:connector-curvature="0"
     style="stroke-width:0.43437025" />
  <path
     d="m 271.36853,110.73699 a 8.5632213,8.559654 0 0 1 7.50748,4.45571 l 11.08309,20.25481 h -8.21999 l -2.44602,-4.40794 h -15.93167 l -2.36782,4.40794 h -8.52412 l 11.43936,-20.34166 a 8.5588767,8.5553112 0 0 1 7.45969,-4.36886 z m 5.29173,15.14768 -4.10566,-7.58252 a 1.3859298,1.3853524 0 0 0 -2.44166,0 l -4.04483,7.57383 z"
     id="path140"
     inkscape:connector-curvature="0"
     style="stroke-width:0.43437025" />
  <path
     d="m 324.15551,126.14089 c -0.0348,3.5915 -0.14772,4.81617 -0.66473,5.92792 -0.9645,2.1106 -2.96302,3.10945 -6.81669,3.37001 -1.52061,0.14766 -4.48363,0.1824 -9.41042,0.1824 -7.11212,0 -9.41042,-0.33439 -11.40894,-1.62855 -2.44601,-1.55472 -3.14984,-4.14737 -3.14984,-11.47801 0,-6.5142 0.73859,-8.85062 3.33232,-10.33152 2.22444,-1.30284 4.59659,-1.62855 11.5219,-1.62855 9.2236,0 11.22646,0.1824 13.33794,1.22033 1.99852,0.99884 2.92392,3.18327 2.92392,6.81385 v 0.8121 h -7.18598 c -0.14771,-2.70122 -0.70382,-2.9227 -7.22074,-2.9227 -6.15196,0 -7.26418,0.14766 -8.18958,0.9641 -0.9254,0.81645 -1.07312,1.81095 -1.07312,5.81066 0,5.92358 0.55611,6.37089 7.77685,6.37089 5.59585,0 6.41264,-0.0391 7.44666,-0.48205 1.03401,-0.44297 1.48151,-1.22033 1.48151,-3.00088 z"
     id="path142"
     inkscape:connector-curvature="0"
     style="stroke-width:0.43437025" />
  <path
     d="m 339.49632,116.84731 h -11.00489 v -5.0941 a 1.0166381,1.0162146 0 0 1 1.01663,-1.01622 H 358 v 6.11032 h -10.98317 v 18.59151 h -7.52051 z"
     id="path144"
     inkscape:connector-curvature="0"
     style="stroke-width:0.43437025" />
  <path
     d="m 112.76863,111.66201 c -1.55537,-0.77736 -2.78055,-0.92502 -7.55962,-0.92502 H 87.830586 a 1.4902004,1.4895796 0 0 0 -1.490201,1.48958 v 23.21225 h 7.481414 V 116.7344 h 10.931031 c 3.21935,0 3.96228,0.66879 3.96228,3.63057 0,2.33209 -0.89064,3.00088 -3.96228,3.00088 h -7.138188 v 5.9974 h 8.254748 c 4.29682,0 5.96515,-0.26057 7.40756,-1.1465 2.03762,-1.25941 2.88916,-3.7044 2.88916,-8.40765 0,-4.70325 -0.91671,-6.92242 -3.39748,-8.14709 z"
     id="path146"
     inkscape:connector-curvature="0"
     style="stroke-width:0.43437025" />
  <path
     d="m 210.71781,128.22109 c 2.03762,-1.25941 2.88916,-3.7044 2.88916,-8.40765 0,-4.70325 -0.9254,-6.92242 -3.40617,-8.14709 -1.55537,-0.77736 -2.78055,-0.92502 -7.55962,-0.92502 h -13.21195 a 5.6914358,5.6890648 0 0 0 -5.69144,5.69341 v 19.00843 h 7.48142 V 116.7344 h 10.93103 c 3.21936,0 3.96228,0.66879 3.96228,3.63057 0,2.33209 -0.86892,3.00088 -3.96228,3.00088 h -7.07302 a 0.43446075,0.43427975 0 0 0 -0.35626,0.73393 l 8.98899,11.3347 h 8.52412 l -4.93112,-6.21454 a 7.5422386,7.5390965 0 0 0 3.41486,-0.99885 z"
     id="path148"
     inkscape:connector-curvature="0"
     style="stroke-width:0.43437025" />
  <path
     d="m 39.223117,128.22109 c 2.037621,-1.25941 2.889164,-3.7044 2.889164,-8.40765 0,-4.70325 -0.925401,-6.92242 -3.406172,-8.14709 -1.55537,-0.77736 -2.780549,-0.92502 -7.559617,-0.92502 H 17.947574 a 5.6914358,5.6890648 0 0 0 -5.691435,5.69341 v 19.00843 h 7.481414 V 116.7344 h 10.931032 c 3.219354,0 3.962282,0.66879 3.962282,3.63057 0,2.33209 -0.868921,3.00088 -3.962282,3.00088 h -7.090399 a 0.43446075,0.43427975 0 0 0 -0.356258,0.73393 l 8.988993,11.3347 h 8.52412 l -4.93113,-6.21454 a 7.5465832,7.5434393 0 0 0 3.419206,-0.99885 z"
     id="path150"
     inkscape:connector-curvature="0"
     style="stroke-width:0.43437025" />
</svg>
