<?xml version="1.0" encoding="UTF-8"?>
<svg id="Layer_2" data-name="Layer 2" xmlns="http://www.w3.org/2000/svg" viewBox="0 0 923.86 444.21">
  <defs>
    <style>
      .cls-1, .cls-2 {
        stroke-width: 0;
      }

      .cls-2 {
        fill: #00d586;
      }
    </style>
  </defs>
  <g id="Layer_1-2" data-name="Layer 1">
    <g>
      <path class="cls-2" d="m896.66,65c-.07-.74-.39-1.32-.95-1.73s-1.32-.62-2.28-.62c-.65,0-1.2.09-1.65.27s-.79.43-1.03.75c-.24.32-.36.68-.36,1.09-.01.34.06.63.22.88s.38.47.65.65c.28.18.6.34.96.47.36.13.75.24,1.16.34l1.69.41c.82.18,1.58.43,2.27.74s1.28.68,1.79,1.13c.5.45.89.97,1.17,1.58.28.61.42,1.31.43,2.09,0,1.16-.3,2.15-.88,3-.58.84-1.42,1.5-2.51,1.96-1.09.46-2.4.7-3.94.7s-2.85-.24-3.97-.7c-1.13-.47-2.01-1.16-2.64-2.08-.63-.92-.96-2.06-.99-3.41h3.86c.04.63.23,1.16.55,1.58.32.42.75.74,1.3.95.54.21,1.16.32,1.85.32s1.26-.1,1.77-.29c.5-.2.89-.47,1.16-.82s.42-.75.42-1.2c0-.42-.13-.78-.38-1.07-.25-.29-.61-.53-1.09-.74-.47-.2-1.06-.39-1.74-.55l-2.05-.51c-1.59-.39-2.85-.99-3.77-1.82-.92-.82-1.38-1.93-1.37-3.32,0-1.14.3-2.14.92-3,.62-.85,1.47-1.52,2.55-2,1.08-.48,2.31-.72,3.69-.72s2.62.24,3.67.72c1.05.48,1.86,1.15,2.44,2,.58.85.88,1.84.9,2.97h-3.82Z"/>
      <path class="cls-2" d="m903.41,59.58h4.92l5.2,12.67h.22l5.19-12.67h4.92v18.86h-3.87v-12.28h-.16l-4.88,12.19h-2.63l-4.88-12.23h-.16v12.32h-3.87v-18.86Z"/>
    </g>
    <g>
      <path class="cls-2" d="m824.54,355.21c-8.54,5.34-18.19,8.01-28.95,8.01s-20.46-2.67-29.08-8.01c-8.63-5.34-16.56-14.49-23.78-27.48-7.23-12.98-12.86-31.74-16.88-56.31-4.03-24.56-6.04-54.5-6.04-89.82s2.01-65.26,6.04-89.82c4.02-24.55,9.65-43.33,16.88-56.31,7.22-12.97,15.16-22.13,23.78-27.47,8.62-5.34,18.31-8.01,29.08-8.01s20.41,2.67,28.95,8.01c8.54,5.34,16.43,14.5,23.66,27.47,7.22,12.98,12.85,31.75,16.88,56.31,4.02,24.56,6.04,54.5,6.04,89.82s-2.02,65.26-6.04,89.82c-4.03,24.56-9.65,43.33-16.88,56.31-7.23,12.98-15.12,22.14-23.66,27.48Zm-36.35-43.62c1.89,4.19,4.35,6.28,7.39,6.28s5.46-2.09,7.27-6.28c1.8-4.19,3.57-16.88,5.3-38.07,1.73-21.19,2.59-51.83,2.59-91.91s-.86-70.72-2.59-91.91c-1.73-21.19-3.49-33.89-5.3-38.08-1.81-4.19-4.23-6.28-7.27-6.28s-5.51,2.09-7.39,6.28c-1.89,4.19-3.66,16.88-5.3,38.08-1.65,21.19-2.46,51.83-2.46,91.91s.82,70.72,2.46,91.91c1.64,21.19,3.41,33.88,5.3,38.07Z"/>
      <path class="cls-2" d="m69.03,261.87V92.88h28.36c12.3,0,22.21,4.04,29.74,12.11,7.53,8.08,11.3,19.06,11.3,32.94,0,33.9-28.91,37.77-32.02,41.5-1.05,1.26-.94,3.07.12,4.32,2.67,3.15,30.65,4.37,30.65,29.97v42.42c0,3.1.44,5.58,1.32,7.47.88,1.88,1.74,3.07,2.57,3.58l1.26.63v2.51h-21.84c-3.93,0-6.84-1.15-8.72-3.45-1.88-2.3-2.82-6.29-2.82-11.99v-43.67c0-8.54-3.85-12.8-11.55-12.8v63.45h-28.36Zm28.36-96.95h1.25c7.7,0,11.55-8.14,11.55-24.41s-3.85-24.41-11.55-24.41h-1.25v48.82Z"/>
      <path class="cls-2" d="m227.31,220.77h35.38l.3,20.41c0,21.57,3.37,32.3,10.12,32.19,2.99,0,5.17-1.52,6.55-4.56,1.38-3.04,2.07-8.88,2.07-17.5s-1.88-17.17-5.64-25.64c-3.76-8.46-8.3-16.32-13.61-23.56-5.31-7.24-10.62-14.74-15.93-22.48-5.31-7.74-9.85-16.7-13.61-26.88-3.76-10.18-5.64-20.91-5.64-32.19,0-19.69,4.32-34.82,12.94-45.38,8.63-10.56,19.58-15.85,32.86-15.85s24.11,5.03,32.86,15.1c8.74,10.07,13.11,23.73,13.11,40.99v27.21h-35.62l-.05-20.41c0-21.57-3.43-32.36-10.29-32.36-2.99,0-5.14,1.55-6.47,4.65-1.33,3.1-1.99,9.02-1.99,17.76,0,10.4,2.85,20.99,8.55,31.77,5.7,10.79,11.95,20.22,18.75,28.29,6.8,8.08,13.03,18.45,18.67,31.11,5.64,12.67,8.46,25.8,8.46,39.41,0,19.69-4.31,34.79-12.94,45.3-8.63,10.51-19.64,15.76-33.02,15.76s-24.09-5.03-32.77-15.1c-8.68-10.07-13.03-23.67-13.03-40.82v-27.21Z"/>
      <path class="cls-2" d="m597.83,317.5V45.72h42.83c9.86,0,18.51,2.15,25.97,6.44,7.45,4.3,14.31,11.44,20.56,21.42,6.25,9.98,11.06,24.01,14.4,42.08,3.35,18.07,5.02,40.05,5.02,65.95s-1.68,47.92-5.02,66.05c-3.35,18.13-8.15,32.16-14.4,42.08-6.26,9.92-13.11,17.03-20.56,21.32-7.46,4.3-16.11,6.44-25.97,6.44h-42.83Zm42.83-36.96h1.89c2.28,0,4.14-.5,5.59-1.52,1.45-1.01,3.03-3.38,4.74-7.11,1.71-3.73,3-9.03,3.89-15.92.88-6.89,1.64-16.61,2.28-29.19.63-12.57.95-27.64.95-45.2s-.32-32.63-.95-45.2c-.64-12.57-1.39-22.27-2.28-29.09-.89-6.82-2.18-12.13-3.89-15.92-1.71-3.79-3.29-6.19-4.74-7.2-1.45-1.01-3.32-1.52-5.59-1.52h-1.89v197.87Z"/>
      <path class="cls-2" d="m194,103.03h25.91v-24.32h-49.61l-16.55,16.55v172.59l16.66,16.66h49.5v-22.61h-25.91c-6.2,0-11.22-5.02-11.22-11.22v-55.86h28.37v-29.28h-28.37v-51.29c0-6.2,5.02-11.22,11.22-11.22Z"/>
      <path class="cls-2" d="m447.77,107.99h24.35v-29.28h-49.61l-16.55,16.55v172.59l16.66,16.66h49.5v-28.93h-24.35c-6.2,0-11.22-5.02-11.22-11.22v-49.54h26.82v-29.28h-26.82v-46.32c0-6.2,5.02-11.22,11.22-11.22Z"/>
      <polygon class="cls-2" points="540.89 59.32 549.34 197.26 544.46 197.82 521.9 65.76 497.23 65.76 482.24 78.71 482.24 284.51 495.01 295.35 521.9 295.35 514.41 161.86 516.87 161.59 540.88 303.9 580.38 303.9 580.38 59.32 540.89 59.32"/>
      <path class="cls-2" d="m369.55,218.36c0,8.7-.28,15.26-.84,19.69-.56,4.43-1.2,7.16-1.92,8.2-.72,1.04-1.82,1.56-3.29,1.56s-2.68-1.02-3.59-3.05c-.92-2.04-1.78-8.2-2.57-18.49-.53-6.82-.88-15.71-1.06-26.57-.09-5.52-.14-11.52-.14-18.08s.05-12.94.15-18.6c.18-10.62.53-19.33,1.05-26.05.8-10.3,1.66-16.46,2.57-18.49.92-2.04,2.11-3.05,3.59-3.05s2.57.54,3.29,1.62c.72,1.08,1.36,3.81,1.92,8.2.56,4.39.84,10.93.84,19.63l.15,20.58h26.9v-22.98c0-16.2-2.99-28.43-8.98-36.69-5.98-8.26-13.65-12.39-22.98-12.39-5.51,0-10.44,1.3-14.78,3.89-4.35,2.59-8.32,7.04-11.91,13.35-3.59,6.3-6.36,15.42-8.32,27.35-1.4,8.51-2.28,18.37-2.68,29.53-.16,4.49-.25,9.18-.25,14.1s.08,9.23.23,13.56c.39,11.39,1.28,21.43,2.7,30.07,1.95,11.93,4.73,21.05,8.32,27.35,3.59,6.31,7.54,10.75,11.85,13.35,4.31,2.59,9.26,3.89,14.84,3.89,9.34,0,17-4.11,22.98-12.33,5.98-8.22,8.98-20.43,8.98-36.63v-26.33h-27.1l.05,23.82Z"/>
      <path class="cls-2" d="m35.93,212.42c0,7.29-.24,12.8-.7,16.51-.47,3.71-1,6.01-1.61,6.88-.6.87-1.52,1.31-2.76,1.31s-2.24-.85-3.01-2.56c-.77-1.71-1.49-6.88-2.16-15.51-.44-5.72-.74-13.17-.89-22.28-.08-4.63-.12-9.66-.12-15.16s.04-10.85.12-15.6c.15-8.91.44-16.21.88-21.84.67-8.63,1.39-13.8,2.16-15.51.77-1.71,1.77-2.56,3.01-2.56s2.16.45,2.76,1.36c.6.9,1.14,3.2,1.61,6.88.47,3.68.7,9.17.7,16.46l.12,14.65h22.56v-16.66c0-13.58-2.51-23.84-7.53-30.76-5.02-6.93-11.44-10.39-19.27-10.39-4.62,0-8.75,1.09-12.39,3.26-3.65,2.17-6.97,5.91-9.99,11.19-3.01,5.29-5.34,12.93-6.98,22.93-1.17,7.13-1.91,15.4-2.25,24.76-.13,3.77-.21,7.69-.21,11.82s.07,7.74.19,11.37c.33,9.55,1.08,17.97,2.27,25.21,1.64,10,3.96,17.65,6.98,22.93,3.01,5.29,6.32,9.02,9.94,11.19,3.61,2.17,7.76,3.26,12.45,3.26,7.83,0,14.25-3.45,19.27-10.34,5.02-6.89,7.53-17.13,7.53-30.71v-19.99h-22.72l.04,17.88Z"/>
    </g>
    <g>
      <g>
        <path class="cls-1" d="m241.33,409.8h-3.41v6.68h-3.46v-17.74h6.88c3.66,0,5.86,2.52,5.86,5.53s-2.19,5.53-5.86,5.53Zm-.17-7.97h-3.24v4.86h3.24c1.57,0,2.57-.97,2.57-2.42s-1-2.44-2.57-2.44Z"/>
        <path class="cls-1" d="m260.78,416.47l-3.46-7.08h-2.49v7.08h-3.46v-17.74h6.95c3.61,0,5.75,2.47,5.75,5.43,0,2.49-1.52,4.04-3.24,4.66l3.96,7.65h-4.01Zm-2.69-14.65h-3.26v4.68h3.26c1.52,0,2.52-.97,2.52-2.34s-1-2.34-2.52-2.34Z"/>
        <path class="cls-1" d="m268.91,416.47v-17.74h11.68v3.09h-8.22v4.16h7v3.09h-7v4.31h8.22v3.09h-11.68Z"/>
        <path class="cls-1" d="m290.12,416.62c-2.69,0-4.73-.57-6.48-2.34l2.24-2.24c1.12,1.12,2.64,1.5,4.29,1.5,2.04,0,3.14-.77,3.14-2.19,0-.62-.17-1.15-.55-1.5-.35-.32-.75-.5-1.57-.62l-2.14-.3c-1.52-.22-2.64-.7-3.44-1.47-.85-.85-1.27-1.99-1.27-3.49,0-3.16,2.34-5.38,6.18-5.38,2.44,0,4.21.6,5.73,2.07l-2.19,2.17c-1.12-1.07-2.47-1.22-3.64-1.22-1.84,0-2.74,1.02-2.74,2.24,0,.45.15.92.52,1.27.35.32.92.6,1.64.7l2.09.3c1.62.22,2.64.67,3.39,1.37.95.9,1.37,2.19,1.37,3.76,0,3.44-2.86,5.38-6.58,5.38Z"/>
        <path class="cls-1" d="m301.22,416.47v-17.74h11.69v3.09h-8.22v4.16h7v3.09h-7v4.31h8.22v3.09h-11.69Z"/>
        <path class="cls-1" d="m328.03,416.47l-7.03-10.89v10.89h-3.46v-17.74h3.09l7.03,10.86v-10.86h3.46v17.74h-3.09Z"/>
        <path class="cls-1" d="m343.29,401.82v14.65h-3.46v-14.65h-4.63v-3.09h12.73v3.09h-4.63Z"/>
        <path class="cls-1" d="m352,416.47v-17.74h11.68v3.09h-8.22v4.16h7v3.09h-7v4.31h8.22v3.09h-11.68Z"/>
        <path class="cls-1" d="m379.41,414.78c-1.17,1.17-2.84,1.69-4.68,1.69h-6.4v-17.74h6.4c1.84,0,3.51.52,4.68,1.7,1.99,1.99,1.79,4.43,1.79,7.1s.2,5.26-1.79,7.25Zm-2.42-11.86c-.6-.72-1.4-1.1-2.59-1.1h-2.62v11.56h2.62c1.2,0,1.99-.37,2.59-1.1.65-.8.75-2.07.75-4.76s-.1-3.81-.75-4.61Z"/>
        <path class="cls-1" d="m400.46,416.47h-7.43v-17.74h7.13c3.46,0,5.48,1.94,5.48,4.98,0,1.97-1.3,3.24-2.19,3.66,1.07.5,2.44,1.62,2.44,3.99,0,3.31-2.27,5.11-5.43,5.11Zm-.57-14.65h-3.39v4.09h3.39c1.47,0,2.29-.82,2.29-2.04s-.82-2.04-2.29-2.04Zm.22,7.2h-3.61v4.36h3.61c1.57,0,2.32-1,2.32-2.19s-.75-2.17-2.32-2.17Z"/>
        <path class="cls-1" d="m417.46,409.2v7.27h-3.44v-7.27l-5.33-10.47h3.76l3.31,7.15,3.26-7.15h3.76l-5.33,10.47Z"/>
      </g>
      <g>
        <g>
          <path class="cls-1" d="m458.37,437.94c0,2.75.64,4.83,2.82,4.83.9,0,1.68-.5,2.06-1.18v-1.87l-1.49-.14v-1.32h5.31v1.32l-1.09.12v4.35h-1.37c-.12-.33-.26-.66-.62-.66-.57,0-1.39.81-3.22.81-3.34,0-5.49-1.85-5.49-6.18s2.58-6.32,5.87-6.32c1.59,0,2.25.66,2.79.66.26,0,.36-.19.48-.5h1.19l.12,4.02h-1.3c-.52-2.04-1.38-2.82-3.05-2.82-2.09,0-3.03,1.78-3.03,4.88Z"/>
          <path class="cls-1" d="m472.18,435.15c2.22,0,3.74,1.19,3.74,3.83,0,.23-.02.69-.04.93h-5.19c.02,1.61.38,2.86,1.94,2.86,1.07,0,1.58-.62,1.99-1.56l1.23.43c-.52,1.63-1.8,2.56-3.65,2.56-2.8,0-4.31-1.77-4.31-4.38,0-2.98,1.84-4.67,4.29-4.67Zm1.02,3.62v-.31c0-1.58-.23-2.27-1.13-2.27-1.02,0-1.33,1.14-1.37,2.58h2.49Z"/>
          <path class="cls-1" d="m480.37,435.27l.12,1.65h.1c.43-.88,1.18-1.77,2.92-1.77s2.68.8,2.68,2.82v4.71l1.09.12v1.21h-4.59v-1.21l.81-.12v-4.36c0-.93-.12-1.56-1.07-1.56s-1.66.55-1.66,1.96v3.96l.88.12v1.21h-4.64v-1.21l1.07-.12v-5.97l-1.07-.12v-1.19l3.34-.12Z"/>
          <path class="cls-1" d="m492.39,435.15c2.22,0,3.74,1.19,3.74,3.83,0,.23-.02.69-.04.93h-5.19c.02,1.61.38,2.86,1.94,2.86,1.07,0,1.58-.62,1.99-1.56l1.23.43c-.52,1.63-1.8,2.56-3.65,2.56-2.8,0-4.31-1.77-4.31-4.38,0-2.98,1.84-4.67,4.29-4.67Zm1.02,3.62v-.31c0-1.58-.23-2.27-1.13-2.27-1.02,0-1.33,1.14-1.37,2.58h2.49Z"/>
          <path class="cls-1" d="m504.39,437.13h4.22v-3.77l-1.13-.12v-1.33h5.12v1.32l-1.14.12v9.23l1.14.14v1.32h-5.12v-1.32l1.13-.14v-3.93h-4.22v3.93l1.14.14v1.32h-5.14v-1.32l1.14-.14v-9.21l-1.14-.12v-1.33h5.14v1.32l-1.14.12v3.79Z"/>
          <path class="cls-1" d="m518.56,439.5v-1.25c0-1.33-.31-2.11-1.54-2.11-.52,0-.99.12-.99.57,0,.07.02.16.03.24h.66c.05.23.1.47.1.68,0,.69-.43,1.19-1.33,1.19s-1.35-.61-1.35-1.37c0-1.37,1.25-2.3,3.48-2.3s3.62.78,3.62,3.27v3.57c0,.62.03.92.4.92.14,0,.31-.03.57-.14l.24.88c-.33.22-1.09.55-1.96.55-1.11,0-1.57-.47-1.78-1.3-.31.57-.97,1.3-2.44,1.3-1.38,0-2.54-.61-2.54-2.27,0-1.89,1.32-2.44,3.6-2.44h1.23Zm0,1.97v-1.07h-.68c-1.09,0-1.4.43-1.4,1.33,0,.81.28,1.18.95,1.18.59,0,1.13-.38,1.13-1.44Z"/>
          <path class="cls-1" d="m528.01,439.5v-1.25c0-1.33-.31-2.11-1.54-2.11-.52,0-.99.12-.99.57,0,.07.02.16.03.24h.66c.05.23.1.47.1.68,0,.69-.43,1.19-1.33,1.19s-1.35-.61-1.35-1.37c0-1.37,1.25-2.3,3.48-2.3s3.62.78,3.62,3.27v3.57c0,.62.03.92.4.92.14,0,.31-.03.57-.14l.24.88c-.33.22-1.09.55-1.96.55-1.11,0-1.57-.47-1.78-1.3-.31.57-.97,1.3-2.44,1.3-1.38,0-2.54-.61-2.54-2.27,0-1.89,1.32-2.44,3.6-2.44h1.23Zm0,1.97v-1.07h-.68c-1.09,0-1.4.43-1.4,1.33,0,.81.28,1.18.95,1.18.59,0,1.13-.38,1.13-1.44Z"/>
          <path class="cls-1" d="m532.67,441.21h1.07c.28,1.07,1.18,1.8,2.53,1.8.97,0,1.44-.31,1.44-.95,0-.78-.78-.92-1.75-1.09-1.45-.26-3.24-.55-3.24-2.86,0-1.8,1.38-2.96,3.22-2.96.78,0,1.26.23,1.63.42.12.07.24.1.36.1.23,0,.26-.12.35-.42h.92v2.68h-1.06c-.45-1.11-1.06-1.65-2.16-1.65-.68,0-1.32.26-1.32.9,0,.71.76.85,1.7,1.04,1.45.28,3.32.62,3.32,2.94,0,1.92-1.26,3.03-3.19,3.03-1.07,0-1.68-.31-2.13-.54-.12-.05-.22-.09-.33-.09-.19,0-.26.12-.36.52h-1v-2.89Z"/>
          <path class="cls-1" d="m552.73,431.9l.16,3.13h-.48c-.45-2.11-1.06-2.51-2.89-2.51h-2.08v5.07h1.07c1.51,0,1.85-.55,2.13-2.11h.4v5.12h-.43c-.28-1.85-.57-2.3-2.3-2.3h-.87v5.07l2.41.14v.5h-5.3v-.5l1.47-.12v-10.82l-1.47-.14v-.54h8.19Z"/>
          <path class="cls-1" d="m557.61,435.26c2.48,0,3.74,1.82,3.74,4.45s-1.49,4.5-3.84,4.5-3.76-1.8-3.76-4.43,1.56-4.52,3.86-4.52Zm-.09.78c-1.94,0-2.35,1.84-2.35,3.62s.43,3.76,2.41,3.76,2.35-1.82,2.35-3.64-.42-3.74-2.41-3.74Z"/>
          <path class="cls-1" d="m564.91,441.37c0,1.23.36,1.85,1.77,1.85s2.51-.85,2.51-2.46v-4.6l-1.28-.12v-.59l2.53-.07v7.93l1.14.12v.59h-2.18l-.12-1.44c-.55.83-1.56,1.63-2.98,1.63-1.85,0-2.63-.97-2.63-2.86v-5.19l-1.21-.12v-.59l2.46-.07v5.99Z"/>
          <path class="cls-1" d="m575.16,435.34l.07,1.63c.52-.83,1.52-1.71,3.05-1.71,1.89,0,2.6.97,2.6,2.99v5.07l1.18.12v.57h-3.69v-.57l1.26-.12v-5.09c0-1.38-.35-2.04-1.78-2.04-1.35,0-2.54.92-2.54,2.32v4.81l1.28.12v.57h-3.67v-.57l1.13-.12v-7.18l-1.13-.12v-.55l2.25-.12Z"/>
          <path class="cls-1" d="m589.4,436.35v-4.54l-1.44-.14v-.55l2.7-.09v12.29l1.26.12v.57h-2.46l-.09-1.35c-.45.76-1.28,1.54-2.8,1.54-2.25,0-3.31-1.75-3.31-4.31,0-2.96,1.47-4.64,3.65-4.64.95,0,1.8.29,2.48,1.09Zm0,4.62v-2.68c0-1.61-1.13-2.22-2.23-2.22-1.85,0-2.48,1.45-2.48,3.63,0,1.66.36,3.55,2.27,3.55,1.26,0,2.44-.95,2.44-2.29Z"/>
          <path class="cls-1" d="m598.04,439.48v-1.13c0-1.58-.38-2.42-1.8-2.42-.5,0-1.63.09-1.63.78,0,.07.02.14.03.23h.54c.05.21.1.43.1.61,0,.55-.4.81-.85.81-.52,0-.92-.31-.92-.99,0-1.21,1.18-2.11,2.91-2.11,2.06,0,2.87.92,2.87,3.27v4.02c0,.8.14,1,.59,1,.21,0,.38-.04.57-.1l.12.55c-.29.14-.61.21-1,.21-.83,0-1.37-.31-1.47-1.23-.62.88-1.63,1.23-2.54,1.23-1.33,0-2.41-.59-2.41-2.18,0-1.89,1.61-2.54,3.7-2.54h1.18Zm0,2.03v-1.33h-1.16c-1.68,0-2.3.71-2.3,1.7s.45,1.52,1.47,1.52c.95,0,1.99-.61,1.99-1.89Z"/>
          <path class="cls-1" d="m602.14,436.17h-1.3v-.73h1.3v-2.27l1.07-.35h.19v2.61h1.9v.73h-1.9v5.82c0,1,.28,1.38.97,1.38.64,0,.97-.24,1.26-1.23l.59.17c-.33,1.37-1.02,1.89-2.08,1.89-1.35,0-2.01-.68-2.01-1.94v-6.09Z"/>
          <path class="cls-1" d="m609.81,435.36v7.96l1.32.12v.57h-3.88v-.57l1.3-.12v-7.18l-1.32-.12v-.57l2.58-.09Zm-.81-3.88c.48,0,.88.21.88.9,0,.57-.33.87-.87.87-.62,0-.88-.35-.88-.85,0-.54.28-.92.87-.92Z"/>
          <path class="cls-1" d="m616.25,435.26c2.48,0,3.74,1.82,3.74,4.45s-1.49,4.5-3.84,4.5-3.76-1.8-3.76-4.43,1.56-4.52,3.86-4.52Zm-.09.78c-1.94,0-2.35,1.84-2.35,3.62s.43,3.76,2.41,3.76,2.35-1.82,2.35-3.64-.42-3.74-2.41-3.74Z"/>
          <path class="cls-1" d="m623.76,435.34l.07,1.63c.52-.83,1.52-1.71,3.05-1.71,1.89,0,2.6.97,2.6,2.99v5.07l1.18.12v.57h-3.69v-.57l1.26-.12v-5.09c0-1.38-.35-2.04-1.78-2.04-1.35,0-2.54.92-2.54,2.32v4.81l1.28.12v.57h-3.67v-.57l1.13-.12v-7.18l-1.13-.12v-.55l2.25-.12Z"/>
        </g>
        <g>
          <polygon class="cls-1" points="498.47 376.23 484.16 401.01 455.2 400.98 449.94 410.08 478.9 410.11 472.87 420.56 483.38 420.56 508.98 376.23 498.47 376.23"/>
          <polygon class="cls-1" points="519.69 376.23 505.39 401 497.67 400.98 492.41 410.08 500.14 410.1 494.1 420.56 504.61 420.56 530.21 376.23 519.69 376.23"/>
          <polygon class="cls-1" points="535.23 376.23 509.63 420.56 520.15 420.56 545.74 376.23 535.23 376.23"/>
          <polygon class="cls-1" points="565.73 376.23 547.22 408.29 547.22 378.74 538.35 393.95 538.35 400.99 534.24 400.98 528.98 410.08 538.35 410.11 538.36 420.56 550.65 420.56 576.24 376.23 565.73 376.23"/>
          <path class="cls-1" d="m602.33,385.66h28.82l5.51-9.43h-38.38c-1.83,0-3.53.97-4.45,2.56l-10.39,17.8c-1.53,2.62.36,5.92,3.4,5.92h13.8l-4.66,7.72c-.45.74-1.25,1.19-2.11,1.19h-15.88v-32.59l-8.87,15.22v6.85s0,.09,0,.09h-4.09s-5.26,9.09-5.26,9.09l9.35.03v10.45h6.77s22.04,0,22.04,0c1.83,0,3.53-.97,4.45-2.56l10.98-18.81c1.52-2.61-.36-5.88-3.38-5.88h-13.33l3.9-6.64c.37-.63,1.05-1.02,1.78-1.02Z"/>
        </g>
      </g>
    </g>
  </g>
</svg>
