<?xml version="1.0" encoding="UTF-8"?><svg id="Layer_1" xmlns="http://www.w3.org/2000/svg" viewBox="0 0 998.398 354.1462"><path d="M266.9976,313.0097h-4.0797v7.9831h-4.1408v-21.2086h8.2205c4.38,0,7.0003,3.0096,7.0003,6.6127s-2.6203,6.6127-7.0003,6.6127ZM266.7898,303.4782h-3.872v5.808h3.872c1.8766,0,3.0672-1.1609,3.0672-2.8891,0-1.7265-1.1906-2.9188-3.0672-2.9188Z"/><path d="M290.2434,320.9928l-4.1408-8.4597h-2.9782v8.4597h-4.1408v-21.2086h8.3113c4.3189,0,6.8798,2.9502,6.8798,6.494,0,2.9782-1.8173,4.8251-3.872,5.5705l4.7361,9.144h-4.7955ZM287.026,303.4782h-3.9017v5.6002h3.9017c1.8173,0,3.0078-1.1609,3.0078-2.8001,0-1.6375-1.1906-2.8001-3.0078-2.8001Z"/><path d="M299.9634,320.9928v-21.2086h13.9691v3.6939h-9.8283v4.9753h8.3689v3.6922h-8.3689v5.1533h9.8283v3.6939h-13.9691Z"/><path d="M325.3233,321.1709c-3.2156,0-5.6578-.6843-7.7439-2.7984l2.6814-2.6814c1.3407,1.3407,3.1562,1.7876,5.1236,1.7876,2.4422,0,3.7515-.9235,3.7515-2.622,0-.7437-.2077-1.3704-.6546-1.7876-.4172-.3858-.8938-.5953-1.8766-.7437l-2.5609-.3579c-1.8173-.2671-3.158-.8344-4.1111-1.7579-1.0125-1.0125-1.5188-2.3829-1.5188-4.1687,0-3.7829,2.8001-6.4347,7.3861-6.4347,2.9206,0,5.0346.7157,6.8519,2.4719l-2.622,2.5924c-1.339-1.2813-2.9485-1.4594-4.3486-1.4594-2.2031,0-3.2767,1.2202-3.2767,2.6797,0,.5359.1798,1.1033.6267,1.5188.4155.3875,1.1015.7157,1.9657.8344l2.5016.3579c1.936.2688,3.158.8048,4.0518,1.6375,1.1312,1.0736,1.6375,2.622,1.6375,4.4987,0,4.1094-3.4251,6.4329-7.8644,6.4329Z"/><path d="M338.5906,320.9928v-21.2086h13.9709v3.6939h-9.8301v4.9753h8.3689v3.6922h-8.3689v5.1533h9.8301v3.6939h-13.9709Z"/><path d="M370.6505,320.9928l-8.3986-13.016v13.016h-4.1408v-21.2086h3.6939l8.4003,12.988v-12.988h4.1391v21.2086h-3.6939Z"/><path d="M388.8931,303.4782v17.5147h-4.1408v-17.5147h-5.5391v-3.6939h15.2208v3.6939h-5.5409Z"/><path d="M399.2975,320.9928v-21.2086h13.9691v3.6939h-9.8283v4.9753h8.3689v3.6922h-8.3689v5.1533h9.8283v3.6939h-13.9691Z"/><path d="M432.0749,318.9678c-1.4001,1.4001-3.3954,2.025-5.6002,2.025h-7.6549v-21.2086h7.6549c2.2048,0,4.2002.6267,5.6002,2.0268,2.3829,2.3829,2.1437,5.3017,2.1437,8.4894,0,3.1859.2392,6.2845-2.1437,8.6674ZM429.1857,304.7892c-.7157-.8641-1.6689-1.311-3.0986-1.311h-3.1266v13.8207h3.1266c1.4297,0,2.3829-.4469,3.0986-1.311.7751-.9532.8938-2.4719.8938-5.6875,0-3.2173-.1187-4.558-.8938-5.5112Z"/><path d="M457.2322,320.9928h-8.8769v-21.2086h8.519c4.1408,0,6.5534,2.3235,6.5534,5.9581,0,2.3532-1.5484,3.872-2.622,4.3782,1.2813.5953,2.9188,1.936,2.9188,4.7658,0,3.961-2.7093,6.1065-6.4923,6.1065ZM456.5462,303.4782h-4.05v4.8845h4.05c1.7579,0,2.7408-.9828,2.7408-2.4422s-.9828-2.4422-2.7408-2.4422ZM456.815,312.0863h-4.3189v5.2127h4.3189c1.8766,0,2.7704-1.1906,2.7704-2.6203s-.8938-2.5924-2.7704-2.5924Z"/><path d="M477.5575,312.2957v8.6971h-4.1094v-8.6971l-6.3753-12.5115h4.4987l3.961,8.5487,3.9017-8.5487h4.4987l-6.3753,12.5115Z"/><path d="M526.4683,346.655c0,3.2903.7657,5.7734,3.3733,5.7734,1.0761,0,2.0073-.6003,2.4626-1.4065v-2.2352l-1.7798-.1659v-1.5724h6.3537v1.5724l-1.304.1444v5.1946h-1.6349c-.1444-.3923-.3104-.7857-.7447-.7857-.6833,0-1.6559.9721-3.8496.9721-3.994,0-6.5606-2.2147-6.5606-7.3878,0-5.0082,3.0839-7.5537,7.0159-7.5537,1.9043,0,2.6905.7857,3.3318.7857.3104,0,.4354-.2274.5798-.6003h1.428l.1444,4.8023h-1.5519c-.6208-2.4421-1.6554-3.3743-3.6422-3.3743-2.5041,0-3.6217,2.1317-3.6217,5.8369Z"/><path d="M542.9801,343.3227c2.649,0,4.4704,1.428,4.4704,4.5738,0,.2694-.0205.8277-.042,1.1176h-6.2087c.0215,1.9248.4558,3.4142,2.3182,3.4142,1.2835,0,1.8838-.7447,2.3806-1.8623l1.469.5173c-.6208,1.9453-2.1522,3.0629-4.3669,3.0629-3.3528,0-5.1536-2.1102-5.1536-5.2356,0-3.5597,2.1942-5.588,5.1331-5.588ZM544.2012,347.6476v-.3718c0-1.8838-.2694-2.7115-1.345-2.7115-1.2211,0-1.5939,1.3665-1.6349,3.0834h2.9799Z"/><path d="M552.767,343.4671l.1455,1.9668h.1239c.5173-1.0561,1.4075-2.1112,3.4967-2.1112,2.0487,0,3.2083.9516,3.2083,3.3733v5.6289l1.303.1455v1.4485h-5.483v-1.4485l.9716-.1455v-5.2151c0-1.1176-.1444-1.8623-1.283-1.8623-1.1176,0-1.9863.6617-1.9863,2.3386v4.7387l1.0551.1455v1.4485h-5.546v-1.4485l1.2825-.1455v-7.1399l-1.2825-.1444v-1.428l3.994-.1455Z"/><path d="M567.1476,343.3227c2.649,0,4.4704,1.428,4.4704,4.5738,0,.2694-.0205.8277-.042,1.1176h-6.2087c.0215,1.9248.4558,3.4142,2.3182,3.4142,1.2835,0,1.8838-.7447,2.3796-1.8623l1.47.5173c-.6208,1.9453-2.1522,3.0629-4.3669,3.0629-3.3528,0-5.1536-2.1102-5.1536-5.2356,0-3.5597,2.1942-5.588,5.1331-5.588ZM568.3687,347.6476v-.3718c0-1.8838-.2694-2.7115-1.345-2.7115-1.2211,0-1.5939,1.3665-1.6349,3.0834h2.9799Z"/><path d="M581.4868,345.6818h5.0502v-4.5113l-1.345-.1455v-1.5929h6.1257v1.5724l-1.3665.1455v11.0304l1.3665.1659v1.5724h-6.1257v-1.5724l1.345-.1659v-4.6978h-5.0502v4.6978l1.3665.1659v1.5724h-6.1473v-1.5724l1.3665-.1659v-11.01l-1.3665-.1455v-1.5929h6.1473v1.5724l-1.3665.1455v4.5318Z"/><path d="M598.434,348.5173v-1.4905c0-1.5929-.3729-2.5241-1.8418-2.5241-.6218,0-1.1801.1444-1.1801.6822,0,.083.0205.1864.041.2899h.7867c.0625.2694.1239.5593.1239.8072,0,.8277-.5173,1.428-1.5929,1.428-1.1176,0-1.6144-.7242-1.6144-1.6349,0-1.6349,1.4894-2.7525,4.16-2.7525,2.7525,0,4.3249.9312,4.3249,3.9111v4.2634c0,.7457.041,1.0971.4763,1.0971.1649,0,.3718-.041.6822-.1659l.2899,1.0561c-.3934.2684-1.304.6617-2.3386.6617-1.3245,0-1.8828-.5583-2.1317-1.5519-.3718.6833-1.1586,1.5519-2.9174,1.5519-1.6554,0-3.0424-.7242-3.0424-2.7105,0-2.2567,1.5724-2.9184,4.3044-2.9184h1.47ZM598.434,350.8764v-1.2825h-.8072c-1.304,0-1.6769.5173-1.6769,1.5929,0,.9732.3309,1.4075,1.1381,1.4075.7037,0,1.346-.4548,1.346-1.7179Z"/><path d="M609.7318,348.5173v-1.4905c0-1.5929-.3729-2.5241-1.8428-2.5241-.6208,0-1.1791.1444-1.1791.6822,0,.083.0205.1864.041.2899h.7867c.0625.2694.1239.5593.1239.8072,0,.8277-.5173,1.428-1.5929,1.428-1.1176,0-1.6144-.7242-1.6144-1.6349,0-1.6349,1.4894-2.7525,4.16-2.7525,2.7525,0,4.3249.9312,4.3249,3.9111v4.2634c0,.7457.041,1.0971.4763,1.0971.1649,0,.3718-.041.6822-.1659l.2899,1.0561c-.3934.2684-1.304.6617-2.3386.6617-1.3245,0-1.8828-.5583-2.1317-1.5519-.3718.6833-1.1586,1.5519-2.9174,1.5519-1.6554,0-3.0424-.7242-3.0424-2.7105,0-2.2567,1.5724-2.9184,4.3044-2.9184h1.47ZM609.7318,350.8764v-1.2825h-.8072c-1.304,0-1.6769.5173-1.6769,1.5929,0,.9732.3309,1.4075,1.1381,1.4075.7037,0,1.346-.4548,1.346-1.7179Z"/><path d="M615.2962,350.566h1.2835c.3309,1.2835,1.4075,2.1522,3.0219,2.1522,1.1586,0,1.7168-.3718,1.7168-1.1381,0-.9312-.9312-1.0971-2.0897-1.304-1.7384-.3104-3.8701-.6617-3.8701-3.4142,0-2.1522,1.6554-3.5392,3.8496-3.5392.9312,0,1.5109.2694,1.9453.4968.1444.083.2899.1239.4343.1239.2694,0,.3104-.1444.4138-.4968h1.0971v3.2083h-1.262c-.5388-1.3245-1.2631-1.9668-2.5876-1.9668-.8072,0-1.5724.3104-1.5724,1.0766,0,.8482.9107,1.0141,2.0283,1.2415,1.7384.3309,3.9735.7447,3.9735,3.5187,0,2.2966-1.5109,3.6212-3.8086,3.6212-1.2825,0-2.0078-.3718-2.5456-.6413-.1444-.0625-.2684-.1035-.3934-.1035-.2274,0-.3104.1444-.4343.6208h-1.2006v-3.4562Z"/><path d="M639.2788,339.4321l.1864,3.7461h-.5798c-.5378-2.5251-1.262-3.0014-3.4562-3.0014h-2.4831v6.0643h1.2825c1.8008,0,2.2147-.6628,2.5456-2.5251h.4763v6.1257h-.5173c-.3309-2.2147-.6833-2.7525-2.7525-2.7525h-1.0346v6.0633l2.8764.1659v.6003h-6.3327v-.6003l1.7588-.1444v-12.9348l-1.7588-.1659v-.6413h9.7889Z"/><path d="M645.1126,343.4466c2.9594,0,4.4704,2.1737,4.4704,5.3185,0,3.2288-1.7804,5.381-4.5953,5.381-2.8969,0-4.4908-2.1522-4.4908-5.2981,0-3.2278,1.8633-5.4015,4.6158-5.4015ZM645.0092,344.3778c-2.3182,0-2.815,2.1942-2.815,4.3259,0,2.1522.5173,4.4908,2.8764,4.4908,2.2772,0,2.815-2.1727,2.815-4.3464,0-2.0897-.4968-4.4704-2.8764-4.4704Z"/><path d="M653.8444,350.7525c0,1.469.4343,2.2147,2.1102,2.2147,1.6144,0,3.0014-1.0141,3.0014-2.9389v-5.505l-1.5314-.1455v-.7037l3.0209-.0819v9.4785l1.3665.1444v.7037h-2.6081l-.1444-1.7179c-.6628.9936-1.8633,1.9453-3.5597,1.9453-2.2147,0-3.1458-1.1586-3.1458-3.4142v-6.2087l-1.4485-.1455v-.7037l2.9389-.0819v7.1604Z"/><path d="M666.0938,343.5501l.083,1.9453c.6208-.9926,1.8213-2.0487,3.6416-2.0487,2.2567,0,3.1049,1.1596,3.1049,3.5802v6.0643l1.4075.1444v.6833h-4.4079v-.6833l1.5099-.1444v-6.0848c0-1.6554-.4138-2.4421-2.1317-2.4421-1.6134,0-3.0414,1.0971-3.0414,2.773v5.7539l1.5314.1444v.6833h-4.3874v-.6833l1.345-.1444v-8.5883l-1.345-.1455v-.6617l2.69-.1455Z"/><path d="M683.124,344.7507v-5.422l-1.7168-.1659v-.6617l3.2278-.1035v14.6936l1.5109.1444v.6833h-2.9389l-.1035-1.6144c-.5378.9107-1.5314,1.8418-3.3528,1.8418-2.69,0-3.952-2.0897-3.952-5.1526,0-3.5392,1.7588-5.547,4.3659-5.547,1.1391,0,2.1532.3524,2.9594,1.304ZM683.124,350.2761v-3.2073c0-1.9248-1.345-2.649-2.6695-2.649-2.2137,0-2.9594,1.7384-2.9594,4.3454,0,1.9873.4343,4.243,2.7115,4.243,1.5109,0,2.9174-1.1381,2.9174-2.732Z"/><path d="M693.4497,348.4968v-1.345c0-1.8838-.4558-2.898-2.1522-2.898-.6003,0-1.9453.1035-1.9453.9312,0,.083.0205.1659.041.2694h.6413c.0625.2479.125.5173.125.7242,0,.6628-.4763.9732-1.0141.9732-.6218,0-1.0971-.3729-1.0971-1.1801,0-1.4485,1.4075-2.5251,3.4767-2.5251,2.4626,0,3.4357,1.0971,3.4357,3.9121v4.8012c0,.9516.1649,1.2006.7037,1.2006.2479,0,.4548-.042.6822-.125l.1455.6628c-.3524.1649-.7242.2479-1.2006.2479-.9936,0-1.6349-.3718-1.7588-1.469-.7457,1.0551-1.9453,1.469-3.0424,1.469-1.5939,0-2.8764-.7037-2.8764-2.607,0-2.2567,1.9238-3.0424,4.4284-3.0424h1.4075ZM693.4497,350.9184v-1.5939h-1.387c-2.0067,0-2.7525.8482-2.7525,2.0283,0,1.2211.5378,1.8213,1.7588,1.8213,1.1391,0,2.3806-.7242,2.3806-2.2557Z"/><path d="M698.3534,344.5438h-1.5519v-.8697h1.5519v-2.7105l1.2835-.4138h.2274v3.1243h2.2762v.8697h-2.2762v6.9534c0,1.2006.3309,1.6554,1.1586,1.6554.7662,0,1.1596-.2889,1.5109-1.469l.7037.2069c-.3934,1.6349-1.2211,2.2557-2.4831,2.2557-1.6144,0-2.4011-.8072-2.4011-2.3182v-7.2843Z"/><path d="M707.5205,343.5706v9.5205l1.5724.1444v.6833h-4.6353v-.6833l1.5519-.1444v-8.5883l-1.5734-.1455v-.6833l3.0844-.1035ZM706.5473,338.9353c.5798,0,1.0551.2479,1.0551,1.0766,0,.6822-.3923,1.0346-1.0346,1.0346-.7447,0-1.0551-.4138-1.0551-1.0141,0-.6423.3309-1.0971,1.0346-1.0971Z"/><path d="M715.2176,343.4466c2.9594,0,4.4704,2.1737,4.4704,5.3185,0,3.2288-1.7804,5.381-4.5953,5.381-2.8969,0-4.4908-2.1522-4.4908-5.2981,0-3.2278,1.8633-5.4015,4.6158-5.4015ZM715.1142,344.3778c-2.3182,0-2.815,2.1942-2.815,4.3259,0,2.1522.5173,4.4908,2.8764,4.4908,2.2772,0,2.815-2.1727,2.815-4.3464,0-2.0897-.4968-4.4704-2.8764-4.4704Z"/><path d="M724.1973,343.5501l.083,1.9453c.6208-.9926,1.8213-2.0487,3.6427-2.0487,2.2557,0,3.1038,1.1596,3.1038,3.5802v6.0643l1.4075.1444v.6833h-4.4079v-.6833l1.5099-.1444v-6.0848c0-1.6554-.4138-2.4421-2.1317-2.4421-1.6134,0-3.0414,1.0971-3.0414,2.773v5.7539l1.5314.1444v.6833h-4.3874v-.6833l1.345-.1444v-8.5883l-1.345-.1455v-.6617l2.69-.1455Z"/><polygon points="574.4061 272.8814 557.303 302.5048 522.6798 302.468 516.3871 313.3492 551.0208 313.3859 543.807 325.8806 556.3766 325.8806 586.9757 272.8814 574.4061 272.8814"/><polygon points="599.7858 272.8814 582.689 302.4939 573.457 302.468 567.1644 313.3492 576.4067 313.375 569.1866 325.8806 581.7563 325.8806 612.3554 272.8814 599.7858 272.8814"/><polygon points="618.3584 272.8814 587.7593 325.8806 600.3289 325.8806 630.9281 272.8814 618.3584 272.8814"/><polygon points="654.8186 272.8814 632.6919 311.2058 632.6919 275.8795 622.0932 294.0696 622.0938 302.4828 617.1736 302.468 610.8809 313.3492 622.0946 313.3829 622.0955 325.8806 636.7891 325.8806 667.3882 272.8814 654.8186 272.8814"/><path d="M698.5818,284.1502h34.4494l6.5898-11.2688h-45.8903c-2.192,0-4.2192,1.1637-5.3246,3.0566l-12.4252,21.2768c-1.8321,3.1372.4307,7.0791,4.0638,7.0791h16.4963l-5.5662,9.2354c-.5333.8848-1.491,1.4259-2.5241,1.4259h-18.9798v-38.9563l-10.5988,18.1901.0023,8.1873v.1065s-4.8864-.0148-4.8864-.0148l-6.2927,10.8811,11.1823.0338v.0227l.0036,12.475h8.0886s26.3502,0,26.3502,0c2.1921,0,4.2194-1.1639,5.3247-3.0569l13.1305-22.4875c1.82-3.117-.4282-7.0331-4.0376-7.0331h-15.9387l4.6579-7.9362c.4424-.7538,1.251-1.2168,2.125-1.2168Z"/><path d="M993.2622,146.6167h-60.856c-1.417,0-2.5657-1.1488-2.5657-2.5657v-30.8151c0-1.417,1.1488-2.5654,2.5657-2.5654h47.4917c2.8245,0,5.1358-2.3113,5.1358-5.1362v-25.679c0-2.8249-2.3113-5.1362-5.1358-5.1362h-47.4917c-1.417,0-2.5657-1.1484-2.5657-2.5654v-30.8151c0-1.417,1.1488-2.5657,2.5657-2.5657h59.8298c2.8245,0,5.1358-2.3113,5.1358-5.1358V7.9578c0-2.8245-2.3113-5.1358-5.1358-5.1358h-93.2106c-2.8245,0-5.1358,2.3113-5.1358,5.1358v18.7214c-1.9861-3.2019-4.3168-6.2009-7.0779-8.9628-10.0149-10.0153-22.857-14.8945-39.0296-14.8945h-56.4945c-2.8245,0-5.1358,2.3113-5.1358,5.1358v145.5184L746.8544,6.6749c-.7696-2.5701-2.3091-3.8529-4.8791-3.8529h-34.4071c-2.3138,0-4.1096,1.2829-4.8791,3.8529l-31.7714,118.0094c-.7634-1.8852-2.6007-3.2293-4.7487-3.2293h-26.1923c-3.1472,0-5.586,2.5917-5.6559,5.7378-.2887,13.0258-9.9688,21.994-24.1283,21.994-11.2982,0-18.7474-4.1096-22.6007-12.324-2.3091-5.3924-3.592-20.0302-3.592-44.1657s1.2829-38.7729,3.592-44.1654c3.8533-8.2191,11.3025-12.3287,22.6007-12.3287,14.1595,0,23.8396,8.9682,24.1283,21.9937.0699,3.1464,2.5088,5.7381,5.6559,5.7381h26.1706c2.7903,0,5.1531-2.2172,5.1574-5.0075.027-18.0333-5.6213-32.4581-17.2035-43.0065-11.5588-10.5286-26.1923-15.9207-43.9087-15.9207-26.7056,0-46.4792,13.3503-55.7249,34.1501-1.178,2.5445-2.1988,5.639-3.0808,9.2324-4.4088-26.14-25.1152-43.3825-56.869-43.3825-17.7165,0-32.098,4.8791-43.1392,14.3765-3.5036,3.0963-6.3732,6.4518-8.7472,10.0135V7.9578c0-2.8245-2.3113-5.1358-5.1358-5.1358h-89.8753c-2.8245,0-5.1358,2.3113-5.1358,5.1358v169.474c0,2.8245,2.3113,5.1358,5.1358,5.1358h25.6793c2.8245,0,5.1358-2.3113,5.1358-5.1358v-64.196c0-1.417,1.1488-2.5654,2.5657-2.5654h42.1057c2.8249,0,5.1358-2.3113,5.1358-5.1362v-25.679c0-2.8249-2.3109-5.1362-5.1358-5.1362h-42.1057c-1.417,0-2.5657-1.1484-2.5657-2.5654v-30.8151c0-1.417,1.1488-2.5657,2.5657-2.5657h55.3414c-.8979,3.7534-1.3979,7.6752-1.3979,11.8111,0,28.2451,15.4077,46.4745,45.9662,54.4373,15.6593,4.1096,25.9313,7.9578,30.8104,11.5545,4.6229,3.5963,6.9316,8.7324,6.9316,15.1511,0,11.0412-10.0103,18.486-25.418,18.486-14.6378,0-24.9094-8.4711-24.9094-21.0565v-5.1358c0-2.8245-2.3113-5.1358-5.1358-5.1358h-27.2188c-2.8245,0-5.1358,2.3113-5.1358,5.1358v5.1358c0,16.6906,5.9057,30.0456,17.4645,40.5738,11.5548,10.5282,26.4446,15.664,44.9353,15.664,18.7431,0,33.8938-5.1358,45.4486-15.4074,6.9449-6.1739,11.7145-13.5788,14.4482-22.1652.4279,1.201.8597,2.3884,1.3359,3.4175,9.2457,20.8002,29.0193,34.1551,55.7249,34.1551,17.7165,0,32.35-5.3924,43.9087-16.1773,2.6263-2.3927,4.9065-5.0107,6.9258-7.796l-3.2733,12.1575c-.7696,2.5704-1.0309,4.3662-1.0309,5.1362,0,2.5701,1.8005,3.8529,5.1358,3.8529h26.9622c2.5701,0,4.1096-1.2829,4.8791-3.8529l10.1815-44.1874h42.2142l9.4912,44.1874c.7696,2.5701,2.5657,3.8529,4.8748,3.8529h26.9618c.9109,0,1.6815-.115,2.3574-.306.4848.1528.9732.306,1.5067.306h25.6793c2.8249,0,5.1358-2.3113,5.1358-5.1358v-64.196c0-1.417,1.1488-2.5654,2.5657-2.5654h23.1136c16.1726,0,29.0146-4.8795,39.0296-14.8945,2.7611-2.7618,5.0918-5.7612,7.0779-8.9631v90.6189c0,2.8245,2.3113,5.1358,5.1358,5.1358h94.2369c2.8245,0,5.1358-2.3113,5.1358-5.1358v-25.6793c0-2.8245-2.3113-5.1358-5.1358-5.1358ZM547.3388,98.2801c-7.4712-10.6472-20.1045-18.2673-38.9528-23.3043-28.506-7.1882-36.2076-13.094-36.2076-23.1089,0-11.0415,7.9582-16.9469,22.3393-16.9469,12.5807,0,21.5698,7.9625,21.5698,19.2607v1.2825c0,2.8224,2.3091,5.1362,5.1358,5.1362h25.9356c.5396,0,1.0349-.1539,1.5244-.3107-.9242,9.0835-1.404,19.8161-1.404,32.4083,0,1.9375.0378,3.7289.0595,5.5831ZM711.513,101.4067l11.6745-50.6681c.6048-2.6251,4.3529-2.5972,4.9186.0366l10.8755,50.6315h-27.4686ZM846.4945,74.7192h-21.826c-1.7958,0-2.5657-.7696-2.5657-2.5654v-30.8151c0-1.7962.7699-2.5657,2.5657-2.5657h21.826c10.5286,0,17.9778,7.4449,17.9778,17.9731s-7.4492,17.9731-17.9778,17.9731Z"/><path d="M216.9296,143.9803c-30.3213,5.6635-61.1772,2.7233-89.6468-9.9324-2.0885-.9282-4.4329.5364-4.4329,2.8217v28.288c0,1.2292.7151,2.3682,1.8286,2.8894,29.4818,13.7911,61.6443,17.0201,93.1959,10.9384,1.263-.2433,2.1844-1.3719,2.1844-2.6584v-29.7795c0-1.6577-1.4991-2.8718-3.1291-2.5672Z"/><path d="M285.893,130.0108c-16.807.514-32.4977,4.66-48.4743,9.0057-1.1585.315-1.9663,1.369-1.9663,2.5697v29.6754c0,1.7518,1.6678,3.0217,3.3587,2.5632,15.4982-4.2044,30.76-8.1218,47.0818-8.6283,13.2151-.4102,30.5372-1.1672,40.9256,8.0559,2.0124,1.7864,5.1772.3655,5.1765-2.3257l.2083-25.0359c-.1366-.5443-.2714-1.0828-.408-1.6271-8.8287-15.7181-30.2427-14.7322-45.9024-14.2528Z"/><path d="M216.93,81.578c-30.3217,5.6635-61.1779,2.7233-89.6472-9.932-2.0885-.9282-4.4329.536-4.4329,2.8213v28.288c0,1.2292.7151,2.3682,1.8286,2.8891,29.4818,13.7915,61.6443,17.0204,93.1959,10.9392,1.263-.2437,2.1844-1.3719,2.1844-2.6584v-29.7799c0-1.6577-1.4991-2.8714-3.1288-2.5672Z"/><path d="M285.893,67.6084c-16.807.5144-32.4977,4.66-48.4743,9.006-1.1585.315-1.9663,1.3687-1.9663,2.5693v29.6754c0,1.7518,1.6678,3.0217,3.3587,2.5632,15.4982-4.2044,30.76-8.1218,47.0818-8.6283,13.2151-.4102,30.5372-1.1672,40.9256,8.0559,2.0124,1.7868,5.1772.3651,5.1765-2.3257l.2083-25.0359c-.1366-.5443-.2714-1.0825-.4077-1.6267-8.8287-15.7185-30.2431-14.7326-45.9028-14.2532Z"/><path d="M216.9296,19.1756c-30.3213,5.6635-61.1772,2.7236-89.6468-9.932-2.0885-.9285-4.4329.536-4.4329,2.8213v28.288c0,1.2292.7151,2.3686,1.8286,2.8894,29.4818,13.7911,61.6443,17.0201,93.1959,10.9384,1.263-.2433,2.1844-1.3719,2.1844-2.6584v-29.7795c0-1.6577-1.4991-2.8714-3.1291-2.5672Z"/><path d="M285.893,5.2061c-16.807.514-32.4977,4.66-48.4743,9.0057-1.1585.3154-1.9663,1.369-1.9663,2.5697v29.6754c0,1.7518,1.6678,3.0217,3.3587,2.5632,15.4982-4.2044,30.76-8.1218,47.0818-8.6279,13.2151-.4106,30.5372-1.1675,40.9256,8.0555,2.0124,1.7864,5.1772.3655,5.1765-2.3257l.2083-25.0359c-.1366-.5443-.2714-1.0828-.408-1.6271-8.8287-15.7181-30.2427-14.7319-45.9024-14.2528Z"/><path d="M971.1817,201.3593c-1.378-.4073-2.1545-.6445-2.3304-.7108-1.2782-.3965-2.2262-.7213-2.8422-.975-.6175-.2527-1.0745-.5173-1.3723-.793-.297-.275-.4455-.6113-.4455-1.0078,0-.5068.2029-.9037.611-1.1902.4073-.2858.9639-.4293,1.6696-.4293,1.0129,0,1.8174.27,2.4122.8096.5955.54.8921,1.1401.8921,1.8012v.0328c0,.1546.044.2761.133.3637.0869.0883.2083.1323.363.1323h5.1232c.1536,0,.275-.044.363-.1323.0883-.0876.133-.2091.133-.3637v-.297c0-1.4984-.4034-2.831-1.2068-3.9993-.8045-1.1675-1.9065-2.0712-3.3047-2.7103-1.3997-.6387-2.9586-.9581-4.6766-.9581-1.6311,0-3.1017.2866-4.4127.8593s-2.3415,1.3935-3.0902,2.4619c-.7498,1.0691-1.1235,2.2972-1.1235,3.685,0,2.0939.7375,3.6911,2.2146,4.7926,1.475,1.1019,3.3043,1.9829,5.4862,2.6443l.9581.2642c1.1679.3525,1.9717.6503,2.4129.8921.4401.2429.6607.6066.6607,1.0911,0,.4185-.1763.7988-.5284,1.1398-.3529.3421-.9365.5126-1.7518.5126-1.0803,0-1.945-.2365-2.5946-.7108-.6503-.4733-.9747-1.0187-.9747-1.6361v-.1979c0-.1539-.0447-.2754-.1326-.3637-.0883-.0876-.2098-.1323-.3633-.1323h-5.1232c-.1546,0-.2761.0447-.363.1323-.0883.0883-.1323.2098-.1323.3637v.4625c0,1.4764.3796,2.7762,1.1401,3.9001.7606,1.1235,1.8344,1.9886,3.2221,2.5942,1.3881.6066,3.0077.9091,4.8586.9091,1.785,0,3.349-.2858,4.6935-.8593,1.3438-.5728,2.3906-1.3932,3.1396-2.4623.749-1.0684,1.1235-2.3412,1.1235-3.8172,0-1.5204-.4625-2.8148-1.3881-3.8836-.9253-1.0684-2.0766-1.8066-3.4532-2.2143Z"/><path d="M997.902,191.1962h-5.1553c-.2646,0-.4628.1103-.5951.3305l-4.164,6.7092c-.0663.1323-.133.1323-.1986,0l-4.1647-6.7092c-.1323-.2202-.3305-.3305-.5951-.3305h-5.1553c-.1546,0-.2761.0443-.3637.1323-.0887.088-.1323.2094-.1323.3633v22.144c0,.1543.0436.2757.1323.3637.0876.0883.2091.1319.3637.1319h5.2219c.1532,0,.2747-.0436.363-.1319.0883-.088.133-.2094.133-.3637v-11.9975c0-.0876.0216-.137.0656-.1485.0443-.0108.0876.0166.1323.0825l2.2475,3.6687c.1323.2206.3302.3305.5948.3305h2.5124c.2642,0,.4625-.1099.5948-.3305l2.2471-3.6687c.044-.066.0883-.0934.1326-.0825.0436.0115.0656.0609.0656.1485v11.9975c0,.1543.0447.2757.1326.3637.0872.0883.2091.1319.363.1319h5.2219c.1546,0,.2761-.0436.3641-.1319.0876-.088.1319-.2094.1319-.3637v-22.144c0-.1539-.0443-.2754-.1319-.3633-.088-.088-.2094-.1323-.3641-.1323Z"/><path d="M88.8444,102.1947c17.7212-10.2719,26.7056-25.4184,26.7056-45.4486,0-16.177-4.8795-29.0146-14.8898-39.0296-10.0153-10.0153-22.8573-14.8945-39.0299-14.8945H5.1362C2.3113,2.822,0,5.1333,0,7.9582v169.4736c0,2.8247,2.3111,5.1358,5.1358,5.1358h25.6793c2.8247,0,5.1358-2.3111,5.1358-5.1358V41.3387c0-1.417,1.1487-2.5657,2.5657-2.5657h21.3362c9.7084,0,18.1278,7.507,18.4551,17.2098.3686,10.93-7.1838,18.7364-17.9648,18.7364h-13.6013c-3.4934,0-5.9314,3.4621-4.7541,6.7512l34.5324,96.4744c1.2829,3.0834,3.5966,4.6229,6.4187,4.6229h25.6793c3.8529,0,6.4187-2.5657,6.4187-5.9057,0-1.0262-.5129-2.5701-1.2829-4.8791l-26.4489-61.1123c-.7696-2.0528-1.2829-3.5966-1.2829-4.8795s1.0266-2.5657,2.8224-3.5963Z"/></svg>