<?xml version="1.0" encoding="UTF-8"?>
<svg xmlns="http://www.w3.org/2000/svg" id="Layer_2" data-name="Layer 2" viewBox="0 0 138 35">
  <defs>
    <style>
      .cls-1 {
        fill: #fe0303;
      }

      .cls-2 {
        fill: #080808;
      }
    </style>
  </defs>
  <g>
    <path d="M5.96,9.75H1.68v-3.16H5.96v3.16Zm-.12,14.84H1.8V11.6H5.85v12.99Z"></path>
    <path class="cls-1" d="M22.44,12.81c0,.8-.13,1.57-.38,2.29-.25,.73-.62,1.33-1.1,1.82-.29,.3-.61,.58-.97,.83s-.74,.47-1.16,.65c-.42,.18-.88,.32-1.38,.42-.5,.1-1.05,.15-1.67,.15h-2.27v5.63h-4.33V7.37h6.69c.99,0,1.85,.09,2.57,.27,.72,.18,1.37,.47,1.96,.86,.65,.43,1.15,1.01,1.5,1.73,.35,.72,.53,1.58,.53,2.57Zm-4.44,.1c0-.49-.12-.9-.35-1.25s-.51-.59-.83-.72c-.41-.18-.8-.28-1.17-.31-.37-.03-.88-.04-1.52-.04h-.61v5.16h.3c.41,0,.79,0,1.16-.01,.36,0,.68-.03,.95-.08,.23-.04,.48-.11,.73-.23,.26-.11,.46-.24,.6-.38,.29-.29,.49-.58,.6-.89s.16-.72,.16-1.25Z"></path>
    <path class="cls-1" d="M28.57,24.59h-4.05V6.59h4.05V24.59Z"></path>
    <path class="cls-1" d="M38.83,23.22c-.28,.23-.53,.44-.75,.62-.22,.19-.51,.37-.88,.56-.36,.18-.72,.31-1.06,.4s-.82,.14-1.44,.14c-1.15,0-2.1-.38-2.86-1.16s-1.14-1.74-1.14-2.92c0-.96,.19-1.74,.58-2.34s.94-1.06,1.67-1.41c.73-.35,1.61-.6,2.63-.74,1.02-.14,2.11-.25,3.29-.32v-.07c0-.72-.26-1.21-.79-1.49-.53-.27-1.32-.41-2.38-.41-.48,0-1.04,.09-1.68,.26s-1.26,.4-1.87,.67h-.35v-3.13c.4-.12,1.05-.25,1.94-.41s1.8-.24,2.71-.24c2.24,0,3.87,.37,4.89,1.12,1.02,.74,1.53,1.88,1.53,3.41v8.84h-4.03v-1.38Zm0-2.01v-2.71c-.69,.07-1.24,.13-1.67,.18-.42,.05-.84,.15-1.25,.29-.35,.12-.63,.31-.83,.56-.2,.25-.29,.58-.29,1,0,.61,.16,1.03,.49,1.26,.33,.23,.81,.34,1.45,.34,.35,0,.72-.08,1.09-.24s.71-.39,1.01-.68Z"></path>
    <path class="cls-1" d="M58.02,24.59h-4.07v-6.44c0-.52-.02-1.05-.06-1.57-.04-.52-.12-.9-.24-1.15-.14-.29-.34-.5-.6-.63-.26-.13-.61-.19-1.05-.19-.33,0-.67,.06-1.01,.19-.34,.12-.7,.32-1.09,.59v9.21h-4.05V11.6h4.05v1.43c.66-.56,1.31-1,1.94-1.32,.63-.32,1.32-.47,2.09-.47,1.33,0,2.34,.42,3.04,1.25,.7,.84,1.05,2.05,1.05,3.64v8.46Z"></path>
    <path d="M64.55,24.59V10.65h-5.09v-3.29h14.51v3.29h-5.09v13.94h-4.33Z"></path>
    <path d="M82.68,23.22c-.28,.23-.53,.44-.75,.62-.22,.19-.52,.37-.89,.56-.36,.18-.71,.31-1.06,.4-.34,.09-.82,.14-1.44,.14-1.15,0-2.1-.38-2.86-1.16s-1.14-1.74-1.14-2.92c0-.96,.19-1.74,.58-2.34,.38-.59,.94-1.06,1.67-1.41,.73-.35,1.61-.6,2.63-.74,1.02-.14,2.11-.25,3.29-.32v-.07c0-.72-.26-1.21-.79-1.49s-1.32-.41-2.38-.41c-.48,0-1.04,.09-1.68,.26-.64,.17-1.26,.4-1.87,.67h-.35v-3.13c.4-.12,1.05-.25,1.94-.41s1.8-.24,2.71-.24c2.24,0,3.87,.37,4.89,1.12,1.02,.74,1.53,1.88,1.53,3.41v8.84h-4.03v-1.38Zm0-2.01v-2.71c-.69,.07-1.24,.13-1.67,.18-.42,.05-.84,.15-1.25,.29-.36,.12-.63,.31-.83,.56-.2,.25-.29,.58-.29,1,0,.61,.16,1.03,.49,1.26s.81,.34,1.45,.34c.35,0,.72-.08,1.09-.24s.71-.39,1.01-.68Z"></path>
    <path d="M102.44,17.92c0,2.07-.52,3.74-1.57,5.01s-2.35,1.92-3.9,1.92c-.65,0-1.21-.07-1.69-.22-.48-.15-.99-.37-1.53-.68l-.17,.65h-3.88V6.59h4.05v6.36c.59-.51,1.2-.92,1.82-1.24,.62-.32,1.33-.47,2.14-.47,1.51,0,2.68,.59,3.5,1.77,.82,1.18,1.23,2.81,1.23,4.9Zm-4.14,.08c0-1.3-.2-2.22-.59-2.78-.39-.56-1-.83-1.82-.83-.36,0-.72,.06-1.08,.17s-.71,.29-1.06,.52v6.52c.27,.11,.54,.18,.82,.22,.27,.04,.55,.06,.82,.06,.98,0,1.71-.32,2.19-.97,.48-.65,.72-1.62,.72-2.92Z"></path>
    <path d="M108.72,24.59h-4.05V6.59h4.05V24.59Z"></path>
    <path d="M118.47,24.94c-2.45,0-4.33-.59-5.64-1.76-1.31-1.17-1.96-2.84-1.96-5.01s.61-3.81,1.83-5.08c1.22-1.26,2.92-1.9,5.11-1.9,1.99,0,3.49,.54,4.49,1.61,1,1.07,1.5,2.61,1.5,4.6v1.46h-8.87c.04,.6,.17,1.1,.38,1.51,.22,.41,.5,.73,.86,.97,.35,.24,.75,.41,1.21,.52,.46,.1,.97,.16,1.52,.16,.47,0,.93-.05,1.39-.16,.46-.1,.87-.24,1.25-.41,.33-.15,.64-.3,.92-.47,.28-.17,.51-.32,.69-.45h.43v3.34c-.33,.13-.63,.25-.91,.36-.27,.11-.65,.23-1.13,.34-.44,.12-.89,.21-1.36,.27-.47,.07-1.04,.1-1.71,.1Zm1.34-8.51c-.02-.86-.22-1.51-.6-1.95s-.95-.67-1.72-.67-1.4,.24-1.84,.71-.69,1.11-.73,1.92h4.89Z"></path>
    <path d="M129.84,24.95c-.96,0-1.86-.1-2.71-.31-.85-.21-1.56-.45-2.11-.73v-3.42h.33c.19,.15,.41,.31,.66,.49,.25,.18,.59,.36,1.03,.56,.38,.18,.8,.33,1.28,.46,.47,.13,.99,.19,1.54,.19s1.07-.09,1.51-.27,.65-.46,.65-.84c0-.3-.1-.53-.3-.68s-.59-.3-1.17-.44c-.31-.08-.7-.16-1.17-.25-.47-.09-.89-.19-1.25-.31-1.02-.32-1.78-.79-2.3-1.41s-.77-1.44-.77-2.45c0-.58,.13-1.12,.4-1.64,.27-.51,.66-.97,1.17-1.37,.52-.39,1.16-.71,1.91-.94,.76-.23,1.62-.35,2.57-.35s1.75,.09,2.51,.27c.76,.18,1.41,.4,1.93,.65v3.29h-.32c-.14-.11-.36-.25-.66-.43s-.59-.34-.88-.47c-.34-.15-.72-.28-1.14-.38-.42-.1-.85-.15-1.29-.15-.59,0-1.08,.1-1.49,.3s-.61,.47-.61,.8c0,.29,.1,.52,.3,.69s.64,.34,1.31,.5c.35,.08,.75,.17,1.2,.25s.88,.19,1.3,.33c.93,.3,1.64,.74,2.12,1.33,.48,.58,.72,1.35,.72,2.32,0,.61-.14,1.19-.43,1.74-.29,.55-.69,1.02-1.21,1.39-.56,.41-1.21,.73-1.96,.95s-1.65,.33-2.7,.33Z"></path>
  </g>
  <g>
    <path class="cls-2" d="M79.33,27.11v.73c-.09-.1-.18-.18-.27-.22-.09-.05-.18-.07-.29-.07-.19,0-.34,.07-.45,.2s-.17,.3-.17,.51c0,.2,.06,.36,.18,.49,.12,.13,.27,.2,.45,.2,.1,0,.2-.02,.29-.07,.09-.05,.18-.12,.27-.23v.73c-.1,.05-.21,.09-.31,.12s-.21,.04-.31,.04c-.13,0-.25-.02-.36-.05-.11-.03-.21-.08-.3-.15-.18-.12-.31-.28-.41-.46-.09-.19-.14-.4-.14-.63,0-.19,.03-.36,.09-.51,.06-.15,.15-.29,.27-.42,.11-.12,.24-.21,.38-.27,.14-.06,.3-.09,.47-.09,.1,0,.21,.01,.31,.04,.1,.03,.21,.06,.31,.12Z"></path>
    <path class="cls-2" d="M79.69,29.47v-2.46h.65v.96h.87v-.96h.65v2.46h-.65v-1h-.87v1h-.65Z"></path>
    <path class="cls-2" d="M82.09,29.47l.82-2.46h.82l.83,2.46h-.65l-.12-.44h-.92l-.12,.44h-.65Zm.91-.92h.65l-.24-.81s-.02-.06-.03-.12c-.01-.05-.03-.12-.05-.21-.01,.06-.03,.12-.04,.17-.01,.05-.03,.11-.04,.16l-.24,.81Z"></path>
    <path class="cls-2" d="M84.78,29.47v-2.46h.63l.9,1.26s.05,.08,.09,.16c.04,.08,.08,.17,.13,.28-.01-.1-.02-.19-.03-.27,0-.08,0-.15,0-.21v-1.21h.62v2.46h-.62l-.9-1.27s-.05-.08-.09-.16-.08-.17-.13-.27c.01,.1,.02,.19,.03,.27,0,.08,0,.15,0,.21v1.21h-.63Z"></path>
    <path class="cls-2" d="M88.76,28.57v-.52h1.28s0,.04,0,.06,0,.05,0,.09c0,.42-.11,.75-.33,.98-.22,.23-.52,.35-.92,.35-.19,0-.37-.03-.52-.09s-.29-.15-.4-.27c-.11-.12-.2-.26-.26-.42-.06-.16-.09-.33-.09-.5s.03-.35,.09-.51c.06-.15,.15-.29,.27-.42,.12-.12,.26-.21,.41-.27,.16-.06,.32-.09,.5-.09,.23,0,.44,.05,.62,.14,.18,.09,.33,.24,.45,.42l-.56,.28c-.07-.1-.14-.17-.23-.21-.08-.05-.18-.07-.28-.07-.2,0-.35,.07-.46,.2-.11,.13-.17,.32-.17,.55s.06,.42,.17,.55c.11,.13,.26,.2,.46,.2,.17,0,.3-.04,.41-.12s.17-.19,.19-.33h-.65Z"></path>
    <path class="cls-2" d="M90.46,29.47v-2.46h.66v2.46h-.66Z"></path>
    <path class="cls-2" d="M91.64,29.47v-2.46h.63l.9,1.26s.05,.08,.09,.16c.04,.08,.08,.17,.13,.28-.01-.1-.02-.19-.03-.27,0-.08,0-.15,0-.21v-1.21h.62v2.46h-.62l-.9-1.27s-.05-.08-.09-.16-.08-.17-.13-.27c.01,.1,.02,.19,.03,.27,0,.08,0,.15,0,.21v1.21h-.63Z"></path>
    <path class="cls-2" d="M95.62,28.57v-.52h1.28s0,.04,0,.06,0,.05,0,.09c0,.42-.11,.75-.33,.98-.22,.23-.52,.35-.92,.35-.19,0-.37-.03-.52-.09s-.29-.15-.4-.27c-.11-.12-.2-.26-.26-.42-.06-.16-.09-.33-.09-.5s.03-.35,.09-.51c.06-.15,.15-.29,.27-.42,.12-.12,.26-.21,.41-.27,.16-.06,.32-.09,.5-.09,.23,0,.44,.05,.62,.14,.18,.09,.33,.24,.45,.42l-.56,.28c-.07-.1-.14-.17-.23-.21-.08-.05-.18-.07-.28-.07-.2,0-.35,.07-.46,.2-.11,.13-.17,.32-.17,.55s.06,.42,.17,.55c.11,.13,.26,.2,.46,.2,.17,0,.3-.04,.41-.12s.17-.19,.19-.33h-.65Z"></path>
    <path class="cls-2" d="M98.77,29.47v-1.12l-.83-1.34h.75l.32,.63s0,0,0,.02c.03,.07,.06,.13,.07,.19,.01-.05,.04-.12,.07-.18,0-.01,.01-.02,.01-.03l.32-.63h.75l-.83,1.34v1.12h-.63Z"></path>
    <path class="cls-2" d="M102.74,28.25c0,.18-.03,.34-.09,.5s-.16,.29-.28,.41c-.12,.12-.26,.21-.42,.28-.16,.07-.32,.1-.49,.1s-.33-.03-.49-.1c-.16-.07-.29-.16-.41-.28-.12-.12-.22-.26-.28-.42s-.1-.32-.1-.5,.03-.34,.1-.5c.06-.16,.16-.29,.28-.42,.12-.12,.26-.21,.41-.28s.32-.1,.49-.1,.33,.03,.49,.1,.29,.16,.42,.28c.12,.12,.21,.26,.27,.42,.06,.16,.1,.32,.1,.5Zm-1.28,.72c.18,0,.33-.07,.45-.2,.12-.14,.18-.31,.18-.52s-.06-.38-.18-.51c-.12-.14-.27-.21-.45-.21s-.33,.07-.45,.21-.18,.31-.18,.52,.06,.38,.17,.52c.12,.14,.27,.2,.45,.2Z"></path>
    <path class="cls-2" d="M103.13,27.01h.65v1.2c0,.18,0,.3,.01,.38,0,.08,.02,.14,.04,.19,.02,.06,.07,.11,.13,.14,.06,.03,.14,.05,.23,.05s.16-.02,.23-.05,.11-.08,.13-.14c.02-.05,.04-.12,.04-.19,0-.08,.01-.2,.01-.38v-1.2h.65v1.3c0,.27-.02,.47-.05,.6-.03,.13-.08,.24-.16,.33-.08,.1-.19,.17-.34,.22-.14,.05-.32,.07-.52,.07s-.38-.02-.52-.07c-.14-.05-.25-.12-.34-.22-.07-.09-.13-.2-.16-.33s-.05-.33-.05-.6v-1.3Z"></path>
    <path class="cls-2" d="M105.75,29.47v-2.46h.68c.27,0,.45,.01,.56,.04,.11,.03,.2,.07,.27,.13,.08,.07,.15,.15,.2,.26,.05,.1,.07,.22,.07,.34,0,.19-.04,.34-.14,.46s-.22,.2-.4,.24l.65,.99h-.74l-.55-.96v.96h-.61Zm.61-1.3h.12c.14,0,.24-.02,.31-.07,.06-.05,.1-.13,.1-.23,0-.12-.03-.21-.09-.26-.06-.05-.16-.08-.3-.08h-.13v.65Z"></path>
    <path class="cls-2" d="M109.55,29.47h-.61v-2.46h.68c.27,0,.45,.01,.56,.04,.11,.03,.2,.07,.27,.14,.09,.08,.16,.17,.2,.28,.05,.11,.07,.24,.07,.38,0,.15-.02,.28-.07,.39-.04,.11-.11,.2-.2,.27-.07,.05-.15,.09-.24,.12-.09,.02-.24,.04-.44,.04h-.23v.81Zm0-1.35h.12c.16,0,.27-.02,.33-.07,.06-.04,.09-.12,.09-.23s-.03-.18-.09-.22c-.06-.04-.17-.07-.32-.07h-.13v.58Z"></path>
    <path class="cls-2" d="M111.05,29.47v-2.46h.65v1.88h.81v.57h-1.46Z"></path>
    <path class="cls-2" d="M112.55,29.47l.82-2.46h.82l.83,2.46h-.65l-.12-.44h-.92l-.12,.44h-.65Zm.91-.92h.65l-.24-.81s-.02-.06-.03-.12c-.01-.05-.03-.12-.05-.21-.01,.06-.03,.12-.04,.17-.01,.05-.03,.11-.04,.16l-.24,.81Z"></path>
    <path class="cls-2" d="M115.24,29.47v-2.46h.63l.9,1.26s.05,.08,.09,.16c.04,.08,.08,.17,.13,.28-.01-.1-.02-.19-.03-.27,0-.08,0-.15,0-.21v-1.21h.62v2.46h-.62l-.9-1.27s-.05-.08-.09-.16-.08-.17-.13-.27c.01,.1,.02,.19,.03,.27,0,.08,0,.15,0,.21v1.21h-.63Z"></path>
    <path class="cls-2" d="M118.2,28.68c.1,.11,.19,.2,.29,.25,.09,.06,.19,.08,.28,.08,.09,0,.16-.02,.21-.07,.06-.05,.08-.11,.08-.18,0-.08-.02-.14-.07-.19-.05-.04-.16-.09-.33-.14-.23-.06-.4-.15-.5-.25-.1-.1-.14-.25-.14-.43,0-.23,.08-.43,.23-.57,.15-.15,.35-.22,.59-.22,.13,0,.26,.02,.38,.05,.12,.04,.23,.09,.33,.17l-.2,.48c-.07-.06-.15-.11-.23-.15s-.15-.05-.23-.05-.14,.02-.19,.06c-.05,.04-.07,.09-.07,.15s.02,.11,.06,.15,.13,.07,.25,.11h.03c.26,.08,.44,.16,.52,.25,.06,.06,.1,.13,.13,.22,.03,.08,.04,.18,.04,.28,0,.26-.08,.47-.25,.63-.17,.16-.39,.24-.67,.24-.17,0-.32-.03-.45-.09-.14-.06-.27-.15-.39-.27l.29-.5Z"></path>
    <path class="cls-2" d="M121.08,29.47v-2.46h1.46v.54h-.83v.43h.78v.53h-.78v.96h-.63Z"></path>
    <path class="cls-2" d="M125.35,28.25c0,.18-.03,.34-.09,.5s-.16,.29-.28,.41c-.12,.12-.26,.21-.42,.28-.16,.07-.32,.1-.49,.1s-.33-.03-.49-.1c-.16-.07-.29-.16-.41-.28-.12-.12-.22-.26-.28-.42s-.1-.32-.1-.5,.03-.34,.1-.5c.06-.16,.16-.29,.28-.42,.12-.12,.26-.21,.41-.28s.32-.1,.49-.1,.33,.03,.49,.1,.29,.16,.42,.28c.12,.12,.21,.26,.27,.42,.06,.16,.1,.32,.1,.5Zm-1.28,.72c.18,0,.33-.07,.45-.2,.12-.14,.18-.31,.18-.52s-.06-.38-.18-.51c-.12-.14-.27-.21-.45-.21s-.33,.07-.45,.21-.18,.31-.18,.52,.06,.38,.17,.52c.12,.14,.27,.2,.45,.2Z"></path>
    <path class="cls-2" d="M125.75,29.47v-2.46h.68c.27,0,.45,.01,.56,.04,.11,.03,.2,.07,.27,.13,.08,.07,.15,.15,.2,.26,.05,.1,.07,.22,.07,.34,0,.19-.04,.34-.14,.46s-.22,.2-.4,.24l.65,.99h-.74l-.55-.96v.96h-.61Zm.61-1.3h.12c.14,0,.24-.02,.31-.07,.06-.05,.1-.13,.1-.23,0-.12-.03-.21-.09-.26-.06-.05-.16-.08-.3-.08h-.13v.65Z"></path>
    <path class="cls-2" d="M127.9,29.47v-2.46h1.46v.54h-.83v.43h.78v.53h-.78v.41h.83v.55h-1.46Z"></path>
    <path class="cls-2" d="M130.47,29.47l-1-2.46h.69l.48,1.38s.01,.05,.03,.1,.03,.13,.05,.22c.02-.07,.03-.14,.05-.2,.02-.06,.03-.1,.03-.13l.47-1.38h.69l-1,2.46h-.5Z"></path>
    <path class="cls-2" d="M132.16,29.47v-2.46h1.46v.54h-.83v.43h.78v.53h-.78v.41h.83v.55h-1.46Z"></path>
    <path class="cls-2" d="M134.06,29.47v-2.46h.68c.27,0,.45,.01,.56,.04,.11,.03,.2,.07,.27,.13,.08,.07,.15,.15,.2,.26,.05,.1,.07,.22,.07,.34,0,.19-.04,.34-.14,.46s-.22,.2-.4,.24l.65,.99h-.74l-.55-.96v.96h-.61Zm.61-1.3h.12c.14,0,.24-.02,.31-.07,.06-.05,.1-.13,.1-.23,0-.12-.03-.21-.09-.26-.06-.05-.16-.08-.3-.08h-.13v.65Z"></path>
  </g>
</svg>
