<?xml version="1.0" encoding="utf-8"?>
<!-- Generator: Adobe Illustrator 28.2.0, SVG Export Plug-In . SVG Version: 6.00 Build 0)  -->
<svg version="1.1" id="Layer_1" xmlns="http://www.w3.org/2000/svg" xmlns:xlink="http://www.w3.org/1999/xlink" x="0px" y="0px"
	 viewBox="0 0 300 158" style="enable-background:new 0 0 300 158;" xml:space="preserve">
<style type="text/css">
	.st0{fill:#231F20;}
</style>
<g>
	<g>
		<path class="st0" d="M292,97.1L292,97.1c-3.3,0-5.7,2.6-5.7,5.9s2.6,5.9,5.7,5.9c3.3,0,5.7-2.6,5.7-5.9
			C297.7,99.8,295.3,97.1,292,97.1z M292,107.9c-2.6,0-4.7-2.2-4.7-4.9c0-2.6,2-4.9,4.7-4.9l0,0c2.6,0,4.7,2.2,4.7,4.9
			C296.7,105.9,294.7,107.9,292,107.9z"/>
		<path class="st0" d="M293,103.2L293,103.2c0.6-0.2,1.2-0.8,1.2-1.6c0-0.6-0.2-1-0.6-1.4c-0.4-0.2-1-0.4-2-0.4
			c-0.8,0-1.2,0-1.8,0.2v6.5h1v-2.9h0.8c0.8,0,1.2,0.4,1.4,1.2c0.2,0.8,0.2,1.4,0.4,1.6h1c-0.2-0.2-0.2-0.6-0.4-1.6
			C294.1,103.8,293.6,103.4,293,103.2z M291.6,102.8h-0.8v-2.2c0.2,0,0.4,0,0.8,0c1.2,0,1.6,0.6,1.6,1.2
			C293.2,102.6,292.4,102.8,291.6,102.8z"/>
	</g>
	<g>
		<path class="st0" d="M11.7,127.3h11.2c1.6,0,4.9-0.4,7.1-1.8c2.9-1.8,3.3-4.7,3.3-7.9V97.3h-9.4v19.1c0,0.8-0.2,2-0.8,2.6
			c-0.8,0.6-3.1,0.8-4.1,0.8h-2.4c-1.4,0-4.1-0.2-4.7-1.2c-0.4-1-0.4-1.8-0.4-2.9V114h-9v4.5c0,1.2,0,4.3,2,6.3
			C7.4,127.5,11.2,127.3,11.7,127.3z"/>
		<polygon class="st0" points="69.5,119.9 46.3,119.9 46.3,115 68.3,115 68.3,109.1 46.3,109.1 46.3,104 69.5,104 69.5,97.1 
			37.1,97.1 37.1,127.1 69.5,127.1 		"/>
		<rect x="2.5" y="130.3" class="st0" width="67" height="6.9"/>
		<path class="st0" d="M124,99.6c-3.3-2.2-9.8-2.6-11.2-2.6H77v40h35c5.5,0,10-1.2,13-3.5c4.3-3.5,4.3-6.9,4.3-12.4
			c0-0.4,0-0.8,0-1.4v-6.5c0-0.2,0-0.4,0-0.8C129.1,109.5,129.3,103.2,124,99.6z M92.1,107.9h19.5c1.6,0,2.9,0,3.9,0.8
			s1.2,1.6,1.2,3.3v10c0,1.6-0.4,2.6-1.2,3.5c-0.8,0.6-2.2,1-3.7,1H92.3L92.1,107.9z"/>
		<path class="st0" d="M169.9,122c0,1.6-0.4,2.4-1.2,3.3c-1.2,1-2.2,1.2-3.9,1.2h-13c-2.2,0-3.5-0.4-4.3-1.4s-1-2-1-3.7V97.1H133
			v25.2c0,1.8,0.2,8.1,4.1,11.6c3.1,2.9,7.5,3.3,11.2,3.3h16.3c0.2,0,0.4,0,0.6,0c0.4,0,0.8,0,1.2,0c6.7,0,11.2-1.4,13.6-4.5
			c2.6-3.3,3.1-6.1,3.1-9.8V97.1h-13.4L169.9,122L169.9,122z"/>
		<polygon class="st0" points="269,123.6 247.8,97.1 228.3,97.1 228.3,123.2 207.3,97.1 187.8,97.1 187.8,137.2 201.6,137.2 
			201.6,111.2 222.2,136.8 222.6,137.2 242.1,137.2 242.1,111.2 262.9,137.2 282,137.2 282,97.1 269,97.1 		"/>
		<path class="st0" d="M142.4,82.1c1.4,0,2.9,0,4.3-0.2c-20.6-2-36.9-19.1-36.9-39.9s16.1-37.9,36.8-40c-1.4-0.2-2.9-0.2-4.3-0.2
			c-22.8,0-41.1,17.9-41.1,40.1C101,63.9,119.6,82.1,142.4,82.1z"/>
		<path class="st0" d="M150.9,2.6v17.5c-1.4,0-2.9,0.2-4.3,0.4c10.2,2,17.9,10.8,17.9,21.4s-7.7,19.3-17.9,21.4
			c1.4,0.2,2.9,0.4,4.3,0.4v17.5c18.5-3.9,32.4-20,32.4-39.3C183.5,22.6,169.4,6.5,150.9,2.6z"/>
		<path class="st0" d="M145.4,52.7c7.7,0,10-3.9,10-11c0-6.9-2.9-10.6-10.2-10.6h-7.5v21.8h7.7V52.7z"/>
		<path class="st0" d="M33.6,145.4c-1.2-0.8-2.2-0.8-3.7-0.8h-6.1c-1.2,0-2.2,0-3.3,0.8c-1.2,1-1.2,3.1-1.2,4.1v1.4
			c0,1-0.2,3.3,0.8,4.1s2,1,3.5,1h6.5c1.4,0,2.9-0.2,3.7-1c1.2-1,1.2-3.1,1.2-4.3v-1.2C35.1,148.4,35.3,146.4,33.6,145.4z
			 M31.4,151.7c0,0.4,0,1-0.4,1.2s-1,0.2-1.4,0.2h-4.7c-0.4,0-1.2-0.2-1.4-0.4c-0.4-0.4-0.4-0.8-0.4-1.4V149c0-0.6,0-1.2,0.6-1.6
			c0.4-0.2,1.2-0.2,1.4-0.2h4.5c0.6,0,1,0,1.2,0.4c0.4,0.4,0.4,0.6,0.4,1.2L31.4,151.7L31.4,151.7z"/>
		<polygon class="st0" points="49.9,152.7 43.2,144.6 37.7,144.6 37.7,155.8 41.4,155.8 41.4,147.6 47.9,155.8 53.2,155.8 
			53.2,144.6 49.9,144.6 		"/>
		<path class="st0" d="M68.3,149.4c-0.4-0.4-1.4-0.4-2.4-0.4h-5.5c-0.2,0-0.4,0-0.6-0.2c-0.2-0.2-0.2-0.4-0.2-0.6V148
			c0-0.2,0.2-0.6,0.4-0.6c0-0.4,0.2-0.4,0.6-0.4H65c0.2,0,0.4,0,0.6,0.2s0.2,0.2,0.2,0.6v0.4h3.3v-0.6c0-0.6,0-1-0.4-1.6
			c-0.6-1-2.6-1.2-4.1-1.2h-3.5c-2,0-2.9,0-3.9,0.6s-1.2,1.8-1.2,2.9v0.6c0,0.4,0,1.4,1,2.2c0.6,0.4,1.6,0.6,2.9,0.6l4.9,0.2
			c0.4,0,1,0,1.2,0.2s0.4,0.4,0.4,0.8v0.2c0,0.2,0,0.4-0.2,0.6c-0.4,0.2-0.6,0.2-1,0.2h-4.5c-0.4,0-0.8,0-1-0.4
			c-0.2-0.2-0.2-0.4-0.2-0.6v-0.4h-3.3v1.4c0,0.6,0.2,1.2,1,1.6c0.6,0.4,1.6,0.6,2.9,0.6h5.1c0.6,0,2.9,0,3.9-1
			c0.8-0.8,0.8-1.6,0.8-2.2v-0.6C69.3,151.1,69.1,149.9,68.3,149.4z"/>
		<polygon class="st0" points="70.7,147.2 75.6,147.2 75.6,155.8 79,155.8 79,147.2 84.1,147.2 84.1,144.6 70.7,144.6 		"/>
		<path class="st0" d="M98.2,145c-0.8-0.4-1.4-0.6-2.2-0.6H85.8v11.4h3.5v-3.1H95c0.2,0,0.4,0,0.6,0.2s0.4,0.4,0.4,0.8v2h3.5v-2.2
			c0-0.6,0-1-0.4-1.4c-0.4-0.6-1.4-1-1.6-1c0,0,0.8-0.2,1.4-0.6c0.6-0.4,0.6-1,0.6-1.8V147C99.4,146.4,99,145.6,98.2,145z M96.1,149
			c0,0.4-0.2,0.6-0.4,0.8c-0.2,0.2-0.6,0.4-1,0.4H89v-3.1h5.7c0.4,0,0.6,0,0.8,0.2s0.2,0.4,0.2,0.8v0.8h0.4V149z"/>
		<path class="st0" d="M113,151.7c0,0.4,0,0.8-0.4,1.2c-0.6,0.2-1,0.2-1.6,0.2h-3.7c-0.6,0-1.2,0-1.4-0.6c-0.2-0.4-0.4-0.8-0.4-1.2
			v-6.9H102v7.1c0,0.8,0.2,2.4,1.2,3.3c1,1,2.9,0.8,3.5,0.8h4.5c0.6,0,3.3,0.2,4.3-1.2c0.6-0.8,0.8-1.6,0.8-2.6v-7.5h-3.5L113,151.7
			L113,151.7z"/>
		<path class="st0" d="M129.5,152.7c-0.2,0.4-0.6,0.4-1.2,0.4h-4.1c-0.4,0-1-0.2-1.4-0.6c-0.4-0.4-0.4-0.8-0.4-1.4v-2.6
			c0-0.6,0.2-0.8,0.6-1.2c0.4-0.2,1.2-0.2,1.4-0.2h3.7c0.6,0,1.2,0,1.4,0.4c0.2,0.2,0.4,0.8,0.2,1.2h3.3v-0.8c0-1.2-0.2-2.2-1.4-2.9
			c-0.6-0.4-2.4-0.4-2.6-0.4h-5.3c-0.6,0-2.6,0-3.7,0.8s-1.2,2.2-1.2,3.9v1.8c0,1,0,3.3,1,3.9c1.2,0.8,2,1,3.5,1h4.9
			c1.4,0,2.4,0.2,3.5-0.6c1-0.6,1.2-1.4,1.2-2.4v-1.4h-3.3C130.1,152.1,129.9,152.5,129.5,152.7z"/>
		<polygon class="st0" points="135,147.2 139.9,147.2 139.9,155.8 143.6,155.8 143.6,147.2 148.5,147.2 148.5,144.6 135,144.6 		"/>
		<rect x="150.7" y="144.6" class="st0" width="3.7" height="11.4"/>
		<path class="st0" d="M171.9,145.4c-1.2-0.8-2.2-0.8-3.7-0.8h-6.1c-1.2,0-2.2,0-3.3,0.8c-1.2,1-1.2,3.1-1.2,4.1v1.4
			c0,1-0.2,3.3,0.8,4.1s2,1,3.5,1h6.5c1.4,0,2.9-0.2,3.7-1c1.2-1,1.2-3.1,1.2-4.3v-1.2C173.1,148.4,173.3,146.4,171.9,145.4z
			 M169.4,151.7c0,0.4,0,1-0.4,1.2s-0.8,0.2-1.4,0.2h-4.7c-0.4,0-1.2-0.2-1.4-0.4c-0.4-0.4-0.4-0.8-0.4-1.4V149c0-0.6,0-1.2,0.6-1.6
			c0.4-0.2,1.2-0.2,1.4-0.2h4.5c0.6,0,1,0,1.2,0.4c0.4,0.4,0.4,0.6,0.4,1.2L169.4,151.7L169.4,151.7z"/>
		<polygon class="st0" points="188,152.7 181.3,144.6 176,144.6 176,155.8 179.4,155.8 179.4,147.6 185.9,155.8 191.2,155.8 
			191.2,144.6 188,144.6 		"/>
		<path class="st0" d="M13.1,152.7c-0.4,0.4-0.8,0.4-1.2,0.4H7.8c-0.4,0-1-0.2-1.4-0.6C6,152.1,6,151.7,6,151.1v-2.6
			c0-0.6,0.2-0.8,0.6-1.2C7,147,7.8,147,8,147h3.7c0.6,0,1.2,0,1.4,0.4c0.2,0.2,0.4,0.8,0.2,1.2h3.3v-0.8c0-1.2-0.2-2.2-1.4-2.9
			c-0.6-0.4-2.4-0.4-2.6-0.4H7.2c-0.6,0-2.6,0-3.7,0.8s-1.2,2.2-1.2,3.9v1.8c0,1,0,3.3,1,3.9c1.2,0.8,2,1,3.5,1h4.9
			c1.4,0,2.4,0.2,3.5-0.6c1-0.6,1.2-1.4,1.2-2.4v-1.4h-2.9C13.7,152.1,13.5,152.5,13.1,152.7z"/>
	</g>
</g>
</svg>
