<?xml version="1.0" encoding="UTF-8"?>
<!-- Generator: Adobe Illustrator 25.2.3, SVG Export Plug-In . SVG Version: 6.00 Build 0)  -->
<svg version="1.1" id="Layer_1" xmlns="http://www.w3.org/2000/svg" xmlns:xlink="http://www.w3.org/1999/xlink" x="0px" y="0px" viewBox="0 0 144 144" style="enable-background:new 0 0 144 144;" xml:space="preserve">
<style type="text/css">
	.st0{fill:#FFFFFF;}
	.st1{fill:url(#SVGID_1_);}
	.st2{fill:#CF202F;}
	.st3{fill:#010101;}
	.st4{fill:#EAE5E1;}
</style>
<g>
	<g>
		<g>
			<path class="st0" d="M74.7,137.4l-0.3-0.1c-0.7-0.3-1.4-0.7-2.1-1l-0.6-0.3c-0.5-0.3-1.1-0.6-1.6-0.9l-0.5-0.3     c-0.7-0.4-1.3-0.8-2-1.2l-0.4-0.3c-0.4-0.2-0.8-0.5-1.1-0.7c-19.7-0.5-31.3-2.6-33.4-3l-1.1-0.2v-19.9l1.7,0.4     c1.4,0.3,4.5,1,10.4,1.6c0.2,0,0.4,0,0.7,0.1c-0.2-0.3-0.5-0.7-0.7-1c-0.2-0.4-0.5-0.7-0.7-1.1c-0.2-0.3-0.4-0.7-0.6-1     c-0.2-0.3-0.4-0.7-0.6-1c-0.2-0.3-0.4-0.6-0.5-0.9c-0.3-0.6-0.6-1.1-0.9-1.7l-0.1-0.2c-0.2-0.3-0.3-0.6-0.5-0.9     c-0.2-0.4-0.4-0.7-0.5-1.1c-0.2-0.4-0.3-0.7-0.5-1c-0.2-0.4-0.4-0.8-0.5-1.2c-0.1-0.2-0.4-0.9-0.4-0.9c-0.3-0.7-0.6-1.4-0.9-2     c-0.1-0.3-0.3-0.6-0.4-0.9c-0.2-0.4-0.3-0.8-0.5-1.2c-0.1-0.3-0.4-1.1-0.4-1.1c-0.1-0.3-0.2-0.7-0.4-1c-0.2-0.6-0.4-1.2-0.6-1.8     c-0.1-0.4-0.2-0.8-0.4-1.3c-0.1-0.3-0.2-0.6-0.2-0.8c-0.4-1.5-0.8-3.1-1.1-4.7l-0.1-0.3c-0.5-2.5-0.9-5-1.1-7.5l0-0.3     c-0.1-0.7-0.1-1.3-0.2-2l-0.1-1.2c0-0.4,0-0.8-0.1-1.2c0-0.8,0-1.7,0-2.5v-54h1.4c23.7,0,41.3-9.8,41.5-9.9L75,5.6l0.7,0.4     c0.2,0.1,17.8,9.9,41.5,9.9h1.4l0,54c0,1.6-0.1,3.2-0.2,4.9l0,0.2c-0.1,0.8-0.1,1.6-0.2,2.4l0,0.3c-0.1,0.8-0.2,1.5-0.3,2.3     l-0.1,0.4c-0.1,0.7-0.2,1.5-0.3,2.2l-0.1,0.5c-0.1,0.7-0.3,1.4-0.4,2.1l-0.1,0.5c-0.1,0.7-0.3,1.3-0.5,2l-0.1,0.6     c-0.2,0.6-0.3,1.3-0.5,1.9l-0.2,0.6c-0.2,0.6-0.4,1.2-0.6,1.9l-0.2,0.7c-0.2,0.6-0.4,1.2-0.6,1.8l-0.2,0.7     c-0.2,0.6-0.4,1.2-0.7,1.7L113,98c-0.2,0.6-0.5,1.1-0.7,1.7l-0.3,0.7c-0.2,0.5-0.5,1.1-0.7,1.6l-0.4,0.8c-0.3,0.5-0.5,1-0.8,1.5     l-0.4,0.8c-0.3,0.5-0.5,1-0.8,1.5c-0.1,0.3-0.3,0.5-0.5,0.8c-0.3,0.5-0.6,0.9-0.8,1.4c-0.2,0.3-0.3,0.5-0.5,0.8     c-0.3,0.5-0.6,0.9-0.9,1.4c-0.2,0.3-0.6,0.8-0.6,0.8c6.6-0.7,10-1.4,11.2-1.7l1.7-0.4v19.9l-1.1,0.2c-2.1,0.4-13.7,2.5-33.5,3     c-0.1,0.1-0.9,0.6-0.9,0.6c-0.2,0.1-0.4,0.3-0.6,0.4c-0.3,0.2-0.7,0.4-1,0.6l-0.6,0.4c-0.2,0.1-0.4,0.2-0.6,0.4     c-0.4,0.2-0.9,0.5-1.3,0.7c0,0-0.8,0.4-1,0.5c-0.8,0.4-1.5,0.8-2.3,1.1l-0.3,0.1H74.7z"/>
			<path class="st0" d="M75,7.1c0,0,17.8,10,42.2,10c0,5.8,0,14.8,0,19.1c0,0,0,0,0,0c0,1.7,0,4.5,0,7.7c0,9.7,0,23.6,0,25.8     c0,1.6-0.1,3.2-0.2,4.8c0,0.1,0,0.1,0,0.2c-0.1,0.8-0.1,1.6-0.2,2.4c0,0.1,0,0.2,0,0.3c-0.1,0.7-0.2,1.5-0.3,2.2     c0,0.1,0,0.3,0,0.4c-0.1,0.7-0.2,1.4-0.3,2.1c0,0.2,0,0.3-0.1,0.5c-0.1,0.7-0.3,1.4-0.4,2c0,0.2-0.1,0.3-0.1,0.5     c-0.1,0.7-0.3,1.3-0.5,2c0,0.2-0.1,0.4-0.1,0.6c-0.2,0.6-0.3,1.3-0.5,1.9c-0.1,0.2-0.1,0.4-0.2,0.6c-0.2,0.6-0.4,1.2-0.6,1.8     c-0.1,0.2-0.1,0.4-0.2,0.6c-0.2,0.6-0.4,1.2-0.6,1.8c-0.1,0.2-0.2,0.4-0.2,0.7c-0.2,0.6-0.4,1.1-0.6,1.7     c-0.1,0.2-0.2,0.5-0.3,0.7c-0.2,0.5-0.5,1.1-0.7,1.6c-0.1,0.2-0.2,0.5-0.3,0.7c-0.2,0.5-0.5,1-0.7,1.6c-0.1,0.2-0.2,0.5-0.4,0.7     c-0.2,0.5-0.5,1-0.8,1.5c-0.1,0.3-0.3,0.5-0.4,0.8c-0.3,0.5-0.5,1-0.8,1.4c-0.1,0.3-0.3,0.5-0.4,0.8c-0.3,0.5-0.5,0.9-0.8,1.4     c-0.2,0.3-0.3,0.5-0.5,0.8c-0.3,0.4-0.6,0.9-0.9,1.3c-0.2,0.3-0.4,0.5-0.5,0.8c-0.3,0.4-0.6,0.9-0.9,1.3     c-0.2,0.3-0.4,0.5-0.6,0.8c-0.1,0.1-0.2,0.2-0.3,0.4c8.5-0.7,12.8-1.6,14.4-2v17c-2.4,0.5-13.8,2.5-33.6,3     c-0.3,0.2-0.6,0.4-0.9,0.5c-0.3,0.2-0.6,0.4-1,0.6c-0.4,0.3-0.9,0.5-1.3,0.7c-0.3,0.2-0.6,0.4-0.9,0.5c-0.5,0.3-1,0.5-1.5,0.8     c-0.3,0.1-0.5,0.3-0.8,0.4c-0.8,0.4-1.5,0.8-2.3,1.1h0c-0.7-0.3-1.4-0.7-2.1-1c-0.2-0.1-0.4-0.2-0.6-0.3     c-0.5-0.3-1.1-0.6-1.6-0.8c-0.2-0.1-0.3-0.2-0.5-0.3c-0.7-0.4-1.3-0.7-2-1.1c-0.1-0.1-0.3-0.2-0.4-0.3c-0.5-0.3-1-0.6-1.4-0.9     c-19.7-0.5-31.2-2.5-33.5-3v-5.1c0,0,0,0,0,0c0-0.1,0-0.1,0-0.2v-11.8c1.4,0.3,4.6,1,10.6,1.7c1.2,0.1,2.4,0.2,3.7,0.3     c0,0-0.1-0.1-0.1-0.1c-0.2-0.3-0.5-0.6-0.7-1c-0.2-0.3-0.4-0.6-0.6-0.9c-0.3-0.5-0.7-1-1-1.5c-0.2-0.4-0.5-0.7-0.7-1.1     c-0.2-0.3-0.4-0.6-0.6-0.9c-0.2-0.3-0.4-0.7-0.6-1c-0.2-0.3-0.4-0.6-0.5-0.9c-0.3-0.5-0.6-1.1-0.9-1.7c-0.2-0.3-0.4-0.7-0.5-1     c-0.2-0.4-0.4-0.7-0.6-1.1c-0.1-0.3-0.3-0.6-0.4-0.9c-0.2-0.4-0.4-0.8-0.5-1.1c-0.1-0.3-0.3-0.6-0.4-0.9c-0.3-0.7-0.6-1.3-0.8-2     c-0.1-0.3-0.2-0.6-0.4-0.9c-0.2-0.4-0.3-0.8-0.5-1.2c-0.1-0.3-0.2-0.6-0.3-0.9c-0.1-0.4-0.3-0.8-0.4-1.2c0,0,0,0,0,0     c-0.2-0.6-0.4-1.2-0.6-1.7c-0.1-0.4-0.2-0.8-0.4-1.2c-0.1-0.3-0.2-0.6-0.2-0.8c-0.4-1.5-0.8-3.1-1.1-4.6c0-0.1,0-0.2-0.1-0.3     c-0.5-2.4-0.8-4.9-1.1-7.4c0-0.1,0-0.2,0-0.3c-0.1-0.6-0.1-1.3-0.2-1.9c0-0.3,0-0.6,0-0.9c0-0.5-0.1-1-0.1-1.4c0-0.8,0-1.6,0-2.5     c0-2.8,0-23.6,0-31.9c0-0.4,0-1,0-1.6c0-4.3,0-13.3,0-19.1C57.2,17.2,75,7.1,75,7.1 M75,4l-1.3,0.8l0,0     c-0.2,0.1-17.6,9.7-40.8,9.7h-2.7v2.7v19.1v1.6v31.9c0,0.8,0,1.7,0,2.6c0,0.4,0,0.8,0.1,1.2l0,0.3l0,0.3c0,0.2,0,0.4,0,0.7     c0,0.7,0.1,1.3,0.2,2l0,0.1l0,0.2c0.2,2.6,0.6,5.1,1.1,7.7l0.1,0.3l0,0.1c0.3,1.6,0.7,3.2,1.2,4.8c0.1,0.3,0.2,0.6,0.2,0.9l0,0.1     c0.1,0.4,0.2,0.8,0.4,1.2c0.2,0.6,0.4,1.2,0.6,1.8c0.1,0.4,0.3,0.7,0.4,1.1l0.1,0.2c0.1,0.3,0.2,0.6,0.3,0.9     c0.2,0.4,0.3,0.8,0.5,1.3c0.1,0.3,0.2,0.5,0.3,0.8l0.1,0.1c0.3,0.7,0.6,1.4,0.9,2.1l0.1,0.2c0.1,0.2,0.2,0.5,0.3,0.7     c0.2,0.4,0.4,0.8,0.6,1.2c0.1,0.3,0.3,0.6,0.4,0.9c0.2,0.4,0.4,0.8,0.6,1.2c0.2,0.3,0.3,0.6,0.5,0.9l0.1,0.2     c0.3,0.6,0.6,1.2,1,1.7c0.2,0.3,0.4,0.6,0.5,1c0.2,0.4,0.4,0.7,0.6,1.1c0.1,0.2,0.3,0.5,0.4,0.7c-4.4-0.5-6.9-1.1-8-1.3l-3.4-0.9     v3.5v11.8v0.2v0v5.1v2.3l2.2,0.4c3,0.6,14.1,2.5,33.2,3c0.3,0.2,0.6,0.3,0.8,0.5l0.2,0.1l0.3,0.2c0.7,0.4,1.3,0.8,2,1.2l0.3,0.2     l0.2,0.1c0.5,0.3,1.1,0.6,1.6,0.9l0.1,0c0.2,0.1,0.4,0.2,0.5,0.3c0.8,0.4,1.5,0.7,2.1,1.1l0.6,0.3H75h0.6l0.6-0.3     c0.8-0.4,1.6-0.8,2.4-1.2c0.2-0.1,0.3-0.2,0.5-0.3l0.3-0.2l0.2-0.1c0.4-0.2,0.9-0.5,1.3-0.7c0.2-0.1,0.4-0.2,0.6-0.4l0.3-0.2     l0.3-0.2c0.4-0.2,0.7-0.4,1.1-0.6c0.2-0.1,0.5-0.3,0.7-0.4l0.3-0.2l0.2-0.2c19.7-0.5,31.2-2.6,33.4-3l2.2-0.4v-2.3v-17v-3.5     l-3.4,0.9c-1,0.3-3.5,0.8-8.2,1.4c0.1-0.2,0.2-0.4,0.4-0.6c0.3-0.5,0.6-1,0.9-1.4c0.2-0.3,0.3-0.5,0.5-0.8c0.3-0.5,0.6-1,0.8-1.5     c0.1-0.3,0.3-0.5,0.4-0.8c0.3-0.5,0.5-1,0.8-1.6c0.1-0.3,0.3-0.5,0.4-0.8c0.3-0.5,0.5-1.1,0.8-1.6c0.1-0.2,0.2-0.5,0.3-0.7     c0.2-0.6,0.5-1.1,0.7-1.7c0.1-0.2,0.2-0.4,0.3-0.6l0-0.1c0.2-0.6,0.5-1.2,0.7-1.8c0.1-0.2,0.1-0.4,0.2-0.6l0.1-0.1     c0.2-0.6,0.4-1.2,0.6-1.8c0.1-0.2,0.1-0.3,0.2-0.5l0.1-0.2c0.2-0.6,0.4-1.3,0.6-1.9c0-0.1,0.1-0.3,0.1-0.4l0.1-0.2     c0.2-0.7,0.4-1.3,0.5-2l0.1-0.4l0-0.2c0.2-0.7,0.3-1.4,0.5-2l0.1-0.3l0-0.2c0.1-0.7,0.3-1.4,0.4-2.1l0.1-0.3l0-0.2     c0.1-0.7,0.2-1.5,0.3-2.2l0-0.3l0-0.1c0.1-0.9,0.2-1.6,0.3-2.3l0-0.2l0-0.1c0.1-0.9,0.2-1.7,0.2-2.4l0-0.1     c0.1-1.8,0.2-3.5,0.2-5.1V44v-7.7l0-19.1v-2.7h-2.7c-23.3,0-40.7-9.6-40.8-9.7L75,4L75,4z"/>
		</g>
		<g>
			<path class="st0" d="M117,111.1l-13.7-5.1l5.5-0.7c3.8-0.5,13.2-1.7,17.9-2.6l2.5-0.5l-4.5,11l4.5,8.7l-1.7,0.4     c-1.3,0.3-4.9,1.1-8.8,1.7l-1.6,0.2V111.1z"/>
			<path class="st0" d="M126.9,104l-3.7,9c-0.1,0.2-0.1,0.3,0,0.5l3.9,7.4c-1.5,0.3-4.9,1.1-8.7,1.7v-11.9c0,0,0,0,0,0     c0-0.1,0-0.2-0.1-0.3c0,0,0,0,0,0c0-0.1-0.1-0.1-0.2-0.2c0,0,0,0,0,0c0,0,0,0,0,0c0,0-0.1-0.1-0.1-0.1l-9-3.4     C113.2,106,122.3,104.8,126.9,104 M131.4,100.3l-5,0.9c-4.7,0.9-14,2.1-17.8,2.6l-10.9,1.4l10.3,3.9l7.6,2.9v10.4v3.2l3.1-0.5     c4-0.6,7.6-1.4,9-1.7l3.5-0.8l-1.6-3.1l-3.4-6.5l3.3-8L131.4,100.3L131.4,100.3z"/>
		</g>
		<g>
			<path class="st0" d="M42.7,112.6c-4.3-0.5-7-1-8.6-1.3l-2.7-0.6l12.2-4.7l0,6.6L42.7,112.6z"/>
			<path class="st0" d="M42.7,107.3l0,4.5c-4.2-0.5-6.9-0.9-8.5-1.3L42.7,107.3 M44.4,104.9l-2.2,0.8l-8.5,3.2l-5.2,2l5.5,1.2     c1.6,0.3,4.4,0.8,8.7,1.3l1.8,0.2l0-1.8l0-4.5L44.4,104.9L44.4,104.9z"/>
		</g>
		<g>
			<path class="st0" d="M31.5,123.9c-4-0.6-7.5-1.4-8.8-1.7l-1.7-0.4l4.5-8.7l-4.5-11l2.5,0.5c4.5,0.9,13.1,2,17.9,2.6l5.5,0.7     l-13.7,5.1v13L31.5,123.9z"/>
			<path class="st0" d="M23.2,104c4.7,0.9,13.7,2.1,18,2.6l-9,3.4c0,0,0,0,0,0c0,0-0.1,0-0.1,0.1c0,0,0,0,0,0.1c0,0,0,0,0,0     c-0.1,0.1-0.2,0.3-0.2,0.4v11.9c-3.8-0.6-7.3-1.3-8.7-1.7l3.9-7.4c0.1-0.2,0.1-0.3,0-0.5L23.2,104 M18.7,100.3l1.9,4.7l3.3,8     l-3.4,6.5l-1.6,3.1l3.5,0.8c1.3,0.3,4.9,1.1,8.9,1.7l3.1,0.5v-3.2v-10.4l7.7-2.9l10.3-3.9l-10.9-1.4c-3.8-0.5-13.1-1.7-17.8-2.6     L18.7,100.3L18.7,100.3z"/>
		</g>
		<g>
			<path class="st0" d="M106.4,106l12.3,4.7l-2.7,0.6c-2.4,0.5-5.3,1-8.6,1.3l-0.9,0.1V106z"/>
			<path class="st0" d="M107.2,107.2l8.6,3.2c-1.6,0.3-4.3,0.8-8.6,1.3V107.2 M105.6,104.8v2.4v4.6v1.8l1.8-0.2     c3.4-0.4,6.3-0.8,8.7-1.3l5.5-1.2l-5.2-2l-8.6-3.2L105.6,104.8L105.6,104.8z"/>
		</g>
	</g>
	<g>
		<path d="M32.8,36.2c0-3,0-12.3,0-19.1c24.3,0,42.2-10,42.2-10s17.8,10,42.2,10c0,6.7,0,16.1,0,19.1H32.8z"/>
		<linearGradient id="SVGID_1_" gradientUnits="userSpaceOnUse" x1="42.9239" y1="93.8709" x2="249.0034" y2="-42.138">
			<stop offset="0" style="stop-color:#FFFFFF"/>
			<stop offset="1" style="stop-color:#000000"/>
		</linearGradient>
		<path class="st1" d="M75,136.1c-24.9-11.7-42.2-37-42.2-66.3c0-3,0-26.8,0-33.6c24.3,0,60,0,84.3,0c0,6.7,0,30.6,0,33.6    C117.2,99.1,99.9,124.4,75,136.1L75,136.1z"/>
		<path class="st2" d="M75,136.1c-24.9-11.7-42.2-37-42.2-66.3c0-3,0-26.8,0-33.6c24.3,0,60,0,84.3,0c0,6.7,0,30.6,0,33.6    C117.2,99.1,99.9,124.4,75,136.1L75,136.1z"/>
		<path class="st0" d="M101.9,30.3c0.7,0.2,1.9,0.4,3.1,0.4c1.8,0,3.4-0.3,3.9-2.3c0.7-3.3-3.4-2.4-3-4c0.1-0.6,0.7-0.8,1.5-0.8    c0.8,0,1.4,0.2,1.9,0.3l0.7-1.6c-0.6-0.2-1.2-0.4-2.7-0.4c-1.3,0-3.3,0.3-3.8,2.3c-0.7,3.2,3.4,2.3,3,4c-0.1,0.6-0.7,0.8-1.5,0.8    c-0.8,0-1.8-0.2-2.5-0.3L101.9,30.3z M98.6,24.7l0.2,2.7h-1.7L98.6,24.7z M101.4,30.5l-1.3-8.5h-1.9L93,30.5h2.4l0.8-1.5H99    l0.1,1.5H101.4z M90.1,24.7l0.2,2.7h-1.7L90.1,24.7z M92.9,30.5L91.6,22h-1.9l-5.2,8.5h2.4l0.8-1.5h2.8l0.1,1.5H92.9z M83.5,30.5    l2-8.5h-2.2l-0.8,3.3h-2.9l0.8-3.3h-2.2l-2,8.5h2.2l0.8-3.5h2.9l-0.8,3.5H83.5z M71.6,30.5l0.4-1.7h-3.7l0.4-1.9h2.9l0.4-1.7h-2.9    l0.4-1.6h3.7l0.4-1.7h-5.9l-2,8.5H71.6z M58.3,22l-2,8.5h2.1l1.2-5.1l2.1,5.1h2.1l2-8.5h-2.1l-1.2,5.2L60.4,22H58.3z M54.8,30.5    l0.4-1.7h-3.7l0.4-1.9h2.9l0.4-1.7h-2.9l0.4-1.6h3.7l0.4-1.7h-5.9l-2,8.5H54.8z M45.6,28.9C45.3,29,45,29,44.8,29h-0.2    c-1.5,0-1.6-0.5-1.3-1.6l0.5-2.2c0.3-1.1,0.6-1.6,2.4-1.6h0.2c0.8,0,1.6,0.1,2.2,0.2l0.8-1.6c-1-0.2-1.7-0.3-3-0.3h-0.2    c-2.6,0-4,0.8-4.6,3.3L41,27.3c-0.6,2.5,0.5,3.3,3.3,3.3h0.2c1.1,0,2-0.1,3-0.3l1-4.1h-2.2L45.6,28.9z"/>
		<g>
			
				<image style="overflow:visible;opacity:0.5;" width="573" height="323" xlink:href="74BB509B0BD2EB.png" transform="matrix(0.24 0 0 0.24 4.3955 38.3155)">
			</image>
			<g>
				<path class="st0" d="M102.5,40.8L63,109.2H46.8L56.1,93L6.8,93l8.1-14l49.3,0l22.1-38.2H102.5z M119,40.8L97,79l-11.9,0l-8.1,14      l11.9,0l-9.3,16.1h16.2l39.5-68.3H119z"/>
			</g>
		</g>
		<g>
			<path class="st0" d="M61.1,55.5h-3.6v2.4h-3.3v-4.2h-4.8v2.1h-3.2v2.1h-6.3V68l1,1.5v2.5h6.1v1.2H48v-1.2h6.4v1.2h0.9v-1.2h7.1     l0-2.9l0.5-1.5v-9.8h-1.8V55.5z M60.2,56.4v1.4h-1.8v-1.4H60.2z M56.8,68.5v-9.7H62l0,8.7l-0.4,1H56.8z M47.2,65.2v-4.7h1.5v4.7     H47.2z M51.1,61.6v1H52v-1h0.5v-1.2h0.8v4.7h-3.7v-4.7h0.9v1.2H51.1z M55.8,66.1v2.4h-8.7v-2.4H55.8z M55.8,60.5v4.7h-1.6v-4.7     H55.8z M47.2,57.8v-1.2h2.3v1.2H47.2z M50.4,54.6h2.9v3.2h-2.9L50.4,54.6z M55.8,58.8v0.8h-8.7v-0.8H55.8z M61.5,69.4v1.7H41.9     v-1.7H61.5z M40.8,65.1v-2.9h4.1v-0.9h-4.1v-2.5h5.4v9.7h-4.9l-0.5-0.8V66h4.1v-0.9H40.8z"/>
			<path class="st0" d="M57.5,65.1h3.4v-0.9h-2.5v-0.5h2.7v-4.1h-3.6V65.1z M58.4,62.7v-2.2h1.8v2.2H58.4z"/>
			<path class="st0" d="M74,46.4v-1.1h-1.9c-0.5-0.9-1.4-1.5-2.5-1.5c-0.6,0-1.1,0.2-1.5,0.4c-1-0.4-1.7-0.6-2.9-0.6l-10.4,0V41     c0-0.5-0.4-0.9-0.9-0.9l-0.1,0c-0.7,0.1-6.7,1-7.5,1.3l-3.1,1.1l-0.4-0.7C42.6,41.3,42,41,41.4,41h-6l1.5,4.1h1.7     c-0.3,0.5-0.5,1-0.5,1.6c0,1.6,1.3,2.9,2.9,2.9c0.9,0,1.7-0.4,2.3-1.1h22.3l0-0.4c0-0.1,0-0.5,0.5-0.5h0.5c0.4,1.2,1.5,2,2.8,2     c1.1,0,2-0.6,2.5-1.5c0.1,0.2,0.4,0.4,0.7,0.4h4.6v-2.2H74z M64.4,44.6v1h-7.5v-1H64.4z M41.1,48.9c-1.2,0-2.1-1-2.1-2.1     c0-1.2,1-2.1,2.1-2.1c1.2,0,2.1,1,2.1,2.1C43.2,47.9,42.3,48.9,41.1,48.9z M66.3,46.8c-0.7,0-1.1,0.5-1.3,0.9H43.8     c0.1-0.3,0.2-0.7,0.2-1c0-1.6-1.3-2.9-2.9-2.9c-0.6,0-1.2,0.2-1.7,0.5h-2l-0.9-2.5h4.9c0.3,0,0.5,0.2,0.7,0.4l0.7,1.4l3.8-1.3     c0.6-0.2,4.7-0.9,7.3-1.2c0,0,0,0,0,0.1v2.7l-4.7,0.1c-0.4,0-0.8,0.1-1.2,0.2l-2.9,1l0.2,0.8l2.9-1c0.3-0.1,0.6-0.2,0.9-0.2     l5-0.1v0l1.7,0v1.9h9.1v-1.9c0.9,0,1.4,0.1,2.1,0.4c-0.4,0.5-0.7,1.2-0.7,1.9c0,0,0,0.1,0,0.1H66.3z M69.5,48.9     c-1.2,0-2.1-1-2.1-2.1c0-1.2,1-2.1,2.1-2.1c1.2,0,2.1,1,2.1,2.1c0,0,0,0.1,0,0.1h0v0.2C71.5,48.1,70.6,48.9,69.5,48.9z      M76.5,47.8l-3.8,0c0-0.3-0.1-0.5-0.3-0.7c0-0.1,0-0.2,0-0.3c0-0.2,0-0.4-0.1-0.7h0.8v1.1h3.4V47.8z"/>
			<path class="st0" d="M58.9,43.2c0-1.1-0.9-1.9-1.9-1.9c-1.1,0-1.9,0.9-1.9,1.9v0.4h3.9V43.2z M55.8,42.8c0.2-0.4,0.6-0.7,1.1-0.7     c0.5,0,0.9,0.3,1.1,0.7H55.8z"/>
			<path class="st0" d="M41.1,45.1c-0.9,0-1.6,0.7-1.6,1.6s0.7,1.6,1.6,1.6s1.6-0.7,1.6-1.6S42,45.1,41.1,45.1z M41.1,47.5     c-0.4,0-0.8-0.4-0.8-0.8s0.4-0.8,0.8-0.8s0.8,0.4,0.8,0.8S41.6,47.5,41.1,47.5z"/>
			<path class="st0" d="M69.5,45.1c-0.9,0-1.6,0.7-1.6,1.6s0.7,1.6,1.6,1.6s1.6-0.7,1.6-1.6S70.4,45.1,69.5,45.1z M69.5,47.5     c-0.4,0-0.8-0.4-0.8-0.8s0.4-0.8,0.8-0.8c0.4,0,0.8,0.4,0.8,0.8S70,47.5,69.5,47.5z"/>
		</g>
		<g>
			<g>
				<path class="st3" d="M118.1,110.1C118.1,110.1,118.1,110.1,118.1,110.1C118.2,110.1,118.2,110.1,118.1,110.1      c0.1,0.1,0.2,0.1,0.2,0.2c0,0,0,0,0,0c0,0.1,0.1,0.2,0.1,0.3c0,0,0,0,0,0v11.9c3.8-0.6,7.3-1.3,8.7-1.7l-3.9-7.4      c-0.1-0.2-0.1-0.3,0-0.5l3.7-9c-4.7,0.9-13.7,2.1-18,2.6l9,3.4C118.1,110,118.1,110,118.1,110.1z"/>
				<path class="st3" d="M42.7,111.8l0-4.5l-8.5,3.2C35.8,110.9,38.6,111.3,42.7,111.8z"/>
				<path class="st3" d="M26.9,113.4l-3.9,7.4c1.5,0.3,4.9,1.1,8.7,1.7v-11.9c0-0.2,0.1-0.3,0.2-0.4c0,0,0,0,0,0c0,0,0,0,0-0.1      c0,0,0.1,0,0.1-0.1c0,0,0,0,0,0l9-3.4c-4.3-0.6-13.3-1.8-18-2.6l3.7,9C27,113.1,27,113.3,26.9,113.4z"/>
				<path class="st3" d="M115.8,110.4l-8.6-3.2v4.6C111.5,111.3,114.2,110.8,115.8,110.4z"/>
				<path class="st3" d="M32.9,123.1c0,0,0,0.1,0,0.2c0,0,0,0,0,0v5.1c2.7,0.5,17.1,3.1,42.1,3.1s39.4-2.5,42.1-3.1v-17      c-2.9,0.7-14,3-42.1,3c-12.5,0-23.1-0.4-31.5-1.3c-6-0.6-9.3-1.3-10.6-1.7C32.9,111.3,32.9,123.1,32.9,123.1z"/>
			</g>
			<g>
				<path class="st4" d="M47.5,119.2l-0.1,1.1l-3.7-0.4l-0.2,1.5l3.1,0.3l-0.1,1l-3.1-0.3l-0.2,2.4l-1.4-0.2l0.6-5.9L47.5,119.2z"/>
				<path class="st4" d="M54.2,122.2l-0.1,1c-0.1,1.5-1.3,2.5-3.3,2.3c-1.9-0.1-3-1.3-2.9-2.8l0.1-1c0.1-1.5,1.3-2.5,3.2-2.3      C53.3,119.5,54.3,120.7,54.2,122.2z M52.8,122.1c0.1-1-0.4-1.5-1.5-1.6c-1.1-0.1-1.6,0.4-1.7,1.4l-0.1,1c-0.1,1,0.4,1.6,1.5,1.7      c1.1,0.1,1.7-0.4,1.7-1.4L52.8,122.1z"/>
				<path class="st4" d="M61.6,120.1l-0.2,3.5c-0.1,1.5-1.2,2.5-3.2,2.4c-1.9-0.1-3-1.2-2.9-2.6l0.2-3.6l1.5,0.1l-0.2,3.6      c0,0.9,0.7,1.4,1.5,1.4c1,0.1,1.6-0.4,1.7-1.3l0.2-3.6L61.6,120.1z"/>
				<path class="st4" d="M64.1,120.2l3.3,4l0,0l0.1-3.9l1.3,0l-0.2,6l-1.1,0l-3.4-4l0,0l-0.1,3.9l-1.3,0l0.2-6L64.1,120.2z"/>
				<path class="st4" d="M73.4,120.3c1.9,0,3.1,1.1,3.1,2.6l0,0.9c0,1.5-1.1,2.6-3.1,2.5l-3.1,0l0-6L73.4,120.3z M73.4,121.4l-1.6,0      l0,3.8l1.6,0c1.1,0,1.6-0.5,1.6-1.5l0-0.7C75,121.9,74.5,121.4,73.4,121.4z"/>
				<path class="st4" d="M78.2,126.3l-1.5,0l2.8-6l1.5,0l3,5.9l-1.5,0L82,125l-3.2,0.1L78.2,126.3z M79.2,124l2.4,0l-1.2-2.6l0,0      L79.2,124z"/>
				<path class="st4" d="M89.2,120l0,1.1l-2.1,0.1l0.2,4.8l-1.4,0.1l-0.2-4.8l-2.1,0.1l0-1.1L89.2,120z"/>
				<path class="st4" d="M91.7,119.9l0.3,6l-1.4,0.1l-0.3-6L91.7,119.9z"/>
				<path class="st4" d="M99.4,121.9l0.1,1c0.1,1.5-0.9,2.6-2.9,2.8c-1.9,0.1-3.1-0.8-3.2-2.3l-0.1-1c-0.1-1.5,0.9-2.6,2.9-2.8      C98.1,119.4,99.3,120.4,99.4,121.9z M97.9,122c-0.1-1-0.6-1.5-1.7-1.4c-1.1,0.1-1.6,0.6-1.5,1.6l0.1,1c0.1,1,0.6,1.5,1.7,1.4      c1.1-0.1,1.6-0.6,1.5-1.6L97.9,122z"/>
				<path class="st4" d="M101.5,119.2l3.8,3.5l0,0l-0.4-3.9l1.3-0.1l0.6,5.9l-1.1,0.1l-3.8-3.6l0,0l0.4,3.9l-1.3,0.1l-0.6-5.9      L101.5,119.2z"/>
			</g>
		</g>
	</g>
</g>
</svg>