<svg width="425" height="93" viewBox="0 0 425 93" fill="none" xmlns="http://www.w3.org/2000/svg">
<mask id="path-1-outside-1_630_164" maskUnits="userSpaceOnUse" x="112.91" y="4.16034" width="312" height="84" fill="black">
<rect fill="white" x="112.91" y="4.16034" width="312" height="84"/>
<path d="M196.143 7.98115C195.854 6.2546 194.817 5.21867 192.742 5.27622C192.512 5.27622 192.281 5.39133 192.051 5.44888C191.302 5.73664 190.668 6.36971 190.322 7.06033C189.976 7.86605 190.034 9.07463 190.034 10.2257V51.0872C190.034 52.0081 189.918 53.2166 190.091 54.0224C190.379 55.1158 191.763 56.4971 193.434 56.2093C194.702 55.9791 195.566 55.2885 195.97 54.195C196.258 53.4468 196.085 52.1232 196.085 51.2023V7.98115H196.143ZM165.937 25.3042C165.361 25.3042 164.842 25.4193 164.266 25.4193C163.171 25.6495 162.076 25.8221 161.154 26.225C156.601 28.0091 153.547 31.1169 151.818 35.6634C151.472 36.5843 151.299 37.5626 151.069 38.6561C150.608 40.9582 151.069 43.8357 151.703 45.6198C153.432 50.1089 155.967 53.2166 160.289 55.0583C161.384 55.5187 162.537 55.864 163.862 56.1518C164.323 56.1518 164.785 56.2669 165.303 56.2669C165.822 56.2669 166.398 56.2669 166.917 56.2669C168.473 55.9791 169.798 55.9791 171.066 55.5763C175.734 53.9648 178.961 50.9721 180.805 46.5982C182.246 43.2602 182.188 38.4259 180.805 35.0879C178.5 29.6781 173.659 25.1315 165.937 25.3042ZM175.158 44.6415C174.063 47.1737 171.988 49.0729 169.222 49.9362C168.473 50.1664 167.666 50.224 166.801 50.3391C165.361 50.5693 163.632 49.9362 162.71 49.5334C159.079 48.037 155.333 43.03 157.408 37.6777C158.503 34.8577 160.405 32.9585 163.228 31.865C163.862 31.6924 164.439 31.5773 165.073 31.4046C165.361 31.4046 165.707 31.4046 165.995 31.3471C170.72 31.3471 173.659 33.7642 175.1 37.1022C176.08 39.3467 176.137 42.3394 175.1 44.6415H175.158ZM423.593 25.6495C422.729 24.9588 421.519 24.8437 419.905 24.8437C419.502 24.8437 419.041 24.9013 418.637 24.9588C417.715 25.1315 416.793 25.3042 415.929 25.5919C414.43 26.0523 413.047 26.8005 411.895 27.6638C411.491 28.0091 411.088 28.2968 410.684 28.6421C410.684 25.1315 406.708 24.1531 405.152 26.7429C404.461 27.9515 404.749 31.7499 404.749 33.7067V49.706C404.749 53.1015 404.345 55.6914 407.227 56.2669C409.013 56.6122 410.281 55.2885 410.627 54.0224C410.857 53.1591 410.684 51.8354 410.684 50.857C410.684 48.6125 410.684 46.4256 410.684 44.1811C410.512 41.7639 410.627 38.9439 411.318 37.1598C412.471 34.1671 414.776 31.9801 418.003 31.1169C419.847 30.5989 422.441 31.2895 423.651 30.0809C424.804 28.9875 424.919 26.6854 423.593 25.6495ZM144.203 36.1814C142.301 30.196 136.827 25.2466 128.758 25.3617C128.297 25.3617 127.894 25.4193 127.433 25.4768C126.569 25.6495 125.704 25.7646 124.897 26.0523C121.497 27.1458 118.731 29.1601 116.829 31.8075C115.446 33.7642 114.582 36.0087 114.005 38.8288C113.833 39.7496 113.948 40.9006 113.948 41.9365V81.1291C113.948 84.1794 113.602 86.4814 116.022 87.2296C116.656 87.4023 117.521 87.3447 118.04 87.1145C120.518 86.0786 119.884 82.9708 119.884 79.5752V53.044C121.555 54.195 123.284 55.2309 125.589 55.864C128.413 56.6697 132.331 56.3244 134.694 55.4036C139.362 53.5619 142.647 50.3966 144.203 45.4472C144.722 43.7782 145.24 41.2459 144.837 39.0014C144.664 38.023 144.491 37.0447 144.203 36.1814ZM138.786 42.6272C138.613 43.3753 138.382 44.1235 138.094 44.7566C136.711 47.9219 134.06 49.7636 130.026 50.3391C128.47 50.5693 126.914 50.1089 125.877 49.6484C123.053 48.4974 121.094 46.4256 120.172 43.3753C119.999 42.7423 119.999 42.1668 119.884 41.4186C119.653 40.0949 119.999 38.5986 120.345 37.6777C121.382 34.9728 123.226 32.9585 125.935 31.9226C126.569 31.7499 127.145 31.5773 127.779 31.4046C128.067 31.4046 128.413 31.3471 128.701 31.2895C133.657 31.2895 136.596 33.534 138.037 36.9871C138.613 38.3684 139.132 40.5553 138.728 42.5696L138.786 42.6272ZM381.689 25.3617C381.344 25.3617 380.998 25.3617 380.652 25.4768C379.845 25.5919 379.096 25.707 378.347 25.9372C375.523 26.8005 372.987 28.4695 371.374 30.5989C370.048 32.2679 369.011 34.052 368.319 36.3541C366.187 43.4329 369.645 50.0513 373.564 53.044C376.33 55.1734 381.228 57.0151 386.184 55.8065C388.547 55.231 390.334 54.3101 391.947 53.044C393.042 52.1807 394.483 51.0872 394.771 49.4758C395.117 47.5766 392.984 45.9652 391.14 46.7133C390.276 47.0586 389.873 47.8643 389.181 48.4399C388.201 49.2456 387.106 49.9362 385.781 50.3391C380.825 51.893 376.733 49.2456 374.947 46.3105C374.428 45.5047 373.736 44.3537 373.736 43.0876C379.211 43.0876 384.686 43.0876 390.161 43.0876C392.408 43.0876 395.29 43.4329 396.327 42.2243C397.652 40.5553 396.442 36.4692 395.808 34.8577C393.676 29.5054 389.181 25.3617 381.632 25.4768L381.689 25.3617ZM389.296 37.7353H385.435C381.516 37.7353 377.598 37.7353 373.736 37.7353C373.506 36.9296 374.428 35.3757 374.716 34.9153C375.811 33.1887 377.425 31.9226 379.499 31.2895C380.018 31.1744 380.479 31.0593 380.998 30.9442C381.286 30.9442 381.516 30.9442 381.804 30.8867C385.666 30.8867 388.144 32.2103 389.757 34.3973C390.391 35.2606 391.083 36.2965 391.083 37.7353C390.564 37.8504 389.873 37.7353 389.296 37.7353ZM362.837 50.9146C359.148 46.5407 355.518 42.1092 351.83 37.7353C354.826 35.0879 357.823 32.5556 360.82 29.9658C361.684 28.8724 361.511 26.8005 360.532 25.9948C358.342 24.2107 356.901 25.707 355.403 26.858C353.328 28.5846 351.311 30.2536 349.236 31.9801C348.545 32.5557 347.853 33.1312 347.162 33.7067C346.931 33.8793 346.758 34.1671 346.412 34.2822C346.182 34.052 346.297 33.0736 346.297 32.6132V11.7795C346.297 8.21135 346.758 5.10357 343.07 5.16113C342.782 5.21868 342.494 5.33378 342.206 5.39133C341.572 5.67908 340.938 6.2546 340.65 6.94522C340.361 7.69339 340.419 8.90198 340.419 9.99546V51.2023C340.419 52.1807 340.304 53.3893 340.534 54.195C340.88 55.346 342.148 56.6122 343.877 56.2669C344.972 56.0367 345.836 55.3461 346.182 54.3677C346.528 53.5044 346.355 52.1232 346.355 51.0297V44.066C346.355 43.03 346.355 41.9365 346.355 40.9006C346.355 40.7855 346.355 40.8431 346.47 40.7855C350.043 44.9868 353.559 49.2456 357.132 53.4468C358.169 54.7705 360.07 57.5906 362.606 55.8065C363.413 55.231 364.278 53.7922 363.759 52.3534C363.528 51.8354 363.125 51.375 362.837 50.9146ZM230.382 27.1458C229.979 28.1242 230.151 30.196 230.151 31.5197V38.8863C230.151 40.0949 230.324 41.5337 230.151 42.6847C229.517 46.0803 227.961 48.3823 225.483 49.9362C224.388 50.6268 222.026 51.6628 220.066 51.3174C214.534 50.4542 211.941 47.5191 211.018 42.0517C211.018 38.3684 211.018 34.6851 211.018 31.0018C211.018 29.9083 211.191 28.5846 211.018 27.6062C210.673 26.225 209.693 25.3042 207.964 25.3042C207.734 25.3042 207.503 25.4193 207.273 25.4193C206.523 25.707 205.889 26.2825 205.601 26.9731C205.083 28.1242 205.371 30.8291 205.371 32.383V39.4043C205.371 41.9941 205.371 44.4113 205.947 46.3105C207.561 51.375 211.076 54.8856 216.148 56.4395C218.222 57.0726 221.392 57.3603 223.812 56.7848C225.426 56.382 226.924 55.8065 228.192 55.0583C228.768 54.6554 229.344 54.2526 229.921 53.7922C229.978 53.7346 230.036 53.6771 230.094 53.6195C230.209 53.9648 230.094 54.4828 230.094 54.8281C229.806 56.6122 229.633 58.051 229.114 59.4322C227.097 64.6118 223.293 68.2376 217.819 69.9641C216.608 70.3094 215.398 70.4245 214.015 70.6548C212.978 70.8274 211.768 70.4821 210.788 70.7123C209.29 71.1727 207.907 72.8417 208.771 74.7985C209.232 75.8919 210.212 76.2948 211.595 76.525C212.113 76.525 212.632 76.525 213.151 76.5826C213.785 76.6977 214.649 76.6401 215.225 76.5826C216.666 76.3523 218.107 76.2373 219.375 75.8344C222.199 75.0287 224.504 73.8201 226.636 72.3238C231.131 69.1584 234.07 64.842 235.626 58.6265C236.145 56.5546 236.029 53.9073 236.029 51.375V31.5197C236.029 30.3687 236.202 27.7213 235.857 26.9156C234.877 24.6135 231.477 24.7862 230.555 27.0307L230.382 27.1458ZM315.17 25.3617C314.651 25.3617 314.19 25.4768 313.671 25.4768C312.576 25.707 311.539 25.8797 310.617 26.225C306.237 27.9515 303.068 30.8867 301.339 35.2606C300.186 38.1381 300.013 42.7998 301.166 45.9076C302.952 50.5693 306.18 53.8497 310.905 55.5187C313.21 56.3244 316.668 56.5546 319.319 55.9216C321.797 55.2885 323.584 54.195 325.37 52.9289C325.37 56.2669 329.231 57.3603 330.845 54.8856C331.363 54.0799 331.306 52.8138 331.306 51.4325V44.7566C331.306 42.5696 331.536 40.0373 331.133 38.1381C329.519 30.8867 324.16 25.1891 315.17 25.3617ZM324.563 44.699C323.468 47.3464 321.336 49.3031 318.455 50.1664C317.821 50.3391 317.072 50.3966 316.322 50.5117C314.709 50.7419 313.153 50.1664 312.115 49.7635C308.427 48.1521 304.739 43.1451 306.871 37.5626C307.966 34.7426 309.868 32.8434 312.692 31.7499C313.326 31.5773 313.902 31.4622 314.536 31.2895C314.824 31.2895 315.112 31.2895 315.4 31.232C320.241 31.232 323.123 33.7642 324.563 37.1598C325.485 39.4043 325.543 42.397 324.563 44.699ZM293.148 37.6777C293.148 36.5843 293.148 35.5483 292.975 34.6275C291.707 28.9874 286.981 24.6711 279.893 24.7286C279.605 24.7286 279.259 24.7286 278.971 24.7862C278.279 24.9589 277.588 25.074 276.896 25.2466C274.303 26.0523 272.286 27.5487 270.845 29.5054C270.557 29.9083 270.154 30.3687 269.981 30.8867C269.635 30.5413 269.347 29.7356 269.059 29.2752C268.252 28.1242 267.157 27.2034 265.947 26.4552C265.14 25.9372 264.16 25.6495 263.123 25.3617C259.089 24.2682 255.516 25.9948 253.326 27.7213C252.577 28.2968 252.058 29.1601 251.424 29.8507C251.424 29.4479 251.424 29.045 251.424 28.6421C251.424 27.6062 251.251 26.9156 250.848 26.3401C249.407 24.3258 246.18 25.2466 245.604 27.376C245.431 27.9515 245.546 28.8148 245.546 29.563V52.4685C245.546 53.1015 245.488 53.8497 245.661 54.3677C246.007 55.2885 246.929 55.9791 248.024 56.2093C248.658 56.3244 249.292 56.2093 249.695 55.9791C250.56 55.6338 251.251 54.9432 251.54 53.9648C251.712 53.3317 251.655 52.4685 251.655 51.7203V40.3827C251.655 39.2316 251.539 37.8504 251.77 36.872C252.289 34.6275 253.556 32.9585 255.343 31.9801C256.438 31.4046 257.994 30.714 259.781 31.0018C260.645 31.1169 261.394 31.2895 262.086 31.6348C263.987 32.4405 265.428 33.9944 266.004 36.1238C266.35 37.3324 266.235 39.059 266.235 40.6129V48.555C266.235 51.7779 265.774 54.5403 267.849 55.7489C268.252 55.9791 268.944 56.3244 269.693 56.2093C272.286 55.8065 272.516 54.195 272.516 51.2023V40.2675C272.516 38.9439 272.401 37.4475 272.689 36.3541C273.266 34.2822 274.534 32.901 276.205 31.9226C277.242 31.3471 278.856 30.714 280.585 31.0018C283.869 31.5197 286.117 33.3614 286.924 36.3541C287.212 37.5051 287.154 39.1165 287.154 40.5553V52.1232C287.154 52.8713 287.097 53.6771 287.27 54.2526C287.615 55.1158 288.249 55.6914 289.114 56.0367C289.748 56.2669 290.67 56.3244 291.361 56.0367C293.609 55.1734 293.321 53.2166 293.321 50.1664V37.6202L293.148 37.6777Z"/>
</mask>
<path d="M196.143 7.98115C195.854 6.2546 194.817 5.21867 192.742 5.27622C192.512 5.27622 192.281 5.39133 192.051 5.44888C191.302 5.73664 190.668 6.36971 190.322 7.06033C189.976 7.86605 190.034 9.07463 190.034 10.2257V51.0872C190.034 52.0081 189.918 53.2166 190.091 54.0224C190.379 55.1158 191.763 56.4971 193.434 56.2093C194.702 55.9791 195.566 55.2885 195.97 54.195C196.258 53.4468 196.085 52.1232 196.085 51.2023V7.98115H196.143ZM165.937 25.3042C165.361 25.3042 164.842 25.4193 164.266 25.4193C163.171 25.6495 162.076 25.8221 161.154 26.225C156.601 28.0091 153.547 31.1169 151.818 35.6634C151.472 36.5843 151.299 37.5626 151.069 38.6561C150.608 40.9582 151.069 43.8357 151.703 45.6198C153.432 50.1089 155.967 53.2166 160.289 55.0583C161.384 55.5187 162.537 55.864 163.862 56.1518C164.323 56.1518 164.785 56.2669 165.303 56.2669C165.822 56.2669 166.398 56.2669 166.917 56.2669C168.473 55.9791 169.798 55.9791 171.066 55.5763C175.734 53.9648 178.961 50.9721 180.805 46.5982C182.246 43.2602 182.188 38.4259 180.805 35.0879C178.5 29.6781 173.659 25.1315 165.937 25.3042ZM175.158 44.6415C174.063 47.1737 171.988 49.0729 169.222 49.9362C168.473 50.1664 167.666 50.224 166.801 50.3391C165.361 50.5693 163.632 49.9362 162.71 49.5334C159.079 48.037 155.333 43.03 157.408 37.6777C158.503 34.8577 160.405 32.9585 163.228 31.865C163.862 31.6924 164.439 31.5773 165.073 31.4046C165.361 31.4046 165.707 31.4046 165.995 31.3471C170.72 31.3471 173.659 33.7642 175.1 37.1022C176.08 39.3467 176.137 42.3394 175.1 44.6415H175.158ZM423.593 25.6495C422.729 24.9588 421.519 24.8437 419.905 24.8437C419.502 24.8437 419.041 24.9013 418.637 24.9588C417.715 25.1315 416.793 25.3042 415.929 25.5919C414.43 26.0523 413.047 26.8005 411.895 27.6638C411.491 28.0091 411.088 28.2968 410.684 28.6421C410.684 25.1315 406.708 24.1531 405.152 26.7429C404.461 27.9515 404.749 31.7499 404.749 33.7067V49.706C404.749 53.1015 404.345 55.6914 407.227 56.2669C409.013 56.6122 410.281 55.2885 410.627 54.0224C410.857 53.1591 410.684 51.8354 410.684 50.857C410.684 48.6125 410.684 46.4256 410.684 44.1811C410.512 41.7639 410.627 38.9439 411.318 37.1598C412.471 34.1671 414.776 31.9801 418.003 31.1169C419.847 30.5989 422.441 31.2895 423.651 30.0809C424.804 28.9875 424.919 26.6854 423.593 25.6495ZM144.203 36.1814C142.301 30.196 136.827 25.2466 128.758 25.3617C128.297 25.3617 127.894 25.4193 127.433 25.4768C126.569 25.6495 125.704 25.7646 124.897 26.0523C121.497 27.1458 118.731 29.1601 116.829 31.8075C115.446 33.7642 114.582 36.0087 114.005 38.8288C113.833 39.7496 113.948 40.9006 113.948 41.9365V81.1291C113.948 84.1794 113.602 86.4814 116.022 87.2296C116.656 87.4023 117.521 87.3447 118.04 87.1145C120.518 86.0786 119.884 82.9708 119.884 79.5752V53.044C121.555 54.195 123.284 55.2309 125.589 55.864C128.413 56.6697 132.331 56.3244 134.694 55.4036C139.362 53.5619 142.647 50.3966 144.203 45.4472C144.722 43.7782 145.24 41.2459 144.837 39.0014C144.664 38.023 144.491 37.0447 144.203 36.1814ZM138.786 42.6272C138.613 43.3753 138.382 44.1235 138.094 44.7566C136.711 47.9219 134.06 49.7636 130.026 50.3391C128.47 50.5693 126.914 50.1089 125.877 49.6484C123.053 48.4974 121.094 46.4256 120.172 43.3753C119.999 42.7423 119.999 42.1668 119.884 41.4186C119.653 40.0949 119.999 38.5986 120.345 37.6777C121.382 34.9728 123.226 32.9585 125.935 31.9226C126.569 31.7499 127.145 31.5773 127.779 31.4046C128.067 31.4046 128.413 31.3471 128.701 31.2895C133.657 31.2895 136.596 33.534 138.037 36.9871C138.613 38.3684 139.132 40.5553 138.728 42.5696L138.786 42.6272ZM381.689 25.3617C381.344 25.3617 380.998 25.3617 380.652 25.4768C379.845 25.5919 379.096 25.707 378.347 25.9372C375.523 26.8005 372.987 28.4695 371.374 30.5989C370.048 32.2679 369.011 34.052 368.319 36.3541C366.187 43.4329 369.645 50.0513 373.564 53.044C376.33 55.1734 381.228 57.0151 386.184 55.8065C388.547 55.231 390.334 54.3101 391.947 53.044C393.042 52.1807 394.483 51.0872 394.771 49.4758C395.117 47.5766 392.984 45.9652 391.14 46.7133C390.276 47.0586 389.873 47.8643 389.181 48.4399C388.201 49.2456 387.106 49.9362 385.781 50.3391C380.825 51.893 376.733 49.2456 374.947 46.3105C374.428 45.5047 373.736 44.3537 373.736 43.0876C379.211 43.0876 384.686 43.0876 390.161 43.0876C392.408 43.0876 395.29 43.4329 396.327 42.2243C397.652 40.5553 396.442 36.4692 395.808 34.8577C393.676 29.5054 389.181 25.3617 381.632 25.4768L381.689 25.3617ZM389.296 37.7353H385.435C381.516 37.7353 377.598 37.7353 373.736 37.7353C373.506 36.9296 374.428 35.3757 374.716 34.9153C375.811 33.1887 377.425 31.9226 379.499 31.2895C380.018 31.1744 380.479 31.0593 380.998 30.9442C381.286 30.9442 381.516 30.9442 381.804 30.8867C385.666 30.8867 388.144 32.2103 389.757 34.3973C390.391 35.2606 391.083 36.2965 391.083 37.7353C390.564 37.8504 389.873 37.7353 389.296 37.7353ZM362.837 50.9146C359.148 46.5407 355.518 42.1092 351.83 37.7353C354.826 35.0879 357.823 32.5556 360.82 29.9658C361.684 28.8724 361.511 26.8005 360.532 25.9948C358.342 24.2107 356.901 25.707 355.403 26.858C353.328 28.5846 351.311 30.2536 349.236 31.9801C348.545 32.5557 347.853 33.1312 347.162 33.7067C346.931 33.8793 346.758 34.1671 346.412 34.2822C346.182 34.052 346.297 33.0736 346.297 32.6132V11.7795C346.297 8.21135 346.758 5.10357 343.07 5.16113C342.782 5.21868 342.494 5.33378 342.206 5.39133C341.572 5.67908 340.938 6.2546 340.65 6.94522C340.361 7.69339 340.419 8.90198 340.419 9.99546V51.2023C340.419 52.1807 340.304 53.3893 340.534 54.195C340.88 55.346 342.148 56.6122 343.877 56.2669C344.972 56.0367 345.836 55.3461 346.182 54.3677C346.528 53.5044 346.355 52.1232 346.355 51.0297V44.066C346.355 43.03 346.355 41.9365 346.355 40.9006C346.355 40.7855 346.355 40.8431 346.47 40.7855C350.043 44.9868 353.559 49.2456 357.132 53.4468C358.169 54.7705 360.07 57.5906 362.606 55.8065C363.413 55.231 364.278 53.7922 363.759 52.3534C363.528 51.8354 363.125 51.375 362.837 50.9146ZM230.382 27.1458C229.979 28.1242 230.151 30.196 230.151 31.5197V38.8863C230.151 40.0949 230.324 41.5337 230.151 42.6847C229.517 46.0803 227.961 48.3823 225.483 49.9362C224.388 50.6268 222.026 51.6628 220.066 51.3174C214.534 50.4542 211.941 47.5191 211.018 42.0517C211.018 38.3684 211.018 34.6851 211.018 31.0018C211.018 29.9083 211.191 28.5846 211.018 27.6062C210.673 26.225 209.693 25.3042 207.964 25.3042C207.734 25.3042 207.503 25.4193 207.273 25.4193C206.523 25.707 205.889 26.2825 205.601 26.9731C205.083 28.1242 205.371 30.8291 205.371 32.383V39.4043C205.371 41.9941 205.371 44.4113 205.947 46.3105C207.561 51.375 211.076 54.8856 216.148 56.4395C218.222 57.0726 221.392 57.3603 223.812 56.7848C225.426 56.382 226.924 55.8065 228.192 55.0583C228.768 54.6554 229.344 54.2526 229.921 53.7922C229.978 53.7346 230.036 53.6771 230.094 53.6195C230.209 53.9648 230.094 54.4828 230.094 54.8281C229.806 56.6122 229.633 58.051 229.114 59.4322C227.097 64.6118 223.293 68.2376 217.819 69.9641C216.608 70.3094 215.398 70.4245 214.015 70.6548C212.978 70.8274 211.768 70.4821 210.788 70.7123C209.29 71.1727 207.907 72.8417 208.771 74.7985C209.232 75.8919 210.212 76.2948 211.595 76.525C212.113 76.525 212.632 76.525 213.151 76.5826C213.785 76.6977 214.649 76.6401 215.225 76.5826C216.666 76.3523 218.107 76.2373 219.375 75.8344C222.199 75.0287 224.504 73.8201 226.636 72.3238C231.131 69.1584 234.07 64.842 235.626 58.6265C236.145 56.5546 236.029 53.9073 236.029 51.375V31.5197C236.029 30.3687 236.202 27.7213 235.857 26.9156C234.877 24.6135 231.477 24.7862 230.555 27.0307L230.382 27.1458ZM315.17 25.3617C314.651 25.3617 314.19 25.4768 313.671 25.4768C312.576 25.707 311.539 25.8797 310.617 26.225C306.237 27.9515 303.068 30.8867 301.339 35.2606C300.186 38.1381 300.013 42.7998 301.166 45.9076C302.952 50.5693 306.18 53.8497 310.905 55.5187C313.21 56.3244 316.668 56.5546 319.319 55.9216C321.797 55.2885 323.584 54.195 325.37 52.9289C325.37 56.2669 329.231 57.3603 330.845 54.8856C331.363 54.0799 331.306 52.8138 331.306 51.4325V44.7566C331.306 42.5696 331.536 40.0373 331.133 38.1381C329.519 30.8867 324.16 25.1891 315.17 25.3617ZM324.563 44.699C323.468 47.3464 321.336 49.3031 318.455 50.1664C317.821 50.3391 317.072 50.3966 316.322 50.5117C314.709 50.7419 313.153 50.1664 312.115 49.7635C308.427 48.1521 304.739 43.1451 306.871 37.5626C307.966 34.7426 309.868 32.8434 312.692 31.7499C313.326 31.5773 313.902 31.4622 314.536 31.2895C314.824 31.2895 315.112 31.2895 315.4 31.232C320.241 31.232 323.123 33.7642 324.563 37.1598C325.485 39.4043 325.543 42.397 324.563 44.699ZM293.148 37.6777C293.148 36.5843 293.148 35.5483 292.975 34.6275C291.707 28.9874 286.981 24.6711 279.893 24.7286C279.605 24.7286 279.259 24.7286 278.971 24.7862C278.279 24.9589 277.588 25.074 276.896 25.2466C274.303 26.0523 272.286 27.5487 270.845 29.5054C270.557 29.9083 270.154 30.3687 269.981 30.8867C269.635 30.5413 269.347 29.7356 269.059 29.2752C268.252 28.1242 267.157 27.2034 265.947 26.4552C265.14 25.9372 264.16 25.6495 263.123 25.3617C259.089 24.2682 255.516 25.9948 253.326 27.7213C252.577 28.2968 252.058 29.1601 251.424 29.8507C251.424 29.4479 251.424 29.045 251.424 28.6421C251.424 27.6062 251.251 26.9156 250.848 26.3401C249.407 24.3258 246.18 25.2466 245.604 27.376C245.431 27.9515 245.546 28.8148 245.546 29.563V52.4685C245.546 53.1015 245.488 53.8497 245.661 54.3677C246.007 55.2885 246.929 55.9791 248.024 56.2093C248.658 56.3244 249.292 56.2093 249.695 55.9791C250.56 55.6338 251.251 54.9432 251.54 53.9648C251.712 53.3317 251.655 52.4685 251.655 51.7203V40.3827C251.655 39.2316 251.539 37.8504 251.77 36.872C252.289 34.6275 253.556 32.9585 255.343 31.9801C256.438 31.4046 257.994 30.714 259.781 31.0018C260.645 31.1169 261.394 31.2895 262.086 31.6348C263.987 32.4405 265.428 33.9944 266.004 36.1238C266.35 37.3324 266.235 39.059 266.235 40.6129V48.555C266.235 51.7779 265.774 54.5403 267.849 55.7489C268.252 55.9791 268.944 56.3244 269.693 56.2093C272.286 55.8065 272.516 54.195 272.516 51.2023V40.2675C272.516 38.9439 272.401 37.4475 272.689 36.3541C273.266 34.2822 274.534 32.901 276.205 31.9226C277.242 31.3471 278.856 30.714 280.585 31.0018C283.869 31.5197 286.117 33.3614 286.924 36.3541C287.212 37.5051 287.154 39.1165 287.154 40.5553V52.1232C287.154 52.8713 287.097 53.6771 287.27 54.2526C287.615 55.1158 288.249 55.6914 289.114 56.0367C289.748 56.2669 290.67 56.3244 291.361 56.0367C293.609 55.1734 293.321 53.2166 293.321 50.1664V37.6202L293.148 37.6777Z" fill="#00C0C6"/>
<path d="M196.143 7.98115C195.854 6.2546 194.817 5.21867 192.742 5.27622C192.512 5.27622 192.281 5.39133 192.051 5.44888C191.302 5.73664 190.668 6.36971 190.322 7.06033C189.976 7.86605 190.034 9.07463 190.034 10.2257V51.0872C190.034 52.0081 189.918 53.2166 190.091 54.0224C190.379 55.1158 191.763 56.4971 193.434 56.2093C194.702 55.9791 195.566 55.2885 195.97 54.195C196.258 53.4468 196.085 52.1232 196.085 51.2023V7.98115H196.143ZM165.937 25.3042C165.361 25.3042 164.842 25.4193 164.266 25.4193C163.171 25.6495 162.076 25.8221 161.154 26.225C156.601 28.0091 153.547 31.1169 151.818 35.6634C151.472 36.5843 151.299 37.5626 151.069 38.6561C150.608 40.9582 151.069 43.8357 151.703 45.6198C153.432 50.1089 155.967 53.2166 160.289 55.0583C161.384 55.5187 162.537 55.864 163.862 56.1518C164.323 56.1518 164.785 56.2669 165.303 56.2669C165.822 56.2669 166.398 56.2669 166.917 56.2669C168.473 55.9791 169.798 55.9791 171.066 55.5763C175.734 53.9648 178.961 50.9721 180.805 46.5982C182.246 43.2602 182.188 38.4259 180.805 35.0879C178.5 29.6781 173.659 25.1315 165.937 25.3042ZM175.158 44.6415C174.063 47.1737 171.988 49.0729 169.222 49.9362C168.473 50.1664 167.666 50.224 166.801 50.3391C165.361 50.5693 163.632 49.9362 162.71 49.5334C159.079 48.037 155.333 43.03 157.408 37.6777C158.503 34.8577 160.405 32.9585 163.228 31.865C163.862 31.6924 164.439 31.5773 165.073 31.4046C165.361 31.4046 165.707 31.4046 165.995 31.3471C170.72 31.3471 173.659 33.7642 175.1 37.1022C176.08 39.3467 176.137 42.3394 175.1 44.6415H175.158ZM423.593 25.6495C422.729 24.9588 421.519 24.8437 419.905 24.8437C419.502 24.8437 419.041 24.9013 418.637 24.9588C417.715 25.1315 416.793 25.3042 415.929 25.5919C414.43 26.0523 413.047 26.8005 411.895 27.6638C411.491 28.0091 411.088 28.2968 410.684 28.6421C410.684 25.1315 406.708 24.1531 405.152 26.7429C404.461 27.9515 404.749 31.7499 404.749 33.7067V49.706C404.749 53.1015 404.345 55.6914 407.227 56.2669C409.013 56.6122 410.281 55.2885 410.627 54.0224C410.857 53.1591 410.684 51.8354 410.684 50.857C410.684 48.6125 410.684 46.4256 410.684 44.1811C410.512 41.7639 410.627 38.9439 411.318 37.1598C412.471 34.1671 414.776 31.9801 418.003 31.1169C419.847 30.5989 422.441 31.2895 423.651 30.0809C424.804 28.9875 424.919 26.6854 423.593 25.6495ZM144.203 36.1814C142.301 30.196 136.827 25.2466 128.758 25.3617C128.297 25.3617 127.894 25.4193 127.433 25.4768C126.569 25.6495 125.704 25.7646 124.897 26.0523C121.497 27.1458 118.731 29.1601 116.829 31.8075C115.446 33.7642 114.582 36.0087 114.005 38.8288C113.833 39.7496 113.948 40.9006 113.948 41.9365V81.1291C113.948 84.1794 113.602 86.4814 116.022 87.2296C116.656 87.4023 117.521 87.3447 118.04 87.1145C120.518 86.0786 119.884 82.9708 119.884 79.5752V53.044C121.555 54.195 123.284 55.2309 125.589 55.864C128.413 56.6697 132.331 56.3244 134.694 55.4036C139.362 53.5619 142.647 50.3966 144.203 45.4472C144.722 43.7782 145.24 41.2459 144.837 39.0014C144.664 38.023 144.491 37.0447 144.203 36.1814ZM138.786 42.6272C138.613 43.3753 138.382 44.1235 138.094 44.7566C136.711 47.9219 134.06 49.7636 130.026 50.3391C128.47 50.5693 126.914 50.1089 125.877 49.6484C123.053 48.4974 121.094 46.4256 120.172 43.3753C119.999 42.7423 119.999 42.1668 119.884 41.4186C119.653 40.0949 119.999 38.5986 120.345 37.6777C121.382 34.9728 123.226 32.9585 125.935 31.9226C126.569 31.7499 127.145 31.5773 127.779 31.4046C128.067 31.4046 128.413 31.3471 128.701 31.2895C133.657 31.2895 136.596 33.534 138.037 36.9871C138.613 38.3684 139.132 40.5553 138.728 42.5696L138.786 42.6272ZM381.689 25.3617C381.344 25.3617 380.998 25.3617 380.652 25.4768C379.845 25.5919 379.096 25.707 378.347 25.9372C375.523 26.8005 372.987 28.4695 371.374 30.5989C370.048 32.2679 369.011 34.052 368.319 36.3541C366.187 43.4329 369.645 50.0513 373.564 53.044C376.33 55.1734 381.228 57.0151 386.184 55.8065C388.547 55.231 390.334 54.3101 391.947 53.044C393.042 52.1807 394.483 51.0872 394.771 49.4758C395.117 47.5766 392.984 45.9652 391.14 46.7133C390.276 47.0586 389.873 47.8643 389.181 48.4399C388.201 49.2456 387.106 49.9362 385.781 50.3391C380.825 51.893 376.733 49.2456 374.947 46.3105C374.428 45.5047 373.736 44.3537 373.736 43.0876C379.211 43.0876 384.686 43.0876 390.161 43.0876C392.408 43.0876 395.29 43.4329 396.327 42.2243C397.652 40.5553 396.442 36.4692 395.808 34.8577C393.676 29.5054 389.181 25.3617 381.632 25.4768L381.689 25.3617ZM389.296 37.7353H385.435C381.516 37.7353 377.598 37.7353 373.736 37.7353C373.506 36.9296 374.428 35.3757 374.716 34.9153C375.811 33.1887 377.425 31.9226 379.499 31.2895C380.018 31.1744 380.479 31.0593 380.998 30.9442C381.286 30.9442 381.516 30.9442 381.804 30.8867C385.666 30.8867 388.144 32.2103 389.757 34.3973C390.391 35.2606 391.083 36.2965 391.083 37.7353C390.564 37.8504 389.873 37.7353 389.296 37.7353ZM362.837 50.9146C359.148 46.5407 355.518 42.1092 351.83 37.7353C354.826 35.0879 357.823 32.5556 360.82 29.9658C361.684 28.8724 361.511 26.8005 360.532 25.9948C358.342 24.2107 356.901 25.707 355.403 26.858C353.328 28.5846 351.311 30.2536 349.236 31.9801C348.545 32.5557 347.853 33.1312 347.162 33.7067C346.931 33.8793 346.758 34.1671 346.412 34.2822C346.182 34.052 346.297 33.0736 346.297 32.6132V11.7795C346.297 8.21135 346.758 5.10357 343.07 5.16113C342.782 5.21868 342.494 5.33378 342.206 5.39133C341.572 5.67908 340.938 6.2546 340.65 6.94522C340.361 7.69339 340.419 8.90198 340.419 9.99546V51.2023C340.419 52.1807 340.304 53.3893 340.534 54.195C340.88 55.346 342.148 56.6122 343.877 56.2669C344.972 56.0367 345.836 55.3461 346.182 54.3677C346.528 53.5044 346.355 52.1232 346.355 51.0297V44.066C346.355 43.03 346.355 41.9365 346.355 40.9006C346.355 40.7855 346.355 40.8431 346.47 40.7855C350.043 44.9868 353.559 49.2456 357.132 53.4468C358.169 54.7705 360.07 57.5906 362.606 55.8065C363.413 55.231 364.278 53.7922 363.759 52.3534C363.528 51.8354 363.125 51.375 362.837 50.9146ZM230.382 27.1458C229.979 28.1242 230.151 30.196 230.151 31.5197V38.8863C230.151 40.0949 230.324 41.5337 230.151 42.6847C229.517 46.0803 227.961 48.3823 225.483 49.9362C224.388 50.6268 222.026 51.6628 220.066 51.3174C214.534 50.4542 211.941 47.5191 211.018 42.0517C211.018 38.3684 211.018 34.6851 211.018 31.0018C211.018 29.9083 211.191 28.5846 211.018 27.6062C210.673 26.225 209.693 25.3042 207.964 25.3042C207.734 25.3042 207.503 25.4193 207.273 25.4193C206.523 25.707 205.889 26.2825 205.601 26.9731C205.083 28.1242 205.371 30.8291 205.371 32.383V39.4043C205.371 41.9941 205.371 44.4113 205.947 46.3105C207.561 51.375 211.076 54.8856 216.148 56.4395C218.222 57.0726 221.392 57.3603 223.812 56.7848C225.426 56.382 226.924 55.8065 228.192 55.0583C228.768 54.6554 229.344 54.2526 229.921 53.7922C229.978 53.7346 230.036 53.6771 230.094 53.6195C230.209 53.9648 230.094 54.4828 230.094 54.8281C229.806 56.6122 229.633 58.051 229.114 59.4322C227.097 64.6118 223.293 68.2376 217.819 69.9641C216.608 70.3094 215.398 70.4245 214.015 70.6548C212.978 70.8274 211.768 70.4821 210.788 70.7123C209.29 71.1727 207.907 72.8417 208.771 74.7985C209.232 75.8919 210.212 76.2948 211.595 76.525C212.113 76.525 212.632 76.525 213.151 76.5826C213.785 76.6977 214.649 76.6401 215.225 76.5826C216.666 76.3523 218.107 76.2373 219.375 75.8344C222.199 75.0287 224.504 73.8201 226.636 72.3238C231.131 69.1584 234.07 64.842 235.626 58.6265C236.145 56.5546 236.029 53.9073 236.029 51.375V31.5197C236.029 30.3687 236.202 27.7213 235.857 26.9156C234.877 24.6135 231.477 24.7862 230.555 27.0307L230.382 27.1458ZM315.17 25.3617C314.651 25.3617 314.19 25.4768 313.671 25.4768C312.576 25.707 311.539 25.8797 310.617 26.225C306.237 27.9515 303.068 30.8867 301.339 35.2606C300.186 38.1381 300.013 42.7998 301.166 45.9076C302.952 50.5693 306.18 53.8497 310.905 55.5187C313.21 56.3244 316.668 56.5546 319.319 55.9216C321.797 55.2885 323.584 54.195 325.37 52.9289C325.37 56.2669 329.231 57.3603 330.845 54.8856C331.363 54.0799 331.306 52.8138 331.306 51.4325V44.7566C331.306 42.5696 331.536 40.0373 331.133 38.1381C329.519 30.8867 324.16 25.1891 315.17 25.3617ZM324.563 44.699C323.468 47.3464 321.336 49.3031 318.455 50.1664C317.821 50.3391 317.072 50.3966 316.322 50.5117C314.709 50.7419 313.153 50.1664 312.115 49.7635C308.427 48.1521 304.739 43.1451 306.871 37.5626C307.966 34.7426 309.868 32.8434 312.692 31.7499C313.326 31.5773 313.902 31.4622 314.536 31.2895C314.824 31.2895 315.112 31.2895 315.4 31.232C320.241 31.232 323.123 33.7642 324.563 37.1598C325.485 39.4043 325.543 42.397 324.563 44.699ZM293.148 37.6777C293.148 36.5843 293.148 35.5483 292.975 34.6275C291.707 28.9874 286.981 24.6711 279.893 24.7286C279.605 24.7286 279.259 24.7286 278.971 24.7862C278.279 24.9589 277.588 25.074 276.896 25.2466C274.303 26.0523 272.286 27.5487 270.845 29.5054C270.557 29.9083 270.154 30.3687 269.981 30.8867C269.635 30.5413 269.347 29.7356 269.059 29.2752C268.252 28.1242 267.157 27.2034 265.947 26.4552C265.14 25.9372 264.16 25.6495 263.123 25.3617C259.089 24.2682 255.516 25.9948 253.326 27.7213C252.577 28.2968 252.058 29.1601 251.424 29.8507C251.424 29.4479 251.424 29.045 251.424 28.6421C251.424 27.6062 251.251 26.9156 250.848 26.3401C249.407 24.3258 246.18 25.2466 245.604 27.376C245.431 27.9515 245.546 28.8148 245.546 29.563V52.4685C245.546 53.1015 245.488 53.8497 245.661 54.3677C246.007 55.2885 246.929 55.9791 248.024 56.2093C248.658 56.3244 249.292 56.2093 249.695 55.9791C250.56 55.6338 251.251 54.9432 251.54 53.9648C251.712 53.3317 251.655 52.4685 251.655 51.7203V40.3827C251.655 39.2316 251.539 37.8504 251.77 36.872C252.289 34.6275 253.556 32.9585 255.343 31.9801C256.438 31.4046 257.994 30.714 259.781 31.0018C260.645 31.1169 261.394 31.2895 262.086 31.6348C263.987 32.4405 265.428 33.9944 266.004 36.1238C266.35 37.3324 266.235 39.059 266.235 40.6129V48.555C266.235 51.7779 265.774 54.5403 267.849 55.7489C268.252 55.9791 268.944 56.3244 269.693 56.2093C272.286 55.8065 272.516 54.195 272.516 51.2023V40.2675C272.516 38.9439 272.401 37.4475 272.689 36.3541C273.266 34.2822 274.534 32.901 276.205 31.9226C277.242 31.3471 278.856 30.714 280.585 31.0018C283.869 31.5197 286.117 33.3614 286.924 36.3541C287.212 37.5051 287.154 39.1165 287.154 40.5553V52.1232C287.154 52.8713 287.097 53.6771 287.27 54.2526C287.615 55.1158 288.249 55.6914 289.114 56.0367C289.748 56.2669 290.67 56.3244 291.361 56.0367C293.609 55.1734 293.321 53.2166 293.321 50.1664V37.6202L293.148 37.6777Z" stroke="#00C0C6" stroke-width="0.6" mask="url(#path-1-outside-1_630_164)"/>
<path d="M74.3304 9.32166C74.3304 9.32166 68.7546 4.56085 59.5332 1.85877C59.4046 1.85877 59.2331 1.77299 59.1044 1.7301C58.7613 1.64432 58.3752 1.51565 57.9892 1.42987C53.4429 0.271829 48.1245 -0.371527 42.1627 0.228936C41.4765 0.314717 40.8331 0.400503 40.1469 0.486283C24.9638 2.5879 12.1396 11.9809 5.32006 25.0624C4.97694 25.7057 4.63377 26.3491 4.33354 27.0353C4.16197 27.3784 4.03337 27.7216 3.86181 28.0647C3.73314 28.322 3.64728 28.5794 3.51861 28.8796C3.47572 29.0083 3.39003 29.1369 3.34714 29.2656C3.34714 29.2656 -0.0841985 35.9136 0.00158193 46.4646C0.00158193 46.5075 0.00158193 46.5504 0.00158193 46.6362C0.00158193 53.1984 1.37413 59.4603 3.81887 65.1218C3.90465 65.3363 3.99042 65.5507 4.0762 65.7652C4.0762 65.7652 5.40581 69.4966 9.18015 74.429C12.9116 79.4472 17.6724 83.6933 23.0765 86.8672C24.1059 87.4676 25.1782 88.0252 26.2505 88.5828C27.623 89.0117 30.1106 89.2261 31.0113 85.6234V47.7942C31.0113 47.7942 30.4967 38.4012 37.6593 34.1122C37.6593 34.1122 38.6457 33.3402 40.4042 32.5682C42.8919 31.5388 46.8807 30.5952 51.6844 32.1821C51.6844 32.1821 56.1879 33.5546 59.2331 37.8865C59.2331 37.8865 59.5333 38.5299 59.8335 38.4441C59.9622 38.4441 60.048 38.3155 60.1337 38.0152C60.1337 38.0152 62.8787 31.2386 71.4567 28.2362C71.4567 28.2362 79.563 25.4913 87.4548 29.9947C87.4548 29.9947 88.8701 30.8526 89.9424 31.7961L90.3713 32.225C90.3713 32.225 90.5857 32.4824 90.7573 32.3108C90.7573 32.3108 86.3396 17.8139 74.2875 9.40745L74.3304 9.32166Z" fill="#00C0C6"/>
<path d="M92.8968 46.2513C91.5672 34.4565 80.1584 32.8267 80.1584 32.8267C72.6955 31.6687 67.5915 36.3008 67.5915 36.3008C63.5598 39.1316 62.4448 43.7637 62.1445 46.4229C62.0159 47.6667 62.024 46.893 62.024 46.893C62.1098 51.611 58.7214 56.1144 58.7214 56.1144C55.5046 59.9317 51.8589 61.3042 49.3284 61.7759C47.527 62.1191 46.2832 61.9904 46.2832 61.9904C39.6781 62.162 36.8027 57.5298 36.8027 57.5298C36.6311 57.3154 36.5454 57.5298 36.5454 57.5298L36.6097 71.0402L36.674 84.5507C36.674 88.0677 34.3151 90.7268 34.3151 90.7268C34.0578 90.8984 34.0149 91.0271 34.1007 91.1129C34.2294 91.2844 34.7011 91.3702 34.7011 91.3702C39.3332 92.7427 42.3374 93 46.3261 93C46.4119 93 46.4977 93 46.5835 93C46.6693 93 46.798 93 46.8837 93C47.0982 93 47.3555 93 47.57 93C48.4707 93 49.2855 92.9142 50.1433 92.8714C53.0598 92.6569 55.8477 92.1851 58.5927 91.456C59.5363 91.1986 60.3941 90.9413 61.1661 90.7268C61.595 90.5982 62.0668 90.4266 62.4957 90.2979C62.4957 90.2979 62.5815 90.2979 62.6244 90.255C63.5251 89.9119 64.2114 89.6546 64.6832 89.4401C64.6832 89.4401 64.726 89.4401 64.7689 89.3972C64.8976 89.3544 65.0262 89.2686 65.1549 89.2257C65.2407 89.2257 65.2835 89.1828 65.2835 89.1828C85.0988 80.0901 90.6317 61.2613 90.6317 61.2613C93.5911 52.7261 92.8191 44.7485 92.8191 44.7485L92.8968 46.2513Z" fill="#00C0C6"/>
</svg>
