<?xml version="1.0" encoding="UTF-8"?><svg id="Logos" xmlns="http://www.w3.org/2000/svg" xmlns:xlink="http://www.w3.org/1999/xlink" viewBox="0 0 236.43 54.2"><defs><style>.cls-1{fill:url(#linear-gradient);}.cls-1,.cls-2,.cls-3,.cls-4,.cls-5{stroke-width:0px;}.cls-2{fill:#fff;}.cls-3{fill:url(#linear-gradient-2);}.cls-4{fill:url(#linear-gradient-3);}.cls-5{fill:url(#linear-gradient-4);}</style><linearGradient id="linear-gradient" x1="231.75" y1="-19.83" x2="-4.55" y2="34.37" gradientUnits="userSpaceOnUse"><stop offset="0" stop-color="#8dc63f"/><stop offset="1" stop-color="#0079c1"/></linearGradient><linearGradient id="linear-gradient-2" x1="234.78" y1="-6.61" x2="-1.52" y2="47.59" xlink:href="#linear-gradient"/><linearGradient id="linear-gradient-3" x1="237.82" y1="6.61" x2="1.52" y2="60.81" xlink:href="#linear-gradient"/><linearGradient id="linear-gradient-4" x1="240.97" y1="19.82" x2="4.22" y2="74.12" xlink:href="#linear-gradient"/></defs><rect class="cls-1" width="54.31" height="54.2"/><rect class="cls-3" x="60.66" width="54.31" height="54.2"/><rect class="cls-4" x="121.33" width="54.31" height="54.2"/><rect class="cls-5" x="181.99" width="54.43" height="54.2"/><path class="cls-2" d="m13.76,38.58c.15,1.08.45,1.88.9,2.41.82.97,2.22,1.45,4.2,1.45,1.19,0,2.15-.13,2.89-.38,1.4-.49,2.11-1.4,2.11-2.73,0-.78-.34-1.38-1.03-1.81-.69-.42-1.78-.78-3.27-1.1l-2.56-.56c-2.51-.56-4.23-1.16-5.17-1.8-1.59-1.09-2.38-2.79-2.38-5.1,0-2.11.77-3.87,2.33-5.26,1.55-1.4,3.84-2.1,6.85-2.1,2.51,0,4.66.66,6.43,1.97,1.77,1.32,2.7,3.23,2.79,5.73h-4.73c-.09-1.42-.72-2.43-1.9-3.02-.79-.4-1.77-.59-2.94-.59-1.3,0-2.34.25-3.12.77-.77.51-1.16,1.22-1.16,2.14,0,.84.38,1.47,1.15,1.89.49.28,1.54.6,3.13.97l4.14.98c1.81.43,3.17,1,4.08,1.71,1.4,1.11,2.1,2.71,2.1,4.81s-.83,3.94-2.5,5.36c-1.66,1.43-4.01,2.13-7.05,2.13s-5.54-.7-7.32-2.1c-1.78-1.4-2.67-3.33-2.67-5.78h4.7Z"/><path class="cls-2" d="m89.57,22.97v4.17h-7.05v19.4h-4.96v-19.4h-7.08v-4.17h19.09Z"/><path class="cls-2" d="m149.55,27.15h-12.47v5h11.45v4.09h-11.45v6.06h13.05v4.24h-17.86v-23.57h17.28v4.17Z"/><path class="cls-2" d="m205.92,22.97h7.08v23.57h-4.59v-15.94c0-.46,0-1.1.02-1.93,0-.83.01-1.46.01-1.91l-4.46,19.78h-4.79l-4.43-19.78c0,.45,0,1.08.02,1.91.01.83.01,1.47.01,1.93v15.94h-4.59v-23.57h7.17l4.29,18.53,4.26-18.53Z"/></svg>