<?xml version="1.0" encoding="UTF-8" standalone="no"?>
<!-- Generator: Adobe Illustrator 26.2.1, SVG Export Plug-In . SVG Version: 6.00 Build 0)  -->

<svg
   version="1.1"
   id="a"
   x="0px"
   y="0px"
   viewBox="0 0 452.00001 221"
   xml:space="preserve"
   sodipodi:docname="chargedup.svg"
   width="452"
   height="221"
   inkscape:version="1.2.1 (9c6d41e410, 2022-07-14)"
   xmlns:inkscape="http://www.inkscape.org/namespaces/inkscape"
   xmlns:sodipodi="http://sodipodi.sourceforge.net/DTD/sodipodi-0.dtd"
   xmlns="http://www.w3.org/2000/svg"
   xmlns:svg="http://www.w3.org/2000/svg"><defs
   id="defs113" /><sodipodi:namedview
   id="namedview111"
   pagecolor="#ffffff"
   bordercolor="#000000"
   borderopacity="0.25"
   inkscape:showpageshadow="2"
   inkscape:pageopacity="0.0"
   inkscape:pagecheckerboard="0"
   inkscape:deskcolor="#d1d1d1"
   showgrid="false"
   inkscape:zoom="2.2189621"
   inkscape:cx="229.83719"
   inkscape:cy="118.97454"
   inkscape:window-width="1920"
   inkscape:window-height="1009"
   inkscape:window-x="-8"
   inkscape:window-y="-8"
   inkscape:window-maximized="1"
   inkscape:current-layer="a" />
<style
   type="text/css"
   id="style2">
	.st0{fill:#FFB600;}
	.st1{fill:#68BFDD;}
	.st2{fill:#CE202F;}
</style>
<path
   class="st0"
   d="M 10.32756,98.346208 416.02285,0.8117183 C 434.35003,-3.5809617 452,10.407368 452,29.428088 V 135.06558 c 0,5.80004 -4.23261,10.74713 -9.9043,11.55743 L 15.44901,209.31462 C 7.32241,210.50875 0,204.15429 0,195.88071 V 111.56689 C 0,105.25508 4.27493,99.796218 10.32756,98.346208 Z"
   id="path4"
   style="stroke-width:0.424864" />
<g
   id="g20"
   transform="matrix(0.4232606,0,0,0.42647353,-4.78284,-2.9839017)">
	<path
   d="m 118.8,331.5 v -27.9 c 0,-6.7 -5,-11.7 -11.2,-10.3 -6.2,1.4 -11.2,8.5 -11.2,15.2 v 96.9 c 0,6.7 5,11 11.2,9.7 6.2,-1.3 11.2,-7.7 11.2,-14.4 v -28.2 l 30.6,-6.5 v 32 c 0,26.7 -17.8,51.8 -45.6,57.5 l -1.9,0.4 C 71,462.1 54.4,440.5 54.4,410.8 v -97.7 c 0,-26.3 19.9,-52.5 47.7,-58.9 l 1.6,-0.4 c 34,-7.7 45.9,18.3 45.9,44.9 v 26 z"
   id="path6" />
	<path
   d="m 251.3,422.4 -29,5.9 -0.1,-79 -16.9,3.6 0.1,78.8 -42.2,8.5 -0.2,-182.9 c 0,-7.7 5.3,-14.3 12.8,-16 l 28.7,-6.5 0.1,79.5 16.9,-3.7 -0.1,-79.6 42.7,-9.7 0.4,185 c 0,7.8 -5.5,14.5 -13.2,16.1 z"
   id="path8" />
	<path
   d="m 330.4,406.4 -2.6,-21.6 -20.9,4.3 -2.1,22.5 -29.7,6 25.7,-204.6 37.7,-8.5 32.5,193.6 z m -15.3,-92.3 -6.1,49.8 14.7,-3 -6,-46.7 c -0.2,-1.6 -2.4,-1.6 -2.6,-0.1 z"
   id="path10" />
	<path
   d="m 378.1,195.4 52.1,-11.8 c 27.8,-6.3 43.4,13.3 43.6,40.7 0.1,29.5 -5.8,38.5 -17.9,46.7 v 0.7 c 12.2,3.3 19.1,12.4 18.9,26.5 -0.8,40.9 -0.7,44.7 -0.4,52.7 0.4,11.9 4.8,25.4 4.8,25.4 l -38.4,7.8 c -3.8,-4.5 -5.4,-17.8 -5.4,-27.2 l 0.1,-49 c 0,-6.3 -3.8,-10 -9.4,-8.8 l -7.5,1.6 0.3,87.8 -40,8.1 z m 43.7,70 c 8.7,-2.6 13.7,-10.7 13.7,-20.8 v -6.3 c 0,-12.6 -4.4,-17.5 -13.8,-15.5 l -4,0.9 0.2,42.5 z"
   id="path12" />
	<path
   d="m 585.7,354.7 -21.6,4.4 -4.1,-7.7 c -4,6.1 -15.6,15.2 -27.8,17.7 -15,3 -44.1,-2.3 -44.4,-61 l -0.3,-78.7 c -0.2,-44.3 28.4,-68.7 49.3,-73.4 l 2.2,-0.5 c 24.3,-5.5 43.2,18.6 43.3,44.6 l 0.1,25.6 -29,6.3 -0.1,-22 c 0,-8.5 -6.3,-14.2 -13.5,-12.6 -6.9,1.5 -13.1,10 -13,18.4 l 0.5,102 c 0,6.3 5,10.6 10.4,9.5 5.6,-1.2 10.3,-7.4 10.2,-13.8 l -0.1,-19.1 -10,2.1 -0.2,-35 47.4,-10.2 z"
   id="path14" />
	<path
   d="m 641.5,221.7 30.7,-6.6 0.2,38.4 -30.3,6.5 0.2,41.1 40.9,-8.5 0.3,42.4 -65.5,13.3 c -8.9,1.8 -17.3,-5 -17.3,-14.1 l -1,-177.2 c 0,-6.8 4.7,-12.7 11.3,-14.2 l 71.3,-16.2 0.3,43.8 -41.2,9.1 z"
   id="path16" />
	<path
   d="m 793.9,245.5 c 0.7,46.5 -25.4,72.2 -50.1,77.2 l -47.2,9.5 -1.3,-208.7 56.1,-12.7 c 21.5,-4.9 41.3,9.6 41.6,56.2 z m -58.2,40.1 c 8.7,-1.8 18.4,-7.8 18.3,-17.9 l -0.7,-102.5 c -0.1,-13.4 -7.6,-13.2 -18.5,-10.8 z"
   id="path18" />
</g>
<path
   d="m 366.79764,79.197548 c 0.0423,4.69121 2.15863,6.78093 5.46006,6.05592 3.30143,-0.68235 5.41774,-3.62502 5.37541,-8.35888 l -0.55024,-47.21062 12.95178,-2.94266 0.59256,50.75035 c 0.0847,12.45302 -7.32241,24.095752 -19.76627,26.611942 l -0.80419,0.17059 C 356.30078,107.08892 349.19,96.810908 349.10535,82.907868 l -0.46559,-42.69 c -0.0423,-2.34561 1.56606,-4.39268 3.85167,-4.90445 l 13.7983,-3.1559 z"
   id="path22"
   style="stroke-width:0.424864" />
<path
   d="m 419.07032,19.960378 -22.05187,5.03238 0.46558,80.347622 -45.28888,9.6383 -13.37504,23.62663 -200.37157,41.8797 c -1.01582,0.34118 -0.55023,1.91913 0.50792,1.6206 l 212.30752,-33.81935 12.74014,-22.04868 40.16743,-7.50593 c 6.05263,-1.15148 10.41221,-6.43975 10.41221,-12.62362 V 73.013678 l 4.95215,-1.06618 c 11.76665,-2.51619 18.24253,-14.32951 18.11556,-29.34138 -0.12698,-16.41923 -6.85683,-25.28988 -18.58115,-22.64574 z m -3.38608,37.06055 -1.73537,0.38382 -0.12698,-19.3619 1.73537,-0.38382 c 3.97865,-0.8956 5.841,1.40736 5.88332,7.12211 l 0.0423,2.85737 c 0,4.60591 -2.07398,8.23094 -5.79867,9.38242 z"
   id="path24"
   style="stroke-width:0.424864" />
<path
   class="st1"
   d="m 395.32541,112.76102 -39.49022,6.61034 -12.61317,22.64574 -50.0294,10.78978 c -0.29628,0.0853 -0.21163,0.51177 0.0847,0.46912 l 54.21969,-7.93241 12.65549,-22.17662 35.25761,-9.97948 c 0.29628,-0.0426 0.21163,-0.46912 -0.0847,-0.42647 z"
   id="path26"
   style="stroke-width:0.424864" />
<g
   id="g50"
   transform="matrix(0.4232606,0,0,0.42647353,-4.78284,-2.9839017)">
	<path
   d="m 568.7,482.9 h -4.2 v 8.2 h -4.3 v -21.8 h 8.5 c 4.5,0 7.2,3.1 7.2,6.8 0,3.7 -2.7,6.8 -7.2,6.8 z m -0.2,-9.8 h -4 v 6 h 4 c 1.9,0 3.2,-1.2 3.2,-3 0,-1.8 -1.3,-3 -3.2,-3 z"
   id="path28" />
	<path
   d="m 592.6,491.1 -4.3,-8.7 h -3.1 v 8.7 H 581 v -21.8 h 8.5 c 4.4,0 7.1,3 7.1,6.7 0,3.1 -1.9,5 -4,5.7 l 4.9,9.4 z m -3.3,-18 h -4 v 5.8 h 4 c 1.9,0 3.1,-1.2 3.1,-2.9 0,-1.7 -1.3,-2.9 -3.1,-2.9 z"
   id="path30" />
	<path
   d="M 602.6,491.1 V 469.3 H 617 v 3.8 h -10.1 v 5.1 h 8.6 v 3.8 h -8.6 v 5.3 H 617 v 3.8 z"
   id="path32" />
	<path
   d="m 628.6,491.3 c -3.3,0 -5.8,-0.7 -8,-2.9 l 2.8,-2.8 c 1.4,1.4 3.2,1.8 5.3,1.8 2.5,0 3.9,-1 3.9,-2.7 0,-0.8 -0.2,-1.4 -0.7,-1.8 -0.4,-0.4 -0.9,-0.6 -1.9,-0.8 l -2.6,-0.4 c -1.9,-0.3 -3.2,-0.9 -4.2,-1.8 -1,-1 -1.6,-2.5 -1.6,-4.3 0,-3.9 2.9,-6.6 7.6,-6.6 3,0 5.2,0.7 7,2.5 l -2.7,2.7 c -1.4,-1.3 -3,-1.5 -4.5,-1.5 -2.3,0 -3.4,1.2 -3.4,2.8 0,0.5 0.2,1.1 0.6,1.6 0.4,0.4 1.1,0.7 2,0.9 l 2.6,0.4 c 2,0.3 3.2,0.8 4.2,1.7 1.2,1.1 1.7,2.7 1.7,4.6 0,4.2 -3.5,6.6 -8.1,6.6 z"
   id="path34" />
	<path
   d="m 642.3,491.1 v -21.8 h 14.4 v 3.8 h -10.1 v 5.1 h 8.6 v 3.8 h -8.6 v 5.3 h 10.1 v 3.8 z"
   id="path36" />
	<path
   d="m 675.2,491.1 -8.6,-13.4 v 13.4 h -4.3 v -21.8 h 3.8 l 8.6,13.3 v -13.3 h 4.2 v 21.8 z"
   id="path38" />
	<path
   d="m 694,473.1 v 18 h -4.3 v -18 H 684 v -3.8 h 15.6 v 3.8 z"
   id="path40" />
	<path
   d="M 704.7,491.1 V 469.3 H 719 v 3.8 h -10.1 v 5.1 h 8.6 v 3.8 h -8.6 v 5.3 H 719 v 3.8 z"
   id="path42" />
	<path
   d="m 738.3,489 c -1.4,1.4 -3.5,2.1 -5.8,2.1 h -7.9 v -21.8 h 7.9 c 2.3,0 4.3,0.6 5.8,2.1 2.5,2.5 2.2,5.5 2.2,8.7 0,3.2 0.3,6.5 -2.2,8.9 z m -2.9,-14.6 c -0.7,-0.9 -1.7,-1.3 -3.2,-1.3 H 729 v 14.2 h 3.2 c 1.5,0 2.5,-0.5 3.2,-1.3 0.8,-1 0.9,-2.5 0.9,-5.8 0,-3.3 -0.1,-4.8 -0.9,-5.8 z"
   id="path44" />
	<path
   d="m 764.2,491.1 h -9.1 v -21.8 h 8.8 c 4.3,0 6.7,2.4 6.7,6.1 0,2.4 -1.6,4 -2.7,4.5 1.3,0.6 3,2 3,4.9 0,4.1 -2.8,6.3 -6.7,6.3 z m -0.7,-18 h -4.2 v 5 h 4.2 c 1.8,0 2.8,-1 2.8,-2.5 0,-1.5 -1,-2.5 -2.8,-2.5 z m 0.3,8.8 h -4.4 v 5.4 h 4.4 c 1.9,0 2.8,-1.2 2.8,-2.7 0,-1.5 -0.9,-2.6 -2.8,-2.7 z"
   id="path46" />
	<path
   d="m 785.1,482.2 v 8.9 h -4.2 v -8.9 l -6.5,-12.9 h 4.6 l 4.1,8.8 4,-8.8 h 4.6 z"
   id="path48" />
</g>
<g
   id="g56"
   transform="matrix(0.4232606,0,0,0.42647353,-4.78284,-2.9839017)">
	<path
   d="m 887.6,340.1 2,-2.9 c 1.3,1 2.8,1.6 4.5,1.3 1.4,-0.2 2.2,-1 2.2,-2 v 0 c 0,-1 -0.5,-1.3 -3,-1.6 -3,-0.3 -5,-0.9 -4.9,-4.2 v 0 c 0.1,-3 2.3,-5.5 5.5,-6.1 2.2,-0.5 4.1,-0.1 5.6,1 l -1.8,3.2 c -1.3,-0.8 -2.6,-1.2 -3.9,-0.9 -1.3,0.3 -2,1 -2,1.8 v 0 c 0,1.1 0.6,1.3 3.2,1.6 3.1,0.3 4.8,1.3 4.7,4.3 v 0 c -0.1,3.4 -2.5,5.7 -5.7,6.2 -2.3,0.3 -4.6,-0.3 -6.4,-1.7 z"
   id="path52" />
	<path
   d="m 902.9,322.8 3.6,-0.8 3.8,6.7 4.2,-8.3 3.6,-0.8 -0.6,18.1 -3.3,0.5 0.4,-11.7 -4.5,8.4 H 910 l -4,-6.7 -0.3,11.4 -3.3,0.5 z"
   id="path54" />
</g>
<g
   id="g108"
   transform="matrix(0.4232606,0,0,0.42647353,-4.78284,-2.9839017)">
	<g
   id="g94">
		<path
   d="m 835.4,517.5 c 0,3.4 0.8,5.9 3.5,5.9 1.1,0 2.1,-0.6 2.5,-1.5 v -2.3 l -1.8,-0.2 v -1.6 h 6.5 v 1.6 l -1.3,0.2 v 5.3 H 843 c -0.2,-0.4 -0.3,-0.8 -0.8,-0.8 -0.7,0 -1.7,1 -4,1 -4.1,0 -6.7,-2.3 -6.7,-7.6 0,-5.3 3.2,-7.8 7.2,-7.8 2,0 2.8,0.8 3.4,0.8 0.3,0 0.5,-0.2 0.6,-0.6 h 1.5 l 0.2,4.9 h -1.6 c -0.6,-2.5 -1.7,-3.5 -3.7,-3.5 -2.6,0.2 -3.7,2.4 -3.7,6.2 z"
   id="path58" />
		<path
   d="m 852.3,514 c 2.7,0 4.6,1.5 4.6,4.7 0,0.3 0,0.8 0,1.2 h -6.4 c 0,2 0.5,3.5 2.4,3.5 1.3,0 1.9,-0.8 2.5,-1.9 l 1.5,0.5 c -0.6,2 -2.2,3.2 -4.5,3.2 -3.5,0 -5.3,-2.2 -5.3,-5.4 -0.1,-3.7 2.2,-5.7 5.2,-5.8 z m 1.3,4.5 v -0.4 c 0,-1.9 -0.3,-2.8 -1.4,-2.8 -1.2,0 -1.6,1.4 -1.7,3.2 z"
   id="path60" />
		<path
   d="m 862.4,514.2 0.2,2 h 0.1 c 0.5,-1.1 1.5,-2.2 3.6,-2.2 2.1,0 3.3,1 3.3,3.5 v 5.8 l 1.3,0.2 v 1.5 h -5.6 v -1.5 l 1,-0.2 v -5.4 c 0,-1.2 -0.2,-1.9 -1.3,-1.9 -1.1,0 -2,0.7 -2,2.4 v 4.9 l 1.1,0.2 v 1.5 h -5.7 v -1.5 l 1.3,-0.2 V 516 l -1.3,-0.2 v -1.5 z"
   id="path62" />
		<path
   d="m 877.2,514 c 2.7,0 4.6,1.5 4.6,4.7 0,0.3 0,0.8 0,1.2 h -6.4 c 0,2 0.5,3.5 2.4,3.5 1.3,0 1.9,-0.8 2.5,-1.9 l 1.5,0.5 c -0.6,2 -2.2,3.2 -4.5,3.2 -3.5,0 -5.3,-2.2 -5.3,-5.4 -0.1,-3.7 2.1,-5.7 5.2,-5.8 z m 1.2,4.5 v -0.4 c 0,-1.9 -0.3,-2.8 -1.4,-2.8 -1.2,0 -1.6,1.4 -1.7,3.2 z"
   id="path64" />
		<path
   d="m 891.9,516.5 h 5.2 v -4.6 l -1.4,-0.2 V 510 h 6.3 v 1.6 l -1.4,0.2 v 11.3 l 1.4,0.2 v 1.6 h -6.3 v -1.6 l 1.4,-0.2 v -4.8 h -5.2 v 4.8 l 1.4,0.2 v 1.6 H 887 v -1.6 l 1.4,-0.2 V 511.8 L 887,511.6 V 510 h 6.3 v 1.6 l -1.4,0.2 z"
   id="path66" />
		<path
   d="m 909.3,519.4 v -1.5 c 0,-1.6 -0.4,-2.6 -1.9,-2.6 -0.6,0 -1.2,0.2 -1.2,0.7 0,0.1 0,0.2 0,0.3 h 0.8 c 0.1,0.3 0.1,0.6 0.1,0.8 0,0.8 -0.5,1.5 -1.6,1.5 -1.1,0 -1.7,-0.7 -1.7,-1.7 0,-1.7 1.5,-2.8 4.3,-2.8 2.8,0 4.4,1 4.4,4 v 4.4 c 0,0.8 0,1.1 0.5,1.1 0.2,0 0.4,0 0.7,-0.2 l 0.3,1.1 c -0.4,0.3 -1.3,0.7 -2.4,0.7 -1.4,0 -1.9,-0.6 -2.2,-1.6 -0.4,0.7 -1.2,1.6 -3,1.6 -1.7,0 -3.1,-0.7 -3.1,-2.8 0,-2.3 1.6,-3 4.4,-3 z m 0,2.4 v -1.3 h -0.8 c -1.3,0 -1.7,0.5 -1.7,1.6 0,1 0.3,1.5 1.2,1.5 0.7,0 1.3,-0.5 1.3,-1.8 z"
   id="path68" />
		<path
   d="m 920.9,519.4 v -1.5 c 0,-1.6 -0.4,-2.6 -1.9,-2.6 -0.6,0 -1.2,0.2 -1.2,0.7 0,0.1 0,0.2 0,0.3 h 0.8 c 0.1,0.3 0.1,0.6 0.1,0.8 0,0.8 -0.5,1.5 -1.6,1.5 -1.1,0 -1.7,-0.7 -1.7,-1.7 0,-1.7 1.5,-2.8 4.3,-2.8 2.8,0 4.4,1 4.4,4 v 4.4 c 0,0.8 0,1.1 0.5,1.1 0.2,0 0.4,0 0.7,-0.2 l 0.3,1.1 c -0.4,0.3 -1.3,0.7 -2.4,0.7 -1.4,0 -1.9,-0.6 -2.2,-1.6 -0.4,0.7 -1.2,1.6 -3,1.6 -1.7,0 -3.1,-0.7 -3.1,-2.8 0,-2.3 1.6,-3 4.4,-3 z m 0,2.4 v -1.3 h -0.8 c -1.3,0 -1.7,0.5 -1.7,1.6 0,1 0.3,1.5 1.2,1.5 0.7,0 1.3,-0.5 1.3,-1.8 z"
   id="path70" />
		<path
   d="m 926.6,521.5 h 1.3 c 0.3,1.3 1.4,2.2 3.1,2.2 1.2,0 1.8,-0.4 1.8,-1.2 0,-1 -1,-1.1 -2.2,-1.3 -1.8,-0.3 -4,-0.7 -4,-3.5 0,-2.2 1.7,-3.6 4,-3.6 1,0 1.6,0.3 2,0.5 0.2,0.1 0.3,0.1 0.4,0.1 0.3,0 0.3,-0.2 0.4,-0.5 h 1.1 v 3.3 h -1.3 c -0.6,-1.4 -1.3,-2 -2.7,-2 -0.8,0 -1.6,0.3 -1.6,1.1 0,0.9 0.9,1 2.1,1.3 1.8,0.3 4.1,0.8 4.1,3.6 0,2.4 -1.6,3.7 -3.9,3.7 -1.3,0 -2.1,-0.4 -2.6,-0.7 -0.2,-0.1 -0.3,-0.1 -0.4,-0.1 -0.2,0 -0.3,0.2 -0.4,0.6 h -1.2 z"
   id="path72" />
		<path
   d="m 951.3,510 0.2,3.8 h -0.6 c -0.6,-2.6 -1.3,-3.1 -3.6,-3.1 h -2.6 v 6.2 h 1.3 c 1.8,0 2.3,-0.7 2.6,-2.6 h 0.5 v 6.3 h -0.5 c -0.3,-2.3 -0.7,-2.8 -2.8,-2.8 h -1.1 v 6.2 l 3,0.2 v 0.6 h -6.5 v -0.6 L 943,524 v -13.3 l -1.8,-0.2 V 510 Z"
   id="path74" />
		<path
   d="m 957.3,514.2 c 3,0 4.6,2.2 4.6,5.5 0,3.3 -1.8,5.5 -4.7,5.5 -2.9,0 -4.6,-2.2 -4.6,-5.5 0,-3.3 1.9,-5.5 4.7,-5.5 z m -0.1,0.9 c -2.4,0 -2.9,2.3 -2.9,4.5 0,2.2 0.5,4.6 3,4.6 2.5,0 2.9,-2.2 2.9,-4.5 0,-2.3 -0.6,-4.6 -3,-4.6 z"
   id="path76" />
		<path
   d="m 966.3,521.7 c 0,1.5 0.4,2.3 2.2,2.3 1.8,0 3.1,-1 3.1,-3 v -5.7 l -1.6,-0.2 v -0.7 l 3.1,-0.1 v 9.7 l 1.4,0.2 v 0.7 h -2.7 l -0.2,-1.8 c -0.7,1 -1.9,2 -3.7,2 -2.3,0 -3.2,-1.2 -3.2,-3.5 v -6.4 l -1.5,-0.2 v -0.7 l 3,-0.1 z"
   id="path78" />
		<path
   d="m 978.9,514.3 0.1,2 c 0.6,-1 1.9,-2.1 3.7,-2.1 2.3,0 3.2,1.2 3.2,3.7 v 6.2 l 1.4,0.2 v 0.7 h -4.5 v -0.7 l 1.6,-0.2 v -6.2 c 0,-1.7 -0.4,-2.5 -2.2,-2.5 -1.7,0 -3.1,1.1 -3.1,2.8 v 5.9 l 1.6,0.2 v 0.7 h -4.5 v -0.7 l 1.4,-0.2 v -8.8 l -1.4,-0.2 v -0.7 z"
   id="path80" />
		<path
   d="m 996.4,515.5 v -5.6 l -1.8,-0.2 V 509 l 3.3,-0.1 V 524 l 1.6,0.2 v 0.7 h -3 l -0.1,-1.7 c -0.6,0.9 -1.6,1.9 -3.4,1.9 -2.8,0 -4.1,-2.2 -4.1,-5.3 0,-3.6 1.8,-5.7 4.5,-5.7 1.1,0.1 2.1,0.4 3,1.4 z m 0,5.7 v -3.3 c 0,-2 -1.4,-2.7 -2.7,-2.7 -2.3,0 -3,1.8 -3,4.5 0,2 0.4,4.4 2.8,4.4 1.4,-0.1 2.9,-1.3 2.9,-2.9 z"
   id="path82" />
		<path
   d="M 1007,519.4 V 518 c 0,-1.9 -0.5,-3 -2.2,-3 -0.6,0 -2,0.1 -2,1 0,0.1 0,0.2 0,0.3 h 0.7 c 0.1,0.2 0.1,0.5 0.1,0.7 0,0.7 -0.5,1 -1,1 -0.6,0 -1.1,-0.4 -1.1,-1.2 0,-1.5 1.4,-2.6 3.6,-2.6 2.5,0 3.5,1.1 3.5,4 v 4.9 c 0,1 0.2,1.2 0.7,1.2 0.2,0 0.5,0 0.7,-0.1 l 0.2,0.7 c -0.4,0.2 -0.7,0.2 -1.2,0.2 -1,0 -1.7,-0.4 -1.8,-1.5 -0.8,1.1 -2,1.5 -3.1,1.5 -1.6,0 -3,-0.7 -3,-2.7 0,-2.3 2,-3.1 4.6,-3.1 z m 0,2.5 v -1.6 h -1.4 c -2.1,0 -2.8,0.9 -2.8,2.1 0,1.2 0.6,1.9 1.8,1.9 1.1,-0.1 2.4,-0.9 2.4,-2.4 z"
   id="path84" />
		<path
   d="m 1012,515.3 h -1.6 v -0.9 h 1.6 v -2.8 l 1.3,-0.4 h 0.2 v 3.2 h 2.3 v 0.9 h -2.3 v 7.2 c 0,1.2 0.3,1.7 1.2,1.7 0.8,0 1.2,-0.3 1.6,-1.5 l 0.7,0.2 c -0.4,1.7 -1.2,2.3 -2.6,2.3 -1.7,0 -2.5,-0.8 -2.5,-2.4 z"
   id="path86" />
		<path
   d="m 1021.4,514.3 v 9.8 l 1.6,0.2 v 0.7 h -4.8 v -0.7 l 1.6,-0.2 v -8.8 l -1.6,-0.2 v -0.7 z m -1,-4.8 c 0.6,0 1.1,0.2 1.1,1.1 0,0.7 -0.4,1.1 -1.1,1.1 -0.8,0 -1.1,-0.4 -1.1,-1 0.1,-0.7 0.4,-1.2 1.1,-1.2 z"
   id="path88" />
		<path
   d="m 1029.3,514.2 c 3,0 4.6,2.2 4.6,5.5 0,3.3 -1.8,5.5 -4.7,5.5 -2.9,0 -4.6,-2.2 -4.6,-5.5 0,-3.3 1.9,-5.5 4.7,-5.5 z m -0.1,0.9 c -2.4,0 -2.9,2.3 -2.9,4.5 0,2.2 0.5,4.6 3,4.6 2.5,0 2.9,-2.2 2.9,-4.5 0,-2.3 -0.5,-4.6 -3,-4.6 z"
   id="path90" />
		<path
   d="m 1038.6,514.3 0.1,2 c 0.6,-1 1.9,-2.1 3.7,-2.1 2.3,0 3.2,1.2 3.2,3.7 v 6.2 l 1.4,0.2 v 0.7 h -4.5 v -0.7 l 1.6,-0.2 v -6.2 c 0,-1.7 -0.4,-2.5 -2.2,-2.5 -1.7,0 -3.1,1.1 -3.1,2.8 v 5.9 l 1.6,0.2 v 0.7 h -4.5 v -0.7 l 1.4,-0.2 v -8.8 l -1.4,-0.2 v -0.7 z"
   id="path92" />
	</g>
	<g
   id="g106">
		<polygon
   class="st2"
   points="825,483.2 860.6,483.3 853.2,496.1 866.1,496.1 897.5,441.7 884.6,441.7 867,472.1 831.5,472.1 "
   id="polygon96" />
		<polygon
   class="st2"
   points="877.2,483.2 886.7,483.3 879.3,496.1 892.2,496.1 923.6,441.7 910.7,441.7 893.1,472.1 883.6,472.1 "
   id="polygon98" />
		<polygon
   class="st2"
   points="942.7,441.7 929.8,441.7 898.3,496.1 911.3,496.1 "
   id="polygon100" />
		<polygon
   class="st2"
   points="933.6,463.4 933.6,472.1 928.6,472.1 922.1,483.2 933.6,483.3 933.6,496.1 948.7,496.1 980.2,441.7 967.3,441.7 944.5,481 944.5,444.7 "
   id="polygon102" />
		<path
   class="st2"
   d="m 1012.2,453.2 h 35.4 l 6.8,-11.6 h -47.2 c -2.2,0 -4.3,1.2 -5.5,3.1 l -12.7,22 c -1.9,3.2 0.4,7.3 4.2,7.3 h 16.9 l -5.7,9.5 c -0.6,0.9 -1.5,1.5 -2.6,1.5 h -19.5 v -40 l -10.9,18.7 v 8.5 h -5 l -6.5,11.2 h 11.5 v 12.8 h 35.4 c 2.2,0 4.3,-1.2 5.5,-3.1 l 13.5,-23.1 c 1.9,-3.2 -0.4,-7.2 -4.1,-7.2 h -16.4 l 4.8,-8.2 c 0.4,-0.9 1.3,-1.4 2.1,-1.4 z"
   id="path104" />
	</g>
</g>
</svg>
