<?xml version="1.0" encoding="UTF-8"?>
<svg id="Layer_1" data-name="Layer 1" xmlns="http://www.w3.org/2000/svg" viewBox="0 0 556.364 763.513">
  <defs>
    <style>
      .cls-1 {
        fill: #fcb619;
      }

      .cls-2 {
        fill: #ce0e2d;
      }

      .cls-3 {
        fill: #2fa6de;
      }

      .cls-4 {
        fill: #231f20;
      }
    </style>
  </defs>
  <path class="cls-1" d="m541.247,579.119L21.304,668.754c-11.13,1.919-21.304-6.652-21.304-17.946V107.85c0-8.864,6.382-16.44,15.117-17.946L535.059.27c11.13-1.919,21.304,6.652,21.304,17.946v542.958c0,8.864-6.382,16.44-15.117,17.946Z"/>
  <path d="m191.284,433.965c.126,15.518,7.242,22.81,18.252,21.271,11.012-1.538,17.988-10.812,17.858-26.357l.007-155.463,43.248-6.877-.004,167.188c.356,41.017-24.473,77.665-65.891,83.324l-2.644.362c-45.825,6.29-70.88-26.401-70.88-75.097l-.453-135.93c-.034-10.094,7.306-18.701,17.279-20.263l43.37-6.789-.142,154.63Z"/>
  <path d="m483.516,44.963L57.951,122.287c-15.065,2.737-26.016,15.858-26.016,31.169v443.195c0,19.683,17.761,34.602,37.148,31.204l255.468-44.773c15.155-2.656,26.211-15.818,26.211-31.204v-127.205l16.186-2.32c39.178-5.6,60.858-42.726,60.381-91.885-.523-53.866-22.837-84.556-61.968-78.654l-72.953,11.08v267.359l-203.492,37.153V175.282l374.963-69.837v327.042l-46.754-5.434c-9.768-1.135-18.342,6.5-18.342,16.333v127.985l44.147-83.582,59.967,7.203c9.554,1.148,17.963-6.312,17.963-15.934V76.132c0-19.763-17.898-34.702-37.343-31.169Zm-129.957,263.965c13.195-1.961,19.436,5.993,19.612,24.774l.088,9.391c.142,15.129-6.801,26.587-19.113,29.426l-6.049.834v-63.574l5.463-.851Z"/>
  <g>
    <path d="m156.391,219.607l-.008-11.133c-.002-2.683-1.997-4.723-4.488-4.254-2.492.468-4.484,3.251-4.482,5.927l.018,38.667c.001,2.676,1.998,4.469,4.493,4.034,2.495-.435,4.489-2.929,4.487-5.611l-.008-11.267,12.219-2.183.013,12.784c.011,10.632-7.094,20.451-18.2,22.338l-.749.127c-12.354,2.1-18.968-6.763-18.968-18.616v-39.022c0-10.521,7.969-20.713,19.052-22.847l.623-.12c13.573-2.61,18.316,7.92,18.327,18.552l.011,10.363-12.338,2.26Z"/>
    <path d="m209.321,257.567l-11.595,1.966-.056-31.468-6.733,1.201.051,31.411-16.846,2.861-.085-72.951c-.004-3.051,2.111-5.625,5.091-6.195l11.465-2.195.051,31.68,6.73-1.229-.057-31.738,17.06-3.261.165,73.686c.007,3.107-2.186,5.716-5.24,6.233Z"/>
    <path d="m240.902,252.221l-1.024-8.611-8.359,1.433-.85,8.908-11.855,2.007,10.275-81.116,15.068-2.873,12.967,77.511-16.222,2.74Zm-6.11-36.911l-2.426,19.726,5.862-1.021-2.403-18.674c-.078-.608-.959-.635-1.033-.032Z"/>
    <path d="m259.971,168.958l20.796-3.955c11.082-2.105,17.349,5.908,17.396,16.775.051,11.703-2.304,15.195-7.155,18.298v.278c4.872,1.493,7.633,5.181,7.533,10.776-.304,16.226-.297,17.758-.158,20.941.146,4.716,1.918,10.134,1.918,10.134l-15.349,2.584c-1.506-1.829-2.151-7.135-2.166-10.881l.047-19.447c-.01-2.498-1.513-4.035-3.757-3.636l-2.992.532.133,34.904-15.973,2.694-.273-79.996Zm17.431,28.438c3.489-.911,5.471-4.048,5.455-8.072l-.01-2.498c-.02-4.995-1.773-7.03-5.51-6.335l-1.619.301.064,16.897,1.62-.294Z"/>
    <path d="m342.853,235.058l-8.61,1.444-1.64-3.101c-1.611,2.381-6.215,5.824-11.081,6.639-5.99,1.004-17.616-1.514-17.721-24.813l-.141-31.251c-.079-17.579,11.344-26.87,19.687-28.453l.871-.165c9.713-1.842,17.245,8.014,17.301,18.299l.055,10.144-11.59,2.1-.045-8.709c-.017-3.371-2.523-5.719-5.388-5.188-2.741.508-5.218,3.772-5.202,7.133l.198,40.485c.012,2.521,2.019,4.28,4.139,3.916,2.245-.386,4.106-2.813,4.093-5.34l-.039-7.581-3.99.698-.069-13.884,18.947-3.382.224,41.009Z"/>
    <path d="m365.15,183.082l11.839-1.995.095,15.201-11.718,1.939.098,16.301,16.34-2.803.108,16.796-26.179,4.38c-3.569.598-6.909-2.21-6.929-5.825l-.394-70.273c-.015-2.693,1.858-4.967,4.504-5.467l28.47-5.372.111,17.366-16.444,3.027.1,16.726Z"/>
    <path d="m426.013,194.646c.262,18.403-10.16,28.21-20.018,29.853l-18.843,3.145-.54-82.667,22.415-4.219c8.592-1.615,16.493,4.396,16.63,22.82l.356,31.068Zm-23.244,15.062c3.492-.596,7.348-2.833,7.32-6.847l-.287-40.572c-.038-5.305-3.031-5.328-7.391-4.525l.358,51.944Z"/>
  </g>
  <g>
    <path d="m446.462,545.527l2.571-3.88c1.779,1.272,3.642,1.946,5.9,1.512,1.779-.341,2.853-1.342,2.856-2.645v-.064c.002-1.239-.675-1.738-3.979-2.017-3.985-.311-6.556-.989-6.555-5.295v-.062c0-3.935,2.889-7.217,6.939-8.17,2.889-.68,5.35-.238,7.357,1.12l-2.272,4.217c-1.752-.979-3.476-1.416-5.147-1.04-1.67.376-2.547,1.419-2.548,2.483v.063c-.001,1.44.846,1.726,4.267,1.968,4.014.323,6.271,1.483,6.262,5.4v.064c-.011,4.462-3.008,7.51-7.269,8.285-2.991.544-6.01-.058-8.381-1.939Z"/>
    <path d="m465.949,522.464l4.702-1.103,5.167,8.585,5.254-11.029,4.701-1.103-.139,23.715-4.317.788.08-15.333-5.617,11.113-.113.022-5.472-8.612-.054,14.85-4.261.778.069-22.671Z"/>
  </g>
  <path class="cls-3" d="m78.249,600.921c-6.787,0-13.339-3.181-17.591-8.984-2.818-3.846-4.113-8.605-4.113-13.373V167.07c0-10.469,7.471-19.45,17.765-21.355l398.971-73.883c8.365-1.546,16.975,1.871,22.031,9.273,2.522,3.693,3.642,8.172,3.642,12.644v375.213c0,3.055-2.684,5.414-5.714,5.023l-65.905-8.508-11.26,30.787,4.775-38.246c.367-2.941,3.057-5.022,5.996-4.64l60.543,7.884.168-367.714c0-2.536-.77-5.064-2.411-6.998-2.456-2.895-6.164-4.177-9.791-3.512L76.386,156.921c-4.893.906-8.444,5.174-8.444,10.151v411.917c0,2.076.52,4.152,1.676,5.876,2.36,3.518,6.414,5.194,10.384,4.511,0,0,183.777-25.771,182.981-25.618l-181.063,36.852c-1.223.208-2.452.312-3.671.312Z"/>
  <g>
    <path d="m38.591,712.442h-3.949v7.73h-4.01v-20.536h7.959c4.241,0,6.779,2.914,6.779,6.403s-2.538,6.403-6.779,6.403m-.201-9.229h-3.748v5.623h3.748c1.817,0,2.97-1.123,2.97-2.798s-1.154-2.826-2.97-2.826"/>
    <path d="m61.101,720.172l-4.01-8.192h-2.884v8.192h-4.007v-20.536h8.045c4.183,0,6.663,2.856,6.663,6.289,0,2.884-1.761,4.673-3.751,5.394l4.587,8.853h-4.643Zm-3.115-16.959h-3.779v5.422h3.779c1.759,0,2.912-1.125,2.912-2.711s-1.153-2.711-2.912-2.711"/>
    <polygon points="70.512 720.173 70.512 699.636 84.039 699.636 84.039 703.214 74.522 703.214 74.522 708.031 82.626 708.031 82.626 711.607 74.522 711.607 74.522 716.595 84.039 716.595 84.039 720.173 70.512 720.173"/>
    <path d="m95.068,720.345c-3.113,0-5.479-.663-7.499-2.709l2.597-2.597c1.299,1.299,3.055,1.731,4.96,1.731,2.366,0,3.634-.895,3.634-2.539,0-.722-.201-1.329-.635-1.73-.404-.376-.866-.577-1.817-.719l-2.48-.348c-1.759-.259-3.057-.808-3.979-1.702-.981-.981-1.471-2.307-1.471-4.035,0-3.664,2.711-6.231,7.151-6.231,2.828,0,4.876.691,6.637,2.391l-2.541,2.511c-1.296-1.24-2.854-1.413-4.211-1.413-2.132,0-3.171,1.182-3.171,2.594,0,.521.173,1.07.605,1.471.404.376,1.067.694,1.903.808l2.424.348c1.875.259,3.057.777,3.923,1.583,1.095,1.042,1.586,2.541,1.586,4.358,0,3.979-3.318,6.228-7.615,6.228"/>
    <polygon points="107.915 720.173 107.915 699.636 121.441 699.636 121.441 703.214 111.925 703.214 111.925 708.031 120.028 708.031 120.028 711.607 111.925 711.607 111.925 716.595 121.441 716.595 121.441 720.173 107.915 720.173"/>
    <polygon points="138.958 720.173 130.827 707.569 130.827 720.173 126.817 720.173 126.817 699.636 130.395 699.636 138.526 712.211 138.526 699.636 142.536 699.636 142.536 720.173 138.958 720.173"/>
    <polygon points="156.623 703.213 156.623 720.172 152.613 720.172 152.613 703.213 147.249 703.213 147.249 699.636 161.987 699.636 161.987 703.213 156.623 703.213"/>
    <polygon points="166.697 720.173 166.697 699.636 180.223 699.636 180.223 703.214 170.707 703.214 170.707 708.031 178.81 708.031 178.81 711.607 170.707 711.607 170.707 716.595 180.223 716.595 180.223 720.173 166.697 720.173"/>
    <path d="m198.435,718.211c-1.354,1.355-3.288,1.962-5.422,1.962h-7.412v-20.537h7.412c2.134,0,4.068.607,5.422,1.962,2.308,2.307,2.076,5.133,2.076,8.22s.231,6.086-2.076,8.393m-2.798-13.729c-.694-.836-1.616-1.268-3.001-1.268h-3.027v13.381h3.027c1.385,0,2.307-.434,3.001-1.268.75-.925.866-2.394.866-5.509s-.117-4.414-.866-5.336"/>
    <path d="m222.795,720.172h-8.596v-20.537h8.248c4.012,0,6.347,2.251,6.347,5.77,0,2.28-1.499,3.748-2.538,4.239,1.24.577,2.826,1.875,2.826,4.615,0,3.837-2.622,5.913-6.287,5.913m-.663-16.959h-3.923v4.729h3.923c1.703,0,2.653-.951,2.653-2.363s-.95-2.366-2.653-2.366m.259,8.335h-4.183v5.049h4.183c1.817,0,2.683-1.153,2.683-2.538s-.866-2.51-2.683-2.51"/>
    <polygon points="242.476 711.751 242.476 720.172 238.496 720.172 238.496 711.751 232.324 699.637 236.679 699.637 240.514 707.914 244.293 699.637 248.65 699.637 242.476 711.751"/>
  </g>
  <g>
    <g>
      <path class="cls-4" d="m289.107,754.864c0,3.799.884,6.666,3.895,6.666,1.243,0,2.318-.693,2.843-1.624v-2.581l-2.055-.192v-1.816h7.336v1.816l-1.506.167v5.998h-1.888c-.167-.453-.358-.907-.86-.907-.789,0-1.912,1.122-4.445,1.122-4.612,0-7.575-2.557-7.575-8.53,0-5.783,3.561-8.722,8.101-8.722,2.199,0,3.107.907,3.847.907.358,0,.503-.263.669-.693h1.649l.167,5.545h-1.792c-.717-2.82-1.911-3.896-4.205-3.896-2.891,0-4.182,2.461-4.182,6.74Z"/>
      <path class="cls-4" d="m308.172,751.016c3.059,0,5.162,1.649,5.162,5.281,0,.311-.024.956-.048,1.29h-7.169c.025,2.223.526,3.942,2.677,3.942,1.482,0,2.175-.86,2.749-2.15l1.696.597c-.717,2.246-2.485,3.537-5.042,3.537-3.871,0-5.951-2.437-5.951-6.045,0-4.11,2.534-6.452,5.927-6.452Zm1.41,4.994v-.429c0-2.175-.311-3.131-1.553-3.131-1.41,0-1.84,1.578-1.888,3.56h3.441Z"/>
      <path class="cls-4" d="m319.473,751.183l.168,2.271h.143c.597-1.219,1.625-2.438,4.038-2.438,2.366,0,3.705,1.099,3.705,3.895v6.5l1.505.168v1.672h-6.331v-1.672l1.122-.168v-6.022c0-1.29-.167-2.15-1.481-2.15-1.29,0-2.293.764-2.293,2.7v5.472l1.218.168v1.672h-6.404v-1.672l1.481-.168v-8.244l-1.481-.167v-1.649l4.612-.168Z"/>
      <path class="cls-4" d="m336.078,751.016c3.059,0,5.162,1.649,5.162,5.281,0,.311-.024.956-.048,1.29h-7.169c.025,2.223.526,3.942,2.677,3.942,1.482,0,2.175-.86,2.748-2.15l1.697.597c-.717,2.246-2.485,3.537-5.042,3.537-3.871,0-5.951-2.437-5.951-6.045,0-4.11,2.534-6.452,5.927-6.452Zm1.41,4.994v-.429c0-2.175-.311-3.131-1.553-3.131-1.41,0-1.84,1.578-1.888,3.56h3.441Z"/>
      <path class="cls-4" d="m352.635,753.74h5.831v-5.209l-1.553-.168v-1.839h7.073v1.816l-1.578.168v12.737l1.578.192v1.816h-7.073v-1.816l1.553-.192v-5.424h-5.831v5.424l1.578.192v1.816h-7.098v-1.816l1.578-.192v-12.713l-1.578-.168v-1.839h7.098v1.816l-1.578.168v5.233Z"/>
      <path class="cls-4" d="m372.203,757.014v-1.721c0-1.839-.431-2.914-2.127-2.914-.718,0-1.363.167-1.363.788,0,.096.024.215.047.335h.908c.072.311.143.646.143.932,0,.956-.597,1.649-1.839,1.649-1.29,0-1.864-.836-1.864-1.888,0-1.888,1.72-3.178,4.803-3.178,3.178,0,4.994,1.075,4.994,4.516v4.923c0,.861.047,1.267.55,1.267.19,0,.429-.047.788-.192l.335,1.219c-.454.31-1.506.764-2.7.764-1.529,0-2.174-.645-2.461-1.792-.429.789-1.338,1.792-3.369,1.792-1.911,0-3.513-.836-3.513-3.13,0-2.606,1.816-3.37,4.97-3.37h1.697Zm0,2.724v-1.481h-.932c-1.506,0-1.936.597-1.936,1.839,0,1.124.382,1.625,1.314,1.625.813,0,1.554-.525,1.554-1.984Z"/>
      <path class="cls-4" d="m385.249,757.014v-1.721c0-1.839-.431-2.914-2.128-2.914-.717,0-1.361.167-1.361.788,0,.096.024.215.047.335h.908c.072.311.143.646.143.932,0,.956-.597,1.649-1.839,1.649-1.29,0-1.864-.836-1.864-1.888,0-1.888,1.72-3.178,4.803-3.178,3.178,0,4.994,1.075,4.994,4.516v4.923c0,.861.047,1.267.55,1.267.19,0,.429-.047.788-.192l.335,1.219c-.454.31-1.506.764-2.7.764-1.529,0-2.174-.645-2.461-1.792-.429.789-1.338,1.792-3.369,1.792-1.911,0-3.513-.836-3.513-3.13,0-2.606,1.816-3.37,4.97-3.37h1.697Zm0,2.724v-1.481h-.932c-1.506,0-1.936.597-1.936,1.839,0,1.124.382,1.625,1.314,1.625.813,0,1.554-.525,1.554-1.984Z"/>
      <path class="cls-4" d="m391.674,759.38h1.482c.382,1.482,1.625,2.485,3.489,2.485,1.338,0,1.982-.429,1.982-1.314,0-1.075-1.075-1.267-2.413-1.506-2.007-.358-4.469-.764-4.469-3.942,0-2.485,1.911-4.087,4.445-4.087,1.075,0,1.745.311,2.246.574.167.096.335.143.502.143.311,0,.358-.167.478-.574h1.267v3.705h-1.457c-.622-1.529-1.458-2.271-2.988-2.271-.932,0-1.816.358-1.816,1.243,0,.979,1.052,1.171,2.342,1.434,2.007.382,4.588.86,4.588,4.063,0,2.652-1.745,4.181-4.398,4.181-1.481,0-2.318-.429-2.939-.74-.167-.072-.31-.119-.454-.119-.263,0-.358.167-.502.717h-1.386v-3.991Z"/>
      <path class="cls-4" d="m419.366,746.524l.215,4.326h-.669c-.621-2.916-1.457-3.466-3.991-3.466h-2.867v7.002h1.481c2.079,0,2.557-.765,2.939-2.916h.55v7.073h-.597c-.382-2.557-.789-3.178-3.178-3.178h-1.195v7.001l3.321.192v.693h-7.312v-.693l2.031-.167v-14.935l-2.031-.192v-.74h11.303Z"/>
      <path class="cls-4" d="m426.102,751.159c3.417,0,5.162,2.51,5.162,6.141,0,3.728-2.056,6.213-5.306,6.213-3.345,0-5.185-2.485-5.185-6.118,0-3.727,2.152-6.237,5.33-6.237Zm-.119,1.075c-2.677,0-3.25,2.534-3.25,4.995,0,2.485.597,5.185,3.321,5.185,2.629,0,3.25-2.509,3.25-5.019,0-2.413-.574-5.162-3.321-5.162Z"/>
      <path class="cls-4" d="m436.184,759.595c0,1.696.502,2.557,2.437,2.557,1.864,0,3.466-1.171,3.466-3.393v-6.356l-1.768-.168v-.813l3.488-.095v10.945l1.578.167v.813h-3.011l-.167-1.984c-.765,1.147-2.152,2.246-4.11,2.246-2.557,0-3.632-1.338-3.632-3.942v-7.169l-1.672-.168v-.813l3.393-.095v8.268Z"/>
      <path class="cls-4" d="m450.328,751.278l.096,2.246c.717-1.146,2.103-2.366,4.205-2.366,2.606,0,3.585,1.339,3.585,4.134v7.002l1.625.167v.789h-5.09v-.789l1.743-.167v-7.026c0-1.911-.478-2.82-2.461-2.82-1.863,0-3.512,1.267-3.512,3.202v6.644l1.768.167v.789h-5.066v-.789l1.553-.167v-9.917l-1.553-.168v-.764l3.106-.168Z"/>
      <path class="cls-4" d="m469.993,752.665v-6.261l-1.982-.192v-.764l3.727-.119v16.966l1.745.167v.789h-3.393l-.119-1.864c-.621,1.052-1.768,2.127-3.871,2.127-3.106,0-4.563-2.413-4.563-5.95,0-4.087,2.031-6.405,5.041-6.405,1.315,0,2.486.407,3.417,1.506Zm0,6.38v-3.703c0-2.223-1.553-3.059-3.082-3.059-2.556,0-3.417,2.007-3.417,5.017,0,2.295.502,4.899,3.131,4.899,1.745,0,3.369-1.314,3.369-3.155Z"/>
      <path class="cls-4" d="m481.915,756.99v-1.553c0-2.175-.526-3.346-2.485-3.346-.693,0-2.246.119-2.246,1.075,0,.096.024.192.047.311h.74c.072.286.144.597.144.836,0,.765-.55,1.124-1.171,1.124-.718,0-1.267-.431-1.267-1.363,0-1.672,1.625-2.916,4.014-2.916,2.843,0,3.967,1.267,3.967,4.517v5.544c0,1.099.19,1.386.813,1.386.286,0,.525-.048.788-.144l.168.765c-.407.19-.836.286-1.386.286-1.147,0-1.888-.429-2.031-1.696-.861,1.218-2.246,1.696-3.513,1.696-1.84,0-3.321-.813-3.321-3.01,0-2.606,2.221-3.513,5.113-3.513h1.625Zm0,2.796v-1.84h-1.602c-2.317,0-3.178.979-3.178,2.342,0,1.41.621,2.103,2.031,2.103,1.315,0,2.749-.836,2.749-2.605Z"/>
      <path class="cls-4" d="m487.578,752.426h-1.792v-1.004h1.792v-3.13l1.482-.478h.263v3.608h2.628v1.004h-2.628v8.029c0,1.386.382,1.911,1.338,1.911.885,0,1.339-.334,1.745-1.696l.813.239c-.454,1.888-1.41,2.605-2.867,2.605-1.864,0-2.773-.932-2.773-2.677v-8.411Z"/>
      <path class="cls-4" d="m498.163,751.302v10.993l1.816.167v.789h-5.352v-.789l1.792-.167v-9.917l-1.817-.168v-.789l3.561-.119Zm-1.124-5.352c.669,0,1.218.286,1.218,1.243,0,.788-.453,1.195-1.195,1.195-.86,0-1.218-.478-1.218-1.171,0-.742.382-1.267,1.195-1.267Z"/>
      <path class="cls-4" d="m507.05,751.159c3.417,0,5.162,2.51,5.162,6.141,0,3.728-2.056,6.213-5.306,6.213-3.345,0-5.185-2.485-5.185-6.118,0-3.727,2.152-6.237,5.33-6.237Zm-.119,1.075c-2.677,0-3.25,2.534-3.25,4.995,0,2.485.597,5.185,3.321,5.185,2.629,0,3.25-2.509,3.25-5.019,0-2.413-.574-5.162-3.321-5.162Z"/>
      <path class="cls-4" d="m517.419,751.278l.096,2.246c.717-1.146,2.103-2.366,4.206-2.366,2.605,0,3.584,1.339,3.584,4.134v7.002l1.625.167v.789h-5.09v-.789l1.743-.167v-7.026c0-1.911-.478-2.82-2.461-2.82-1.863,0-3.512,1.267-3.512,3.202v6.644l1.768.167v.789h-5.066v-.789l1.553-.167v-9.917l-1.553-.168v-.764l3.106-.168Z"/>
    </g>
    <g>
      <polygon class="cls-2" points="344.459 669.679 324.711 703.885 284.732 703.842 277.466 716.406 317.457 716.449 309.127 730.876 323.641 730.876 358.973 669.679 344.459 669.679"/>
      <polygon class="cls-2" points="373.764 669.679 354.023 703.872 343.363 703.842 336.097 716.406 346.769 716.436 338.432 730.876 352.946 730.876 388.278 669.679 373.764 669.679"/>
      <polygon class="cls-2" points="395.21 669.679 359.878 730.876 374.392 730.876 409.723 669.679 395.21 669.679"/>
      <polygon class="cls-2" points="437.309 669.679 411.76 713.931 411.76 673.141 399.522 694.145 399.523 703.859 393.842 703.842 386.576 716.406 399.524 716.445 399.525 730.876 416.491 730.876 451.823 669.679 437.309 669.679"/>
      <path class="cls-2" d="m487.841,682.691h39.778l7.609-13.012h-52.988c-2.531,0-4.872,1.344-6.148,3.529l-14.347,24.568c-2.115,3.622.497,8.174,4.692,8.174h19.048l-6.427,10.664c-.616,1.022-1.722,1.646-2.915,1.646h-21.915v-44.982l-12.238,21.004.003,9.454v.123s-5.642-.017-5.642-.017l-7.266,12.564,12.912.039v.026l.004,14.404h9.34s30.426,0,30.426,0c2.531,0,4.872-1.344,6.148-3.53l15.161-25.966c2.101-3.599-.494-8.121-4.662-8.121h-18.404l5.378-9.164c.511-.87,1.444-1.405,2.454-1.405Z"/>
    </g>
  </g>
</svg>